{
classes = (
{
code = "";
name = R_V;
},
{
code = "";
name = L_V;
},
{
code = "";
name = R_J;
},
{
code = "";
name = L_F;
},
{
code = "";
name = L_Y;
},
{
code = "";
name = R_Y;
},
{
code = "";
name = R_A;
},
{
code = "";
name = L_A;
},
{
code = "";
name = L_T;
},
{
code = "";
name = L_P;
},
{
code = "";
name = L_L;
},
{
code = "";
name = R_T;
},
{
code = "";
name = R_X;
},
{
code = "";
name = R_O;
},
{
code = "";
name = L_O;
},
{
code = "";
name = L_K;
}
);
copyright = "Copyright (c) 2011 Natanael Gama (exo@ndiscovered.com), with Reserved Font Name \"Exo\"";
customParameters = (
{
name = glyphOrder;
value = (
    space,
    nbspace,
    A,
    B,
    C,
    D,
    E,
    F,
    G,
    H,
    I,
    J,
    K,
    L,
    M,
    N,
    O,
    P,
    Q,
    R,
    S,
    T,
    U,
    V,
    W,
    X,
    Y,
    Z,
    a,
    b,
    c,
    d,
    e,
    f,
    g,
    h,
    i,
    j,
    k,
    l,
    m,
    n,
    o,
    p,
    q,
    r,
    s,
    t,
    u,
    v,
    w,
    x,
    y,
    z,
    Aring,
    aring,
    AE,
    ae,
    ccedilla,
    Dcroat,
    dcroat,
    Eth,
    eth,
    Hbar,
    hbar,
    jdotless,
    kgreenlandic,
    Lslash,
    lslash,
    ntilde,
    Eng,
    eng,
    Oslash,
    oslash,
    OE,
    oe,
    Germandbls,
    germandbls,
    Tcommaaccent,
    tcommaaccent,
    Tbar,
    tbar,
    Thorn,
    thorn,
    Schwa,
    schwa,
    "f_f",
    fi,
    fl,
    "f_f_i",
    "f_f_l",
    ampersand,
    at,
    asterisk,
    copyright,
    registered,
    trademark,
    asciicircum,
    asciitilde,
    grave,
    acute,
    circumflex,
    caron,
    "caroncomb.alt",
    tilde,
    dieresis,
    macron,
    apostrophemod,
    breve,
    ring,
    hungarumlaut,
    dotaccent,
    cedilla,
    ogonek,
    gravecomb,
    acutecomb,
    circumflexcomb,
    tildecomb,
    macroncomb,
    brevecomb,
    dotaccentcomb,
    dieresiscomb,
    hookabovecomb,
    ringcomb,
    hungarumlautcomb,
    caroncomb,
    breveinvertedcomb,
    dblgravecomb,

glyphs = (
{
glyphname = A;
lastChange = "2016-12-19 14:59:05 +0000";
layers = (
{
anchors = (
{
name = bottom;
position = "{333, -150}";
},
{
name = top;
position = "{333, 810}";
}
);
layerId = "1A646CEF-9FB5-4F4A-951A-F8B2030A9B85";
name = Light;
paths = (
{
closed = 1;
nodes = (
"174 277 LINE",
"333 708 LINE",
"489 277 LINE"
);
},
{
closed = 1;
nodes = (
"48 0 LINE",
"74 0 LINE",
"167 255 LINE",
"498 255 LINE",
"592 0 LINE",
"618 0 LINE",
"350 732 LINE",
"316 732 LINE"
);
}
);
width = 666;
}
);
unicode = 0041;
userData = {
com.fontlab.hintData = {
hhints = (
{
position = 0;
width = 21;
},
{
position = 253;
width = 24;
},
{
position = 712;
width = 20;
}
);
};
com.typemytype.robofont.layerData = {
background = {
anchors = (
);
components = (
);
contours = (
{
points = (
{
segmentType = line;
smooth = 0;
x = 177;
y = 277;
},
{
segmentType = line;
smooth = 0;
x = 492;
y = 277;
},
{
segmentType = line;
smooth = 0;
x = 339;
y = 708;
}
);
},
{
points = (
{
segmentType = line;
smooth = 0;
x = 48;
y = 0;
},
{
segmentType = line;
smooth = 0;
x = 322;
y = 732;
},
{
segmentType = line;
smooth = 0;
x = 356;
y = 732;
},
{
segmentType = line;
smooth = 0;
x = 618;
y = 0;
},
{
segmentType = line;
smooth = 0;
x = 592;
y = 0;
},
{
segmentType = line;
smooth = 0;
x = 501;
y = 253;
},
{
segmentType = line;
smooth = 0;
x = 168;
y = 253;
},
{
segmentType = line;
smooth = 0;
x = 74;
y = 0;
}
);
}
);
lib = {
};
name = A;
unicodes = (
);
width = 666;
};
};
};
},
{
glyphname = B;
lastChange = "2016-12-19 14:59:05 +0000";
layers = (
{
anchors = (
{
name = bottom;
position = "{293, -150}";
},
{
name = top;
position = "{293, 810}";
}
);
layerId = "1A646CEF-9FB5-4F4A-951A-F8B2030A9B85";
name = Light;
paths = (
{
closed = 1;
nodes = (
"112 390 LINE",
"112 710 LINE",
"334 710 LINE SMOOTH",
"425 710 OFFCURVE",
"487 668 OFFCURVE",
"483 548 CURVE SMOOTH",
"480 450 OFFCURVE",
"421 390 OFFCURVE",
"341 390 CURVE SMOOTH"
);
},
{
closed = 1;
nodes = (
"112 22 LINE",
"112 368 LINE",
"341 368 LINE SMOOTH",
"433 368 OFFCURVE",
"510 309 OFFCURVE",
"510 206 CURVE SMOOTH",
"510 54 OFFCURVE",
"440 22 OFFCURVE",
"341 22 CURVE SMOOTH"
);
},
{
closed = 1;
nodes = (
"88 0 LINE",
"341 0 LINE SMOOTH",
"455 0 OFFCURVE",
"534 42 OFFCURVE",
"534 204 CURVE SMOOTH",
"534 328 OFFCURVE",
"446 370 OFFCURVE",
"402 380 CURVE",
"453 395 OFFCURVE",
"507 453 OFFCURVE",
"507 548 CURVE SMOOTH",
"507 676 OFFCURVE",
"444 732 OFFCURVE",
"334 732 CURVE SMOOTH",
"88 732 LINE"
);
}
);
width = 584;
}
);
unicode = 0042;
userData = {
com.fontlab.hintData = {
hhints = (
{
position = 0;
width = 25;
},
{
position = 371;
width = 24;
},
{
position = 708;
width = 24;
}
);
vhints = (
{
position = 108;
width = 24;
},
{
position = 530;
width = 24;
}
);
};
com.typemytype.robofont.layerData = {
background = {
anchors = (
);
components = (
);
contours = (
{
points = (
{
segmentType = line;
smooth = 0;
x = 112;
y = 395;
},
{
segmentType = line;
smooth = 1;
x = 341;
y = 395;
},
{
smooth = 0;
x = 434;
y = 395;
},
{
smooth = 0;
x = 504;
y = 451;
},
{
segmentType = curve;
smooth = 1;
x = 507;
y = 549;
},
{
smooth = 0;
x = 511;
y = 667;
},
{
smooth = 0;
x = 448;
y = 708;
},
{
segmentType = curve;
smooth = 1;
x = 341;
y = 708;
},
{
segmentType = line;
smooth = 0;
x = 112;
y = 708;
}
);
},
{
points = (
{
segmentType = line;
smooth = 0;
x = 112;
y = 25;
},
{
segmentType = line;
smooth = 1;
x = 341;
y = 25;
},
{
smooth = 0;
x = 420;
y = 25;
},
{
smooth = 0;
x = 510;
y = 56;
},
{
segmentType = curve;
smooth = 1;
x = 510;
y = 206;
},
{
smooth = 0;
x = 510;
y = 298;
},
{
smooth = 0;
x = 433;
y = 373;
},
{
segmentType = curve;
smooth = 0;
x = 341;
y = 371;
},
{
segmentType = line;
smooth = 0;
x = 112;
y = 371;
}
);
},
{
points = (
{
segmentType = line;
smooth = 0;
x = 88;
y = 0;
},
{
segmentType = line;
smooth = 0;
x = 88;
y = 732;
},
{
segmentType = line;
smooth = 1;
x = 341;
y = 732;
},
{
smooth = 0;
x = 489;
y = 732;
},
{
smooth = 0;
x = 531;
y = 656;
},
{
segmentType = curve;
smooth = 1;
x = 531;
y = 549;
},
{
smooth = 0;
x = 531;
y = 453;
},
{
smooth = 0;
x = 465;
y = 391;
},
{
segmentType = curve;
smooth = 0;
x = 402;
y = 384;
},
{
smooth = 0;
x = 446;
y = 374;
},
{
smooth = 0;
x = 534;
y = 318;
},
{
segmentType = curve;
smooth = 1;
x = 534;
y = 204;
},
{
smooth = 0;
x = 534;
y = 102;
},
{
smooth = 0;
x = 495;
y = 0;
},
{
segmentType = curve;
smooth = 1;
x = 341;
y = 0;
}
);
}
);
lib = {
};
name = B;
unicodes = (
);
width = 584;
};
};
};
},
{
glyphname = C;
lastChange = "2016-12-19 14:59:05 +0000";
layers = (
{
anchors = (
{
name = bottom;
position = "{330, -150}";
},
{
name = top;
position = "{330, 810}";
}
);
layerId = "1A646CEF-9FB5-4F4A-951A-F8B2030A9B85";
name = Light;
paths = (
{
closed = 1;
nodes = (
"70 368 CURVE SMOOTH",
"70 54 OFFCURVE",
"141 -6 OFFCURVE",
"323 -6 CURVE SMOOTH",
"373 -6 OFFCURVE",
"460 2 OFFCURVE",
"527 14 CURVE",
"527 30 LINE",
"486 23 OFFCURVE",
"424 16 OFFCURVE",
"324 16 CURVE SMOOTH",
"159 16 OFFCURVE",
"94 66 OFFCURVE",
"94 368 CURVE SMOOTH",
"94 650 OFFCURVE",
"160 716 OFFCURVE",
"329 716 CURVE SMOOTH",
"405 716 OFFCURVE",
"496 707 OFFCURVE",
"527 702 CURVE",
"527 718 LINE",
"457 731 OFFCURVE",
"365 738 OFFCURVE",
"331 738 CURVE SMOOTH",
"141 738 OFFCURVE",
"70 661 OFFCURVE"
);
}
);
width = 577;
}
);
unicode = 0043;
userData = {
com.fontlab.hintData = {
hhints = (
{
position = "-6";
width = 24;
},
{
position = 716;
width = 24;
}
);
vhints = (
{
position = 74;
width = 24;
}
);
};
com.typemytype.robofont.layerData = {
background = {
anchors = (
);
components = (
{
baseGlyph = O;
transformation = (
1,
0,
0,
1,
0,
0
);
}
);
contours = (
);
lib = {
};
name = C;
unicodes = (
);
width = 577;
};
};
};
},
{
glyphname = D;
lastChange = "2016-12-19 14:59:05 +0000";
layers = (
{
anchors = (
{
name = bottom;
position = "{310, -150}";
},
{
name = top;
position = "{310, 810}";
}
);
layerId = "1A646CEF-9FB5-4F4A-951A-F8B2030A9B85";
name = Light;
paths = (
{
closed = 1;
nodes = (
"112 22 LINE",
"112 710 LINE",
"361 710 LINE SMOOTH",
"508 710 OFFCURVE",
"566 606 OFFCURVE",
"566 366 CURVE SMOOTH",
"566 165 OFFCURVE",
"500 22 OFFCURVE",
"361 22 CURVE SMOOTH"
);
},
{
closed = 1;
nodes = (
"88 0 LINE",
"361 0 LINE SMOOTH",
"511 0 OFFCURVE",
"590 150 OFFCURVE",
"590 366 CURVE SMOOTH",
"590 616 OFFCURVE",
"520 732 OFFCURVE",
"361 732 CURVE SMOOTH",
"88 732 LINE"
);
}
);
width = 660;
}
);
unicode = 0044;
userData = {
com.fontlab.hintData = {
hhints = (
{
position = 0;
width = 24;
},
{
position = 708;
width = 24;
}
);
vhints = (
{
position = 108;
width = 24;
},
{
position = 596;
width = 24;
}
);
};
com.typemytype.robofont.layerData = {
background = {
anchors = (
);
components = (
{
baseGlyph = O;
transformation = (
1,
0,
0,
1,
0,
0
);
}
);
contours = (
);
lib = {
};
name = D;
unicodes = (
);
width = 660;
};
};
};
},
{
glyphname = E;
lastChange = "2016-12-19 14:59:05 +0000";
layers = (
{
anchors = (
{
name = bottom;
position = "{310, -150}";
},
{
name = ogonek;
position = "{501, 3}";
},
{
name = top;
position = "{310, 810}";
}
);
layerId = "1A646CEF-9FB5-4F4A-951A-F8B2030A9B85";
name = Light;
paths = (
{
closed = 1;
nodes = (
"88 123 LINE SMOOTH",
"88 10 OFFCURVE",
"159 -4 OFFCURVE",
"225 -3 CURVE SMOOTH",
"511 3 LINE",
"511 19 LINE",
"224 19 LINE SMOOTH",
"169 19 OFFCURVE",
"112 29 OFFCURVE",
"112 123 CURVE SMOOTH",
"112 352 LINE",
"471 355 LINE",
"471 371 LINE",
"112 374 LINE",
"112 602 LINE SMOOTH",
"112 678 OFFCURVE",
"152 710 OFFCURVE",
"214 710 CURVE SMOOTH",
"511 710 LINE",
"511 726 LINE",
"214 732 LINE SMOOTH",
"150 733 OFFCURVE",
"88 700 OFFCURVE",
"88 602 CURVE SMOOTH"
);
}
);
width = 579;
}
);
unicode = 0045;
userData = {
com.fontlab.hintData = {
hhints = (
{
position = "-3";
width = 24;
},
{
position = 7;
width = 14;
},
{
position = 351;
width = 24;
},
{
position = 708;
width = 24;
},
{
position = 708;
width = 14;
}
);
vhints = (
{
position = 108;
width = 24;
}
);
};
com.typemytype.robofont.layerData = {
background = {
anchors = (
);
components = (
{
baseGlyph = L;
transformation = (
1,
0,
0,
1,
0,
0
);
}
);
contours = (
{
points = (
{
segmentType = curve;
smooth = 1;
x = 88;
y = 123;
},
{
segmentType = line;
smooth = 1;
x = 88;
y = 602;
},
{
smooth = 0;
x = 88;
y = 700;
},
{
smooth = 0;
x = 150.005;
y = 734.154;
},
{
segmentType = curve;
smooth = 1;
x = 214;
y = 732;
},
{
segmentType = line;
smooth = 0;
x = 511;
y = 722;
},
{
segmentType = line;
smooth = 0;
x = 511;
y = 708;
},
{
segmentType = line;
smooth = 1;
x = 214;
y = 708;
},
{
smooth = 0;
x = 152;
y = 708;
},
{
smooth = 0;
x = 112;
y = 677;
},
{
segmentType = curve;
smooth = 1;
x = 112;
y = 602;
},
{
segmentType = line;
smooth = 0;
x = 112;
y = 375;
},
{
segmentType = line;
smooth = 0;
x = 471;
y = 370;
},
{
segmentType = line;
smooth = 0;
x = 471;
y = 356;
},
{
segmentType = line;
smooth = 0;
x = 112;
y = 351;
},
{
segmentType = line;
smooth = 1;
x = 112;
y = 123;
},
{
smooth = 0;
x = 112;
y = 31;
},
{
smooth = 0;
x = 169;
y = 21;
},
{
segmentType = curve;
smooth = 1;
x = 224;
y = 21;
},
{
segmentType = line;
smooth = 0;
x = 511;
y = 21;
},
{
segmentType = line;
smooth = 0;
x = 511;
y = 7;
},
{
segmentType = line;
smooth = 1;
x = 225;
y = "-3";
},
{
smooth = 0;
x = 158.973;
y = "-5.30078";
},
{
smooth = 0;
x = 88;
y = 10;
}
);
}
);
lib = {
};
name = E;
unicodes = (
);
width = 579;
};
};
};
},
{
glyphname = F;
lastChange = "2016-12-19 14:59:05 +0000";
layers = (
{
anchors = (
{
name = top;
position = "{310, 810}";
}
);
layerId = "1A646CEF-9FB5-4F4A-951A-F8B2030A9B85";
name = Light;
paths = (
{
closed = 1;
nodes = (
"88 0 LINE",
"112 0 LINE",
"112 338 LINE",
"471 341 LINE",
"471 357 LINE",
"112 360 LINE",
"112 602 LINE SMOOTH",
"112 677 OFFCURVE",
"152 710 OFFCURVE",
"214 710 CURVE SMOOTH",
"511 710 LINE",
"511 726 LINE",
"214 732 LINE SMOOTH",
"150 733 OFFCURVE",
"88 700 OFFCURVE",
"88 602 CURVE SMOOTH"
);
}
);
width = 555;
}
);
unicode = 0046;
userData = {
com.fontlab.hintData = {
hhints = (
{
position = 0;
width = 21;
},
{
position = 351;
width = 24;
},
{
position = 708;
width = 24;
},
{
position = 708;
width = 14;
}
);
vhints = (
{
position = 108;
width = 24;
}
);
};
com.typemytype.robofont.layerData = {
background = {
anchors = (
);
components = (
);
contours = (
{
points = (
{
segmentType = line;
smooth = 0;
x = 88;
y = 0;
},
{
segmentType = line;
smooth = 1;
x = 88;
y = 602;
},
{
smooth = 0;
x = 88;
y = 700;
},
{
smooth = 0;
x = 150.005;
y = 734.154;
},
{
segmentType = curve;
smooth = 1;
x = 214;
y = 732;
},
{
segmentType = line;
smooth = 0;
x = 511;
y = 722;
},
{
segmentType = line;
smooth = 0;
x = 511;
y = 708;
},
{
segmentType = line;
smooth = 1;
x = 214;
y = 708;
},
{
smooth = 0;
x = 152;
y = 708;
},
{
smooth = 0;
x = 112;
y = 677;
},
{
segmentType = curve;
smooth = 1;
x = 112;
y = 602;
},
{
segmentType = line;
smooth = 0;
x = 112;
y = 375;
},
{
segmentType = line;
smooth = 0;
x = 471;
y = 370;
},
{
segmentType = line;
smooth = 0;
x = 471;
y = 356;
},
{
segmentType = line;
smooth = 0;
x = 112;
y = 351;
},
{
segmentType = line;
smooth = 0;
x = 112;
y = 0;
}
);
}
);
lib = {
};
name = F;
unicodes = (
);
width = 555;
};
};
};
},
{
glyphname = G;
lastChange = "2016-12-19 14:59:05 +0000";
layers = (
{
anchors = (
{
name = bottom;
position = "{330, -150}";
},
{
name = top;
position = "{330, 810}";
}
);
layerId = "1A646CEF-9FB5-4F4A-951A-F8B2030A9B85";
name = Light;
paths = (
{
closed = 1;
nodes = (
"70 370 CURVE SMOOTH",
"70 86 OFFCURVE",
"123 -7 OFFCURVE",
"313 -5 CURVE SMOOTH",
"395 -4 OFFCURVE",
"477 27 OFFCURVE",
"532 53 CURVE",
"538 0 LINE",
"554 0 LINE",
"554 363 LINE",
"535 366 OFFCURVE",
"505 368 OFFCURVE",
"476 368 CURVE SMOOTH",
"410 368 OFFCURVE",
"353 364 OFFCURVE",
"316 358 CURVE",
"316 344 LINE",
"530 344 LINE",
"530 69 LINE",
"470 44 OFFCURVE",
"384 17 OFFCURVE",
"313 17 CURVE SMOOTH",
"138 17 OFFCURVE",
"94 101 OFFCURVE",
"94 368 CURVE SMOOTH",
"94 613 OFFCURVE",
"141 716 OFFCURVE",
"300 716 CURVE SMOOTH",
"386 716 OFFCURVE",
"489 706 OFFCURVE",
"527 702 CURVE",
"527 718 LINE",
"464 729 OFFCURVE",
"358 738 OFFCURVE",
"300 738 CURVE SMOOTH",
"126 738 OFFCURVE",
"70 629 OFFCURVE"
);
}
);
width = 642;
}
);
unicode = 0047;
userData = {
com.fontlab.hintData = {
hhints = (
{
position = "-5";
width = 24;
},
{
position = 364;
width = 25;
},
{
position = 364;
width = 14;
},
{
position = 716;
width = 24;
}
);
vhints = (
{
position = 74;
width = 24;
},
{
position = 534;
width = 24;
},
{
position = 544;
width = 14;
}
);
};
com.typemytype.robofont.layerData = {
background = {
anchors = (
);
components = (
{
baseGlyph = C;
transformation = (
1,
0,
0,
1,
0,
0
);
}
);
contours = (
);
lib = {
};
name = G;
unicodes = (
);
width = 642;
};
};
};
},
{
glyphname = H;
lastChange = "2016-12-19 14:59:05 +0000";
layers = (
{
anchors = (
{
name = top;
position = "{332, 810}";
}
);
layerId = "1A646CEF-9FB5-4F4A-951A-F8B2030A9B85";
name = Light;
paths = (
{
closed = 1;
nodes = (
"88 0 LINE",
"112 0 LINE",
"112 343 LINE",
"552 343 LINE",
"552 0 LINE",
"576 0 LINE",
"576 732 LINE",
"552 732 LINE",
"552 365 LINE",
"112 365 LINE",
"112 732 LINE",
"88 732 LINE"
);
}
);
width = 664;
}
);
unicode = 0048;
userData = {
com.fontlab.hintData = {
hhints = (
{
position = 0;
width = 21;
},
{
position = 342;
width = 24;
},
{
position = 712;
width = 20;
}
);
vhints = (
{
position = 108;
width = 24;
},
{
position = 572;
width = 24;
}
);
};
com.typemytype.robofont.layerData = {
background = {
anchors = (
);
components = (
);
contours = (
{
points = (
{
segmentType = line;
smooth = 0;
x = 88;
y = 0;
},
{
segmentType = line;
smooth = 0;
x = 88;
y = 732;
},
{
segmentType = line;
smooth = 0;
x = 112;
y = 732;
},
{
segmentType = line;
smooth = 0;
x = 112;
y = 366;
},
{
segmentType = line;
smooth = 0;
x = 552;
y = 366;
},
{
segmentType = line;
smooth = 0;
x = 552;
y = 732;
},
{
segmentType = line;
smooth = 0;
x = 576;
y = 732;
},
{
segmentType = line;
smooth = 0;
x = 576;
y = 0;
},
{
segmentType = line;
smooth = 0;
x = 552;
y = 0;
},
{
segmentType = line;
smooth = 0;
x = 552;
y = 342;
},
{
segmentType = line;
smooth = 0;
x = 112;
y = 342;
},
{
segmentType = line;
smooth = 0;
x = 112;
y = 0;
}
);
}
);
lib = {
};
name = H;
unicodes = (
);
width = 664;
};
};
};
},
{
glyphname = I;
lastChange = "2016-12-19 14:59:05 +0000";
layers = (
{
anchors = (
{
name = bottom;
position = "{100, -150}";
},
{
name = ogonek;
position = "{102, 0}";
},
{
name = top;
position = "{100, 810}";
}
);
layerId = "1A646CEF-9FB5-4F4A-951A-F8B2030A9B85";
name = Light;
paths = (
{
closed = 1;
nodes = (
"88 0 LINE",
"112 0 LINE",
"112 732 LINE",
"88 732 LINE"
);
}
);
width = 200;
}
);
unicode = 0049;
userData = {
com.fontlab.hintData = {
hhints = (
{
position = 0;
width = 21;
},
{
position = 712;
width = 20;
}
);
vhints = (
{
position = 108;
width = 24;
}
);
};
com.typemytype.robofont.layerData = {
background = {
anchors = (
);
components = (
);
contours = (
{
points = (
{
segmentType = line;
smooth = 0;
x = 88;
y = 0;
},
{
segmentType = line;
smooth = 0;
x = 88;
y = 732;
},
{
segmentType = line;
smooth = 0;
x = 112;
y = 732;
},
{
segmentType = line;
smooth = 0;
x = 112;
y = 0;
}
);
}
);
lib = {
};
name = I;
unicodes = (
);
width = 200;
};
};
};
},
{
glyphname = J;
lastChange = "2016-12-19 14:59:05 +0000";
layers = (
{
anchors = (
{
name = top;
position = "{269, 810}";
}
);
layerId = "1A646CEF-9FB5-4F4A-951A-F8B2030A9B85";
name = Light;
paths = (
{
closed = 1;
nodes = (
"27 19 LINE",
"54 5 OFFCURVE",
"100 -6 OFFCURVE",
"134 -6 CURVE SMOOTH",
"227 -6 OFFCURVE",
"281 26 OFFCURVE",
"281 145 CURVE SMOOTH",
"281 732 LINE",
"257 732 LINE",
"257 145 LINE SMOOTH",
"257 37 OFFCURVE",
"205 16 OFFCURVE",
"134 16 CURVE SMOOTH",
"103 16 OFFCURVE",
"56 26 OFFCURVE",
"27 35 CURVE"
);
}
);
width = 369;
}
);
unicode = 004A;
userData = {
com.fontlab.hintData = {
hhints = (
{
position = 21;
width = 14;
},
{
position = 712;
width = 20;
}
);
vhints = (
{
position = 257;
width = 24;
}
);
};
com.typemytype.robofont.layerData = {
background = {
anchors = (
);
components = (
);
contours = (
{
points = (
{
segmentType = curve;
smooth = 0;
x = 47;
y = 21;
},
{
segmentType = line;
smooth = 0;
x = 51;
y = 35;
},
{
smooth = 0;
x = 139;
y = 8;
},
{
smooth = 0;
x = 257;
y = "-9";
},
{
segmentType = curve;
smooth = 1;
x = 257;
y = 165;
},
{
segmentType = line;
smooth = 0;
x = 257;
y = 732;
},
{
segmentType = line;
smooth = 0;
x = 281;
y = 732;
},
{
segmentType = line;
smooth = 1;
x = 281;
y = 165;
},
{
smooth = 0;
x = 281;
y = 118;
},
{
smooth = 0;
x = 274;
y = 51;
},
{
segmentType = curve;
smooth = 1;
x = 229;
y = 18;
},
{
smooth = 0;
x = 186;
y = "-14";
},
{
smooth = 0;
x = 99;
y = "-13";
}
);
}
);
lib = {
};
name = J;
unicodes = (
);
width = 369;
};
};
};
},
{
glyphname = K;
lastChange = "2016-12-19 14:59:05 +0000";
layers = (
{
anchors = (
{
name = bottom;
position = "{270, -150}";
},
{
name = top;
position = "{270, 810}";
}
);
layerId = "1A646CEF-9FB5-4F4A-951A-F8B2030A9B85";
name = Light;
paths = (
{
closed = 1;
nodes = (
"88 0 LINE",
"112 0 LINE",
"112 356 LINE",
"266 356 LINE",
"507 0 LINE",
"534 0 LINE",
"286 367 LINE",
"534 732 LINE",
"508 732 LINE",
"267 378 LINE",
"112 378 LINE",
"112 732 LINE",
"88 732 LINE"
);
}
);
width = 573;
}
);
unicode = 004B;
userData = {
com.fontlab.hintData = {
hhints = (
{
position = 0;
width = 21;
},
{
position = 355;
width = 24;
},
{
position = 712;
width = 20;
}
);
vhints = (
{
position = 108;
width = 25;
}
);
};
com.typemytype.robofont.layerData = {
background = {
anchors = (
);
components = (
);
contours = (
{
points = (
{
segmentType = line;
smooth = 0;
x = 88;
y = 0;
},
{
segmentType = line;
smooth = 0;
x = 88;
y = 732;
},
{
segmentType = line;
smooth = 0;
x = 112;
y = 732;
},
{
segmentType = line;
smooth = 0;
x = 112;
y = 379;
},
{
segmentType = line;
smooth = 0;
x = 264;
y = 379;
},
{
segmentType = line;
smooth = 0;
x = 505;
y = 732;
},
{
segmentType = line;
smooth = 0;
x = 534;
y = 732;
},
{
segmentType = line;
smooth = 0;
x = 286;
y = 367;
},
{
segmentType = line;
smooth = 0;
x = 534;
y = 0;
},
{
segmentType = line;
smooth = 0;
x = 504;
y = 0;
},
{
segmentType = line;
smooth = 0;
x = 263;
y = 355;
},
{
segmentType = line;
smooth = 0;
x = 113;
y = 355;
},
{
segmentType = line;
smooth = 0;
x = 113;
y = 0;
}
);
}
);
lib = {
};
name = K;
unicodes = (
);
width = 573;
};
};
};
},
{
glyphname = L;
lastChange = "2016-12-19 14:59:05 +0000";
layers = (
{
anchors = (
{
name = bottom;
position = "{260, -150}";
},
{
name = top;
position = "{100, 810}";
}
);
layerId = "1A646CEF-9FB5-4F4A-951A-F8B2030A9B85";
name = Light;
paths = (
{
closed = 1;
nodes = (
"88 126 LINE SMOOTH",
"88 23 OFFCURVE",
"151 0 OFFCURVE",
"214 0 CURVE SMOOTH",
"500 0 LINE",
"500 24 LINE",
"214 24 LINE SMOOTH",
"165 24 OFFCURVE",
"112 37 OFFCURVE",
"112 126 CURVE SMOOTH",
"112 732 LINE",
"88 732 LINE"
);
}
);
width = 529;
}
);
unicode = 004C;
userData = {
com.fontlab.hintData = {
hhints = (
{
position = 0;
width = 24;
},
{
position = 712;
width = 20;
}
);
vhints = (
{
position = 108;
width = 24;
}
);
};
com.typemytype.robofont.layerData = {
background = {
anchors = (
);
components = (
);
contours = (
{
points = (
{
segmentType = curve;
smooth = 1;
x = 88;
y = 126;
},
{
segmentType = line;
smooth = 0;
x = 88;
y = 732;
},
{
segmentType = line;
smooth = 0;
x = 112;
y = 732;
},
{
segmentType = line;
smooth = 1;
x = 112;
y = 126;
},
{
smooth = 0;
x = 112;
y = 34;
},
{
smooth = 0;
x = 170;
y = 24;
},
{
segmentType = curve;
smooth = 1;
x = 224;
y = 24;
},
{
segmentType = line;
smooth = 0;
x = 500;
y = 24;
},
{
segmentType = line;
smooth = 0;
x = 500;
y = 0;
},
{
segmentType = line;
smooth = 1;
x = 224;
y = 0;
},
{
smooth = 0;
x = 158;
y = 0;
},
{
smooth = 0;
x = 88;
y = 13;
}
);
}
);
lib = {
};
name = L;
unicodes = (
);
width = 529;
};
};
};
},
{
glyphname = M;
lastChange = "2016-12-19 14:59:05 +0000";
layers = (
{
anchors = (
{
name = top;
position = "{398, 810}";
}
);
layerId = "1A646CEF-9FB5-4F4A-951A-F8B2030A9B85";
name = Light;
paths = (
{
closed = 1;
nodes = (
"68 0 LINE",
"149 732 LINE",
"182 732 LINE",
"398 41 LINE",
"610 732 LINE",
"645 732 LINE",
"729 0 LINE",
"705 0 LINE",
"622 726 LINE",
"629 723 LINE",
"409 0 LINE",
"388 0 LINE",
"163 722 LINE",
"170 724 LINE",
"91 0 LINE"
);
}
);
width = 797;
}
);
unicode = 004D;
userData = {
com.fontlab.hintData = {
hhints = (
{
position = 0;
width = 21;
},
{
position = 712;
width = 20;
}
);
};
com.typemytype.robofont.layerData = {
background = {
anchors = (
);
components = (
);
contours = (
{
points = (
{
segmentType = line;
smooth = 0;
x = 68;
y = 0;
},
{
segmentType = line;
smooth = 0;
x = 149;
y = 732;
},
{
segmentType = line;
smooth = 0;
x = 185;
y = 732;
},
{
segmentType = line;
smooth = 0;
x = 398;
y = 41;
},
{
segmentType = line;
smooth = 0;
x = 607;
y = 732;
},
{
segmentType = line;
smooth = 0;
x = 645;
y = 732;
},
{
segmentType = line;
smooth = 0;
x = 729;
y = 0;
},
{
segmentType = line;
smooth = 0;
x = 705;
y = 0;
},
{
segmentType = line;
smooth = 0;
x = 624;
y = 703;
},
{
segmentType = line;
smooth = 0;
x = 412;
y = 0;
},
{
segmentType = line;
smooth = 0;
x = 385;
y = 0;
},
{
segmentType = line;
smooth = 0;
x = 169;
y = 703;
},
{
segmentType = line;
smooth = 0;
x = 92;
y = 0;
}
);
}
);
lib = {
};
name = M;
unicodes = (
);
width = 797;
};
};
};
},
{
glyphname = N;
lastChange = "2016-12-19 14:59:05 +0000";
layers = (
{
anchors = (
{
name = bottom;
position = "{337, -150}";
},
{
name = top;
position = "{337, 810}";
}
);
layerId = "1A646CEF-9FB5-4F4A-951A-F8B2030A9B85";
name = Light;
paths = (
{
closed = 1;
nodes = (
"108 0 LINE",
"132 0 LINE",
"132 688 LINE",
"575 0 LINE",
"597 0 LINE",
"597 732 LINE",
"573 732 LINE",
"573 44 LINE",
"130 732 LINE",
"108 732 LINE"
);
}
);
width = 665;
}
);
unicode = 004E;
userData = {
com.fontlab.hintData = {
hhints = (
{
position = 0;
width = 21;
},
{
position = 712;
width = 20;
}
);
vhints = (
{
position = 108;
width = 24;
},
{
position = 573;
width = 24;
}
);
};
com.typemytype.robofont.layerData = {
background = {
anchors = (
);
components = (
);
contours = (
{
points = (
{
segmentType = line;
smooth = 0;
x = 108;
y = 0;
},
{
segmentType = line;
smooth = 0;
x = 108;
y = 732;
},
{
segmentType = line;
smooth = 0;
x = 133;
y = 732;
},
{
segmentType = line;
smooth = 0;
x = 573;
y = 46;
},
{
segmentType = line;
smooth = 0;
x = 573;
y = 732;
},
{
segmentType = line;
smooth = 0;
x = 597;
y = 732;
},
{
segmentType = line;
smooth = 0;
x = 597;
y = 0;
},
{
segmentType = line;
smooth = 0;
x = 573;
y = 0;
},
{
segmentType = line;
smooth = 0;
x = 132;
y = 686;
},
{
segmentType = line;
smooth = 0;
x = 132;
y = 0;
}
);
}
);
lib = {
};
name = N;
unicodes = (
);
width = 665;
};
};
};
},
{
glyphname = O;
lastChange = "2016-12-19 14:59:05 +0000";
layers = (
{
anchors = (
{
name = bottom;
position = "{338, -150}";
},
{
name = ogonek;
position = "{398, 0}";
},
{
name = top;
position = "{338, 810}";
}
);
layerId = "1A646CEF-9FB5-4F4A-951A-F8B2030A9B85";
name = Light;
paths = (
{
closed = 1;
nodes = (
"94 361 CURVE SMOOTH",
"94 678 OFFCURVE",
"180 716 OFFCURVE",
"338 716 CURVE SMOOTH",
"508 716 OFFCURVE",
"582 678 OFFCURVE",
"582 361 CURVE SMOOTH",
"582 59 OFFCURVE",
"509 16 OFFCURVE",
"338 16 CURVE SMOOTH",
"159 16 OFFCURVE",
"94 59 OFFCURVE"
);
},
{
closed = 1;
nodes = (
"70 361 CURVE SMOOTH",
"70 37 OFFCURVE",
"158 -6 OFFCURVE",
"338 -6 CURVE SMOOTH",
"518 -6 OFFCURVE",
"606 37 OFFCURVE",
"606 361 CURVE SMOOTH",
"606 685 OFFCURVE",
"521 738 OFFCURVE",
"338 738 CURVE SMOOTH",
"163 738 OFFCURVE",
"70 685 OFFCURVE"
);
}
);
width = 676;
}
);
unicode = 004F;
userData = {
com.fontlab.hintData = {
hhints = (
{
position = "-4";
width = 24;
},
{
position = 713;
width = 24;
}
);
vhints = (
{
position = 88;
width = 24;
},
{
position = 600;
width = 24;
}
);
};
com.typemytype.robofont.layerData = {
background = {
anchors = (
);
components = (
);
contours = (
{
points = (
{
segmentType = curve;
smooth = 1;
x = 94;
y = 361;
},
{
smooth = 0;
x = 94;
y = 63;
},
{
smooth = 0;
x = 159;
y = 20;
},
{
segmentType = curve;
smooth = 1;
x = 338;
y = 20;
},
{
smooth = 0;
x = 509;
y = 20;
},
{
smooth = 0;
x = 582;
y = 65;
},
{
segmentType = curve;
smooth = 1;
x = 582;
y = 361;
},
{
smooth = 0;
x = 582;
y = 685;
},
{
smooth = 0;
x = 498;
y = 713;
},
{
segmentType = curve;
smooth = 1;
x = 338;
y = 713;
},
{
smooth = 0;
x = 190;
y = 713;
},
{
smooth = 0;
x = 94;
y = 698;
}
);
},
{
points = (
{
segmentType = curve;
smooth = 1;
x = 70;
y = 361;
},
{
smooth = 0;
x = 70;
y = 704;
},
{
smooth = 0;
x = 166;
y = 737;
},
{
segmentType = curve;
smooth = 1;
x = 338;
y = 737;
},
{
smooth = 0;
x = 511;
y = 737;
},
{
smooth = 0;
x = 606;
y = 704;
},
{
segmentType = curve;
smooth = 1;
x = 606;
y = 361;
},
{
smooth = 0;
x = 606;
y = 38;
},
{
smooth = 0;
x = 518;
y = "-4";
},
{
segmentType = curve;
smooth = 1;
x = 338;
y = "-4";
},
{
smooth = 0;
x = 158;
y = "-4";
},
{
smooth = 0;
x = 70;
y = 28;
}
);
}
);
lib = {
};
name = O;
unicodes = (
);
width = 676;
};
};
};
},
{
glyphname = P;
lastChange = "2016-12-19 14:59:05 +0000";
layers = (
{
anchors = (
{
name = top;
position = "{278, 810}";
}
);
layerId = "1A646CEF-9FB5-4F4A-951A-F8B2030A9B85";
name = Light;
paths = (
{
closed = 1;
nodes = (
"112 307 LINE",
"112 710 LINE",
"364 710 LINE SMOOTH",
"440 710 OFFCURVE",
"515 676 OFFCURVE",
"515 512 CURVE SMOOTH",
"515 347 OFFCURVE",
"438 307 OFFCURVE",
"354 307 CURVE SMOOTH"
);
},
{
closed = 1;
nodes = (
"88 0 LINE",
"112 0 LINE",
"112 291 LINE",
"157 289 OFFCURVE",
"316 285 OFFCURVE",
"354 285 CURVE SMOOTH",
"432 285 OFFCURVE",
"540 323 OFFCURVE",
"540 512 CURVE SMOOTH",
"540 698 OFFCURVE",
"443 732 OFFCURVE",
"364 732 CURVE SMOOTH",
"88 732 LINE"
);
}
);
width = 590;
}
);
unicode = 0050;
userData = {
com.fontlab.hintData = {
hhints = (
{
position = 0;
width = 21;
},
{
position = 323;
width = 24;
},
{
position = 333;
width = 14;
},
{
position = 707;
width = 25;
}
);
vhints = (
{
position = 81;
width = 24;
},
{
position = 508;
width = 25;
}
);
};
com.typemytype.robofont.layerData = {
background = {
anchors = (
);
components = (
);
contours = (
{
points = (
{
segmentType = line;
smooth = 0;
x = 112;
y = 347;
},
{
segmentType = line;
smooth = 1;
x = 364;
y = 347;
},
{
smooth = 0;
x = 443;
y = 347;
},
{
smooth = 0;
x = 517;
y = 373;
},
{
segmentType = curve;
smooth = 0;
x = 515;
y = 532;
},
{
smooth = 0;
x = 515;
y = 686;
},
{
smooth = 0;
x = 440;
y = 707;
},
{
segmentType = curve;
smooth = 1;
x = 364;
y = 707;
},
{
segmentType = line;
smooth = 0;
x = 112;
y = 707;
}
);
},
{
points = (
{
segmentType = line;
smooth = 0;
x = 88;
y = 0;
},
{
segmentType = line;
smooth = 0;
x = 88;
y = 732;
},
{
segmentType = line;
smooth = 1;
x = 364;
y = 732;
},
{
smooth = 0;
x = 443;
y = 732;
},
{
smooth = 0;
x = 540;
y = 711;
},
{
segmentType = curve;
smooth = 1;
x = 540;
y = 532;
},
{
smooth = 0;
x = 540;
y = 328;
},
{
smooth = 0;
x = 438;
y = 323;
},
{
segmentType = curve;
smooth = 1;
x = 364;
y = 323;
},
{
smooth = 0;
x = 324;
y = 323;
},
{
smooth = 0;
x = 117;
y = 330;
},
{
segmentType = curve;
smooth = 0;
x = 112;
y = 333;
},
{
segmentType = line;
smooth = 0;
x = 112;
y = 0;
}
);
}
);
lib = {
};
name = P;
unicodes = (
);
width = 590;
};
};
};
},
{
glyphname = Q;
lastChange = "2016-12-19 14:59:05 +0000";
layers = (
{
components = (
{
name = O;
transform = "{1, 0, 0, 1, 0, 0}";
}
);
layerId = "1A646CEF-9FB5-4F4A-951A-F8B2030A9B85";
name = Light;
paths = (
{
closed = 1;
nodes = (
"368 -33 LINE",
"384 -108 OFFCURVE",
"444 -148 OFFCURVE",
"500 -148 CURVE SMOOTH",
"517 -148 OFFCURVE",
"533 -146 OFFCURVE",
"548 -140 CURVE",
"548 -116 LINE",
"535 -121 OFFCURVE",
"519 -123 OFFCURVE",
"503 -123 CURVE SMOOTH",
"457 -123 OFFCURVE",
"407 -95 OFFCURVE",
"384 -33 CURVE"
);
}
);
width = 676;
}
);
unicode = 0051;
userData = {
com.fontlab.hintData = {
hhints = (
{
position = "-4";
width = 24;
},
{
position = 713;
width = 24;
}
);
vhints = (
{
position = 88;
width = 24;
},
{
position = 600;
width = 24;
}
);
};
com.typemytype.robofont.layerData = {
background = {
anchors = (
);
components = (
);
contours = (
{
points = (
{
segmentType = curve;
smooth = 0;
x = 348;
y = "-33";
},
{
segmentType = line;
smooth = 0;
x = 362;
y = "-33";
},
{
smooth = 0;
x = 392;
y = "-115";
},
{
smooth = 0;
x = 479;
y = "-116";
},
{
segmentType = curve;
smooth = 0;
x = 538;
y = "-96";
},
{
segmentType = line;
smooth = 0;
x = 538;
y = "-120";
},
{
smooth = 0;
x = 466;
y = "-147";
},
{
smooth = 0;
x = 368;
y = "-127";
}
);
},
{
points = (
{
segmentType = curve;
smooth = 1;
x = 112;
y = 361;
},
{
smooth = 0;
x = 112;
y = 63;
},
{
smooth = 0;
x = 177;
y = 20;
},
{
segmentType = curve;
smooth = 1;
x = 356;
y = 20;
},
{
smooth = 0;
x = 527;
y = 20;
},
{
smooth = 0;
x = 600;
y = 65;
},
{
segmentType = curve;
smooth = 1;
x = 600;
y = 361;
},
{
smooth = 0;
x = 600;
y = 685;
},
{
smooth = 0;
x = 516;
y = 713;
},
{
segmentType = curve;
smooth = 1;
x = 356;
y = 713;
},
{
smooth = 0;
x = 208;
y = 713;
},
{
smooth = 0;
x = 112;
y = 698;
}
);
},
{
points = (
{
segmentType = curve;
smooth = 1;
x = 88;
y = 361;
},
{
smooth = 0;
x = 88;
y = 704;
},
{
smooth = 0;
x = 184;
y = 737;
},
{
segmentType = curve;
smooth = 1;
x = 356;
y = 737;
},
{
smooth = 0;
x = 529;
y = 737;
},
{
smooth = 0;
x = 624;
y = 704;
},
{
segmentType = curve;
smooth = 1;
x = 624;
y = 361;
},
{
smooth = 0;
x = 624;
y = 38;
},
{
smooth = 0;
x = 536;
y = "-4";
},
{
segmentType = curve;
smooth = 1;
x = 356;
y = "-4";
},
{
smooth = 0;
x = 176;
y = "-4";
},
{
smooth = 0;
x = 88;
y = 28;
}
);
}
);
lib = {
};
name = Q;
unicodes = (
);
width = 676;
};
};
};
},
{
glyphname = R;
lastChange = "2016-12-19 14:59:05 +0000";
layers = (
{
anchors = (
{
name = bottom;
position = "{288, -150}";
},
{
name = top;
position = "{288, 810}";
}
);
layerId = "1A646CEF-9FB5-4F4A-951A-F8B2030A9B85";
name = Light;
paths = (
{
closed = 1;
nodes = (
"112 345 LINE",
"112 710 LINE",
"364 710 LINE SMOOTH",
"440 710 OFFCURVE",
"516 686 OFFCURVE",
"516 532 CURVE SMOOTH",
"516 370 OFFCURVE",
"443 345 OFFCURVE",
"364 345 CURVE SMOOTH"
);
},
{
closed = 1;
nodes = (
"88 0 LINE",
"112 0 LINE",
"112 329 LINE",
"177 326 OFFCURVE",
"303 324 OFFCURVE",
"356 323 CURVE",
"518 0 LINE",
"542 0 LINE",
"381 323 LINE",
"444 326 OFFCURVE",
"540 354 OFFCURVE",
"540 532 CURVE SMOOTH",
"540 711 OFFCURVE",
"443 732 OFFCURVE",
"364 732 CURVE SMOOTH",
"88 732 LINE"
);
}
);
width = 592;
}
);
unicode = 0052;
userData = {
com.fontlab.hintData = {
hhints = (
{
position = 0;
width = 21;
},
{
position = 323;
width = 24;
},
{
position = 333;
width = 14;
},
{
position = 707;
width = 25;
}
);
vhints = (
{
position = 81;
width = 24;
},
{
position = 508;
width = 25;
}
);
};
com.typemytype.robofont.layerData = {
background = {
anchors = (
);
components = (
);
contours = (
{
points = (
{
segmentType = line;
smooth = 0;
x = 112;
y = 347;
},
{
segmentType = line;
smooth = 1;
x = 364;
y = 347;
},
{
smooth = 0;
x = 443;
y = 347;
},
{
smooth = 0;
x = 515;
y = 370;
},
{
segmentType = curve;
smooth = 1;
x = 515;
y = 532;
},
{
smooth = 0;
x = 515;
y = 686;
},
{
smooth = 0;
x = 440;
y = 707;
},
{
segmentType = curve;
smooth = 1;
x = 364;
y = 707;
},
{
segmentType = line;
smooth = 0;
x = 112;
y = 707;
}
);
},
{
points = (
{
segmentType = line;
smooth = 0;
x = 88;
y = 0;
},
{
segmentType = line;
smooth = 0;
x = 88;
y = 732;
},
{
segmentType = line;
smooth = 1;
x = 364;
y = 732;
},
{
smooth = 0;
x = 443;
y = 732;
},
{
smooth = 0;
x = 540;
y = 711;
},
{
segmentType = curve;
smooth = 1;
x = 540;
y = 532;
},
{
smooth = 0;
x = 540;
y = 344;
},
{
smooth = 0;
x = 453;
y = 325;
},
{
segmentType = curve;
smooth = 0;
x = 381;
y = 323;
},
{
segmentType = line;
smooth = 0;
x = 542;
y = 0;
},
{
segmentType = line;
smooth = 0;
x = 517;
y = 0;
},
{
segmentType = line;
smooth = 0;
x = 355;
y = 323;
},
{
smooth = 0;
x = 302;
y = 324;
},
{
smooth = 0;
x = 117;
y = 330;
},
{
segmentType = curve;
smooth = 0;
x = 112;
y = 333;
},
{
segmentType = line;
smooth = 0;
x = 112;
y = 0;
}
);
}
);
lib = {
};
name = R;
unicodes = (
);
width = 592;
};
};
};
},
{
glyphname = S;
lastChange = "2016-12-19 14:59:05 +0000";
layers = (
{
anchors = (
{
name = bottom;
position = "{278, -150}";
},
{
name = top;
position = "{278, 810}";
}
);
layerId = "1A646CEF-9FB5-4F4A-951A-F8B2030A9B85";
name = Light;
paths = (
{
closed = 1;
nodes = (
"72 514 LINE SMOOTH",
"72 396 OFFCURVE",
"140 357 OFFCURVE",
"245 357 CURVE SMOOTH",
"337 357 LINE SMOOTH",
"437 357 OFFCURVE",
"475 309 OFFCURVE",
"475 224 CURVE SMOOTH",
"475 156 LINE SMOOTH",
"475 39 OFFCURVE",
"386 16 OFFCURVE",
"285 16 CURVE SMOOTH",
"200 16 OFFCURVE",
"110 19 OFFCURVE",
"70 23 CURVE",
"70 7 LINE",
"112 0 OFFCURVE",
"240 -6 OFFCURVE",
"285 -6 CURVE SMOOTH",
"394 -6 OFFCURVE",
"499 28 OFFCURVE",
"499 156 CURVE SMOOTH",
"499 224 LINE SMOOTH",
"499 316 OFFCURVE",
"450 381 OFFCURVE",
"337 381 CURVE SMOOTH",
"243 381 LINE SMOOTH",
"152 381 OFFCURVE",
"96 410 OFFCURVE",
"96 514 CURVE SMOOTH",
"96 560 LINE SMOOTH",
"96 683 OFFCURVE",
"158 716 OFFCURVE",
"265 716 CURVE SMOOTH",
"332 716 OFFCURVE",
"409 710 OFFCURVE",
"467 706 CURVE",
"467 722 LINE",
"422 729 OFFCURVE",
"314 738 OFFCURVE",
"265 738 CURVE SMOOTH",
"143 738 OFFCURVE",
"72 695 OFFCURVE",
"72 560 CURVE SMOOTH"
);
}
);
width = 569;
}
);
unicode = 0053;
userData = {
com.fontlab.hintData = {
hhints = (
{
position = "-8";
width = 24;
},
{
position = 347;
width = 24;
},
{
position = 714;
width = 24;
}
);
vhints = (
{
position = 88;
width = 24;
},
{
position = 511;
width = 24;
}
);
};
com.typemytype.robofont.layerData = {
background = {
anchors = (
);
components = (
);
contours = (
{
points = (
{
segmentType = curve;
smooth = 1;
x = 52;
y = 494;
},
{
segmentType = line;
smooth = 1;
x = 52;
y = 560;
},
{
smooth = 0;
x = 52;
y = 705;
},
{
smooth = 0;
x = 133;
y = 738;
},
{
segmentType = curve;
smooth = 1;
x = 245;
y = 738;
},
{
smooth = 0;
x = 298;
y = 738;
},
{
smooth = 0;
x = 418;
y = 727;
},
{
segmentType = curve;
smooth = 0;
x = 467;
y = 719;
},
{
segmentType = line;
smooth = 0;
x = 467;
y = 706;
},
{
smooth = 0;
x = 403;
y = 710;
},
{
smooth = 0;
x = 245;
y = 714;
},
{
segmentType = curve;
smooth = 1;
x = 245;
y = 714;
},
{
smooth = 0;
x = 139.992;
y = 717.784;
},
{
smooth = 0;
x = 76;
y = 681;
},
{
segmentType = curve;
smooth = 1;
x = 76;
y = 560;
},
{
segmentType = line;
smooth = 1;
x = 76;
y = 494;
},
{
smooth = 0;
x = 76;
y = 390;
},
{
smooth = 0;
x = 131;
y = 371;
},
{
segmentType = curve;
smooth = 1;
x = 223;
y = 371;
},
{
segmentType = line;
smooth = 1;
x = 337;
y = 371;
},
{
smooth = 0;
x = 470;
y = 371;
},
{
smooth = 0;
x = 499;
y = 306;
},
{
segmentType = curve;
smooth = 1;
x = 499;
y = 224;
},
{
segmentType = line;
smooth = 1;
x = 499;
y = 156;
},
{
smooth = 0;
x = 499;
y = 14;
},
{
smooth = 0;
x = 404;
y = "-8";
},
{
segmentType = curve;
smooth = 1;
x = 305;
y = "-8";
},
{
smooth = 0;
x = 256;
y = "-8";
},
{
smooth = 0;
x = 116;
y = "-1";
},
{
segmentType = curve;
smooth = 0;
x = 70;
y = 7;
},
{
segmentType = line;
smooth = 0;
x = 70;
y = 22;
},
{
smooth = 0;
x = 114;
y = 18;
},
{
smooth = 0;
x = 212;
y = 16;
},
{
segmentType = curve;
smooth = 1;
x = 305;
y = 16;
},
{
smooth = 0;
x = 395;
y = 16;
},
{
smooth = 0;
x = 475;
y = 39;
},
{
segmentType = curve;
smooth = 1;
x = 475;
y = 156;
},
{
segmentType = line;
smooth = 1;
x = 475;
y = 224;
},
{
smooth = 0;
x = 475;
y = 309;
},
{
smooth = 0;
x = 437;
y = 347;
},
{
segmentType = curve;
smooth = 1;
x = 337;
y = 347;
},
{
segmentType = line;
smooth = 1;
x = 225;
y = 347;
},
{
smooth = 0;
x = 70;
y = 347;
},
{
smooth = 0;
x = 52;
y = 416;
}
);
}
);
lib = {
};
name = S;
unicodes = (
);
width = 569;
};
};
};
},
{
glyphname = T;
lastChange = "2016-12-19 14:59:05 +0000";
layers = (
{
anchors = (
{
name = bottom;
position = "{275, -150}";
},
{
name = top;
position = "{275, 810}";
}
);
layerId = "1A646CEF-9FB5-4F4A-951A-F8B2030A9B85";
name = Light;
paths = (
{
closed = 1;
nodes = (
"16 710 LINE",
"263 710 LINE",
"263 0 LINE",
"287 0 LINE",
"287 710 LINE",
"534 710 LINE",
"534 732 LINE",
"16 732 LINE"
);
}
);
width = 550;
}
);
unicode = 0054;
userData = {
com.fontlab.hintData = {
hhints = (
{
position = 0;
width = 21;
},
{
position = 708;
width = 24;
}
);
vhints = (
{
position = 291;
width = 24;
}
);
};
com.typemytype.robofont.layerData = {
background = {
anchors = (
);
components = (
);
contours = (
{
points = (
{
segmentType = line;
smooth = 0;
x = 16;
y = 708;
},
{
segmentType = line;
smooth = 0;
x = 16;
y = 732;
},
{
segmentType = line;
smooth = 0;
x = 534;
y = 732;
},
{
segmentType = line;
smooth = 0;
x = 534;
y = 708;
},
{
segmentType = line;
smooth = 0;
x = 284;
y = 708;
},
{
segmentType = line;
smooth = 0;
x = 284;
y = 0;
},
{
segmentType = line;
smooth = 0;
x = 260;
y = 0;
},
{
segmentType = line;
smooth = 0;
x = 260;
y = 708;
}
);
}
);
lib = {
};
name = T;
unicodes = (
);
width = 550;
};
};
};
},
{
glyphname = U;
lastChange = "2016-12-19 14:59:05 +0000";
layers = (
{
anchors = (
{
name = bottom;
position = "{334, -150}";
},
{
name = ogonek;
position = "{407, 0}";
},
{
name = top;
position = "{334, 810}";
}
);
layerId = "1A646CEF-9FB5-4F4A-951A-F8B2030A9B85";
name = Light;
paths = (
{
closed = 1;
nodes = (
"78 220 LINE SMOOTH",
"78 49 OFFCURVE",
"168 -6 OFFCURVE",
"334 -6 CURVE SMOOTH",
"500 -6 OFFCURVE",
"590 49 OFFCURVE",
"590 220 CURVE SMOOTH",
"590 732 LINE",
"566 732 LINE",
"566 220 LINE SMOOTH",
"566 58 OFFCURVE",
"480 16 OFFCURVE",
"334 16 CURVE SMOOTH",
"188 16 OFFCURVE",
"102 58 OFFCURVE",
"102 220 CURVE SMOOTH",
"102 732 LINE",
"78 732 LINE"
);
}
);
width = 668;
}
);
unicode = 0055;
userData = {
com.fontlab.hintData = {
hhints = (
{
position = "-5";
width = 24;
},
{
position = 712;
width = 20;
}
);
vhints = (
{
position = 108;
width = 24;
},
{
position = 591;
width = 24;
}
);
};
com.typemytype.robofont.layerData = {
background = {
anchors = (
);
components = (
{
baseGlyph = O;
transformation = (
1,
0,
0,
1,
8,
0
);
}
);
contours = (
{
points = (
{
segmentType = curve;
smooth = 1;
x = 78;
y = 320;
},
{
segmentType = line;
smooth = 0;
x = 78;
y = 732;
},
{
segmentType = line;
smooth = 0;
x = 102;
y = 732;
},
{
segmentType = line;
smooth = 1;
x = 102;
y = 320;
},
{
smooth = 0;
x = 102;
y = 21;
},
{
smooth = 0;
x = 198;
y = 19;
},
{
segmentType = curve;
smooth = 1;
x = 334;
y = 19;
},
{
smooth = 0;
x = 459;
y = 19;
},
{
smooth = 0;
x = 561;
y = 35;
},
{
segmentType = curve;
smooth = 1;
x = 561;
y = 320;
},
{
segmentType = line;
smooth = 0;
x = 561;
y = 732;
},
{
segmentType = line;
smooth = 0;
x = 585;
y = 732;
},
{
segmentType = line;
smooth = 1;
x = 585;
y = 320;
},
{
smooth = 0;
x = 585;
y = "-3";
},
{
smooth = 0;
x = 455;
y = "-5";
},
{
segmentType = curve;
smooth = 1;
x = 334;
y = "-5";
},
{
smooth = 0;
x = 198;
y = "-5";
},
{
smooth = 0;
x = 78;
y = "-9";
}
);
}
);
lib = {
};
name = U;
unicodes = (
);
width = 668;
};
};
};
},
{
glyphname = V;
lastChange = "2016-12-19 14:59:05 +0000";
layers = (
{
layerId = "1A646CEF-9FB5-4F4A-951A-F8B2030A9B85";
name = Light;
paths = (
{
closed = 1;
nodes = (
"48 732 LINE",
"316 0 LINE",
"350 0 LINE",
"618 732 LINE",
"593 732 LINE",
"333 21 LINE",
"73 732 LINE"
);
}
);
width = 666;
}
);
unicode = 0056;
userData = {
com.fontlab.hintData = {
hhints = (
{
position = 0;
width = 21;
},
{
position = 712;
width = 20;
}
);
};
com.typemytype.robofont.layerData = {
background = {
anchors = (
);
components = (
{
baseGlyph = A;
transformation = (
"-1",
0,
0,
"-1",
666,
732
);
}
);
contours = (
{
points = (
{
segmentType = line;
smooth = 0;
x = 48;
y = 732;
},
{
segmentType = line;
smooth = 0;
x = 74;
y = 732;
},
{
segmentType = line;
smooth = 0;
x = 327;
y = 24;
},
{
segmentType = line;
smooth = 0;
x = 592;
y = 732;
},
{
segmentType = line;
smooth = 0;
x = 618;
y = 732;
},
{
segmentType = line;
smooth = 0;
x = 344;
y = 0;
},
{
segmentType = line;
smooth = 0;
x = 310;
y = 0;
}
);
}
);
lib = {
};
name = V;
unicodes = (
);
width = 666;
};
};
};
},
{
glyphname = W;
lastChange = "2016-12-19 14:59:05 +0000";
layers = (
{
anchors = (
{
name = bottom;
position = "{492, -150}";
},
{
name = top;
position = "{492, 810}";
}
);
layerId = "1A646CEF-9FB5-4F4A-951A-F8B2030A9B85";
name = Light;
paths = (
{
closed = 1;
nodes = (
"48 732 LINE",
"246 0 LINE",
"280 0 LINE",
"496 708 LINE",
"711 0 LINE",
"745 0 LINE",
"943 732 LINE",
"919 732 LINE",
"728 21 LINE",
"513 732 LINE",
"479 732 LINE",
"263 21 LINE",
"73 732 LINE"
);
}
);
width = 991;
}
);
unicode = 0057;
userData = {
com.fontlab.hintData = {
hhints = (
{
position = 0;
width = 21;
},
{
position = 712;
width = 20;
}
);
};
com.typemytype.robofont.layerData = {
background = {
anchors = (
);
components = (
{
baseGlyph = V;
transformation = (
1,
0,
0,
1,
0,
0
);
},
{
baseGlyph = V;
transformation = (
1,
0,
0,
1,
325,
0
);
}
);
contours = (
{
points = (
{
segmentType = line;
smooth = 0;
x = 61;
y = 732;
},
{
segmentType = line;
smooth = 0;
x = 87;
y = 732;
},
{
segmentType = line;
smooth = 0;
x = 340;
y = 24;
},
{
segmentType = line;
smooth = 0;
x = 585;
y = 732;
},
{
segmentType = line;
smooth = 0;
x = 611;
y = 732;
},
{
segmentType = line;
smooth = 0;
x = 508;
y = 431;
},
{
segmentType = line;
smooth = 0;
x = 671;
y = 24;
},
{
segmentType = line;
smooth = 0;
x = 919;
y = 732;
},
{
segmentType = line;
smooth = 0;
x = 943;
y = 732;
},
{
segmentType = line;
smooth = 0;
x = 689;
y = 0;
},
{
segmentType = line;
smooth = 0;
x = 655;
y = 0;
},
{
segmentType = line;
smooth = 0;
x = 495;
y = 396;
},
{
segmentType = line;
smooth = 0;
x = 357;
y = 0;
},
{
segmentType = line;
smooth = 0;
x = 323;
y = 0;
}
);
}
);
lib = {
};
name = W;
unicodes = (
);
width = 991;
};
};
};
},
{
glyphname = X;
lastChange = "2016-12-19 14:59:05 +0000";
layers = (
{
anchors = (
{
name = bottom;
position = "{295, -150}";
},
{
name = top;
position = "{295, 810}";
}
);
layerId = "1A646CEF-9FB5-4F4A-951A-F8B2030A9B85";
name = Light;
paths = (
{
closed = 1;
nodes = (
"298 348 LINE",
"286 370 LINE",
"53 0 LINE",
"79 0 LINE"
);
},
{
closed = 1;
nodes = (
"298 381 LINE",
"306 352 LINE",
"541 732 LINE",
"515 732 LINE"
);
},
{
closed = 1;
nodes = (
"50 732 LINE",
"515 0 LINE",
"541 0 LINE",
"76 732 LINE"
);
}
);
width = 591;
}
);
unicode = 0058;
userData = {
com.fontlab.hintData = {
hhints = (
{
position = 0;
width = 21;
},
{
position = 712;
width = 20;
}
);
};
com.typemytype.robofont.layerData = {
background = {
anchors = (
);
components = (
);
contours = (
{
points = (
{
segmentType = line;
smooth = 0;
x = 50;
y = 732;
},
{
segmentType = line;
smooth = 0;
x = 81;
y = 732;
},
{
segmentType = line;
smooth = 0;
x = 287;
y = 388;
},
{
segmentType = line;
smooth = 0;
x = 495;
y = 732;
},
{
segmentType = line;
smooth = 0;
x = 526;
y = 732;
},
{
segmentType = line;
smooth = 0;
x = 303;
y = 363;
},
{
segmentType = line;
smooth = 0;
x = 521;
y = 0;
},
{
segmentType = line;
smooth = 0;
x = 490;
y = 0;
},
{
segmentType = line;
smooth = 0;
x = 287;
y = 337;
},
{
segmentType = line;
smooth = 0;
x = 84;
y = 0;
},
{
segmentType = line;
smooth = 0;
x = 53;
y = 0;
},
{
segmentType = line;
smooth = 0;
x = 272;
y = 363;
}
);
}
);
lib = {
};
name = X;
unicodes = (
);
width = 591;
};
};
};
},
{
glyphname = Y;
lastChange = "2016-12-19 14:59:05 +0000";
layers = (
{
anchors = (
{
name = bottom;
position = "{305, -150}";
},
{
name = top;
position = "{305, 810}";
}
);
layerId = "1A646CEF-9FB5-4F4A-951A-F8B2030A9B85";
name = Light;
paths = (
{
closed = 1;
nodes = (
"50 732 LINE",
"293 260 LINE",
"293 0 LINE",
"317 0 LINE",
"317 260 LINE",
"560 732 LINE",
"534 732 LINE",
"305 283 LINE",
"76 732 LINE"
);
}
);
width = 610;
}
);
unicode = 0059;
userData = {
com.fontlab.hintData = {
hhints = (
{
position = 0;
width = 21;
},
{
position = 712;
width = 20;
}
);
vhints = (
{
position = 304;
width = 24;
}
);
};
com.typemytype.robofont.layerData = {
background = {
anchors = (
);
components = (
);
contours = (
{
points = (
{
segmentType = line;
smooth = 0;
x = 50;
y = 732;
},
{
segmentType = line;
smooth = 0;
x = 77;
y = 732;
},
{
segmentType = line;
smooth = 0;
x = 305;
y = 291;
},
{
segmentType = line;
smooth = 0;
x = 553;
y = 732;
},
{
segmentType = line;
smooth = 0;
x = 580;
y = 732;
},
{
segmentType = line;
smooth = 0;
x = 317;
y = 260;
},
{
segmentType = line;
smooth = 0;
x = 317;
y = 0;
},
{
segmentType = line;
smooth = 0;
x = 293;
y = 0;
},
{
segmentType = line;
smooth = 0;
x = 293;
y = 260;
}
);
}
);
lib = {
};
name = Y;
unicodes = (
);
width = 610;
};
};
};
},
{
glyphname = Z;
lastChange = "2016-12-19 14:59:05 +0000";
layers = (
{
anchors = (
{
name = top;
position = "{275, -150}";
}
);
layerId = "1A646CEF-9FB5-4F4A-951A-F8B2030A9B85";
name = Light;
paths = (
{
closed = 1;
nodes = (
"47 0 LINE",
"510 0 LINE",
"510 22 LINE",
"76 22 LINE",
"510 710 LINE",
"510 732 LINE",
"47 732 LINE",
"47 710 LINE",
"481 710 LINE",
"47 22 LINE"
);
}
);
width = 549;
}
);
unicode = 005A;
userData = {
com.fontlab.hintData = {
hhints = (
{
position = 0;
width = 24;
},
{
position = 708;
width = 24;
}
);
};
com.typemytype.robofont.layerData = {
background = {
anchors = (
);
components = (
);
contours = (
{
points = (
{
segmentType = line;
smooth = 0;
x = 47;
y = 0;
},
{
segmentType = line;
smooth = 0;
x = 47;
y = 24;
},
{
segmentType = line;
smooth = 0;
x = 480;
y = 708;
},
{
segmentType = line;
smooth = 0;
x = 47;
y = 708;
},
{
segmentType = line;
smooth = 0;
x = 47;
y = 732;
},
{
segmentType = line;
smooth = 0;
x = 510;
y = 732;
},
{
segmentType = line;
smooth = 0;
x = 510;
y = 708;
},
{
segmentType = line;
smooth = 0;
x = 77;
y = 24;
},
{
segmentType = line;
smooth = 0;
x = 510;
y = 24;
},
{
segmentType = line;
smooth = 0;
x = 510;
y = 0;
}
);
}
);
lib = {
};
name = Z;
unicodes = (
);
width = 549;
};
};
};
},
{
glyphname = a;
lastChange = "2016-12-19 14:59:05 +0000";
layers = (
{
anchors = (
{
name = bottom;
position = "{270, -150}";
},
{
name = ogonek;
position = "{443, 0}";
},
{
name = top;
position = "{270, 650}";
}
);
layerId = "1A646CEF-9FB5-4F4A-951A-F8B2030A9B85";
name = Light;
paths = (
{
closed = 1;
nodes = (
"78 131 CURVE SMOOTH",
"78 157 LINE SMOOTH",
"78 222 OFFCURVE",
"112 272 OFFCURVE",
"207 275 CURVE SMOOTH",
"429 282 LINE",
"429 80 LINE",
"429 80 OFFCURVE",
"267 16 OFFCURVE",
"187 18 CURVE SMOOTH",
"138 19 OFFCURVE",
"78 46 OFFCURVE"
);
},
{
closed = 1;
nodes = (
"54 126 LINE SMOOTH",
"54 41 OFFCURVE",
"111 -6 OFFCURVE",
"187 -6 CURVE SMOOTH",
"285 -6 OFFCURVE",
"427 64 OFFCURVE",
"429 64 CURVE",
"437 0 LINE",
"453 0 LINE",
"453 387 LINE SMOOTH",
"453 487 OFFCURVE",
"404 542 OFFCURVE",
"276 541 CURVE SMOOTH",
"203 540 OFFCURVE",
"146 537 OFFCURVE",
"104 535 CURVE",
"104 519 LINE",
"274 519 LINE SMOOTH",
"396 519 OFFCURVE",
"429 466 OFFCURVE",
"429 387 CURVE SMOOTH",
"429 298 LINE",
"213 298 LINE SMOOTH",
"109 298 OFFCURVE",
"54 242 OFFCURVE",
"54 157 CURVE SMOOTH"
);
}
);
width = 540;
}
);
unicode = 0061;
userData = {
com.fontlab.hintData = {
hhints = (
{
position = "-6";
width = 24;
},
{
position = 296;
width = 24;
},
{
position = 519;
width = 22;
}
);
vhints = (
{
position = 54;
width = 24;
},
{
position = 429;
width = 24;
},
{
position = 438;
width = 15;
}
);
};
com.typemytype.robofont.layerData = {
background = {
anchors = (
);
components = (
);
contours = (
{
points = (
{
segmentType = line;
smooth = 1;
x = 78;
y = 131;
},
{
smooth = 0;
x = 78;
y = 46;
},
{
smooth = 0;
x = 138;
y = 19;
},
{
segmentType = curve;
smooth = 1;
x = 187;
y = 18;
},
{
smooth = 0;
x = 267;
y = 16;
},
{
smooth = 0;
x = 429;
y = 78;
},
{
segmentType = curve;
smooth = 0;
x = 429;
y = 78;
},
{
segmentType = line;
smooth = 0;
x = 429;
y = 306;
},
{
segmentType = line;
smooth = 1;
x = 187;
y = 296;
},
{
smooth = 0;
x = 106;
y = 293;
},
{
smooth = 0;
x = 78;
y = 248;
},
{
segmentType = curve;
smooth = 1;
x = 78;
y = 187;
}
);
},
{
points = (
{
segmentType = curve;
smooth = 1;
x = 54;
y = 126;
},
{
segmentType = line;
smooth = 1;
x = 54;
y = 187;
},
{
smooth = 0;
x = 54;
y = 272;
},
{
smooth = 0;
x = 105;
y = 320;
},
{
segmentType = curve;
smooth = 1;
x = 187;
y = 320;
},
{
smooth = 0;
x = 187;
y = 320;
},
{
smooth = 0;
x = 429;
y = 319;
},
{
segmentType = curve;
smooth = 1;
x = 429;
y = 320;
},
{
smooth = 0;
x = 429;
y = 320;
},
{
smooth = 0;
x = 430;
y = 386;
},
{
segmentType = curve;
smooth = 0;
x = 429;
y = 387;
},
{
smooth = 0;
x = 429;
y = 456;
},
{
smooth = 0;
x = 400;
y = 518;
},
{
segmentType = curve;
smooth = 1;
x = 299;
y = 519;
},
{
smooth = 0;
x = 227;
y = 520;
},
{
smooth = 0;
x = 162;
y = 510;
},
{
segmentType = curve;
smooth = 0;
x = 71;
y = 496;
},
{
segmentType = line;
smooth = 0;
x = 71;
y = 510;
},
{
smooth = 0;
x = 128;
y = 524;
},
{
smooth = 0;
x = 200;
y = 540;
},
{
segmentType = curve;
smooth = 1;
x = 300;
y = 541;
},
{
smooth = 0;
x = 383;
y = 542;
},
{
smooth = 0;
x = 453;
y = 497;
},
{
segmentType = curve;
smooth = 1;
x = 453;
y = 387;
},
{
segmentType = line;
smooth = 0;
x = 453;
y = 0;
},
{
segmentType = line;
smooth = 0;
x = 438;
y = 0;
},
{
segmentType = line;
smooth = 0;
x = 429;
y = 64;
},
{
smooth = 0;
x = 427;
y = 64;
},
{
smooth = 0;
x = 285;
y = "-6";
},
{
segmentType = curve;
smooth = 1;
x = 187;
y = "-6";
},
{
smooth = 0;
x = 114;
y = "-6";
},
{
smooth = 0;
x = 54;
y = 41;
}
);
}
);
lib = {
};
name = a;
unicodes = (
);
width = 540;
};
};
};
},
{
glyphname = b;
lastChange = "2016-12-19 14:59:05 +0000";
layers = (
{
layerId = "1A646CEF-9FB5-4F4A-951A-F8B2030A9B85";
name = Light;
paths = (
{
closed = 1;
nodes = (
"115 73 CURVE",
"115 458 LINE",
"183 493 OFFCURVE",
"233 515 OFFCURVE",
"310 515 CURVE SMOOTH",
"411 515 OFFCURVE",
"478 468 OFFCURVE",
"478 263 CURVE SMOOTH",
"478 109 OFFCURVE",
"425 16 OFFCURVE",
"310 16 CURVE SMOOTH",
"231 16 OFFCURVE",
"168 46 OFFCURVE"
);
},
{
closed = 1;
nodes = (
"91 0 LINE",
"107 0 LINE",
"115 57 LINE",
"156 31 OFFCURVE",
"232 -6 OFFCURVE",
"310 -6 CURVE SMOOTH",
"451 -6 OFFCURVE",
"502 108 OFFCURVE",
"502 263 CURVE SMOOTH",
"502 469 OFFCURVE",
"431 537 OFFCURVE",
"310 537 CURVE SMOOTH",
"253 537 OFFCURVE",
"174 509 OFFCURVE",
"115 474 CURVE",
"115 783 LINE",
"91 783 LINE"
);
}
);
width = 572;
}
);
unicode = 0062;
userData = {
com.fontlab.hintData = {
hhints = (
{
position = "-6";
width = 24;
},
{
position = 515;
width = 24;
},
{
position = 765;
width = 20;
}
);
vhints = (
{
position = 81;
width = 23;
},
{
position = 81;
width = 13;
},
{
position = 461;
width = 24;
}
);
};
com.typemytype.robofont.layerData = {
background = {
anchors = (
);
components = (
{
baseGlyph = q;
transformation = (
"-1",
0,
0,
"-1",
572,
531
);
}
);
contours = (
{
points = (
{
segmentType = line;
smooth = 0;
x = 114;
y = 73;
},
{
smooth = 0;
x = 167;
y = 46;
},
{
smooth = 0;
x = 231;
y = 18;
},
{
segmentType = curve;
smooth = 1;
x = 310;
y = 18;
},
{
smooth = 0;
x = 395;
y = 18;
},
{
smooth = 0;
x = 471;
y = 89;
},
{
segmentType = curve;
smooth = 1;
x = 471;
y = 263;
},
{
smooth = 0;
x = 471;
y = 468;
},
{
smooth = 0;
x = 394;
y = 515;
},
{
segmentType = curve;
smooth = 1;
x = 310;
y = 515;
},
{
smooth = 0;
x = 233;
y = 515;
},
{
smooth = 0;
x = 183;
y = 503;
},
{
segmentType = curve;
smooth = 0;
x = 114;
y = 485;
}
);
},
{
points = (
{
segmentType = line;
smooth = 0;
x = 91;
y = 0;
},
{
segmentType = line;
smooth = 0;
x = 91;
y = 785;
},
{
segmentType = line;
smooth = 0;
x = 113;
y = 785;
},
{
segmentType = line;
smooth = 0;
x = 113;
y = 499;
},
{
smooth = 0;
x = 177;
y = 525;
},
{
smooth = 0;
x = 265;
y = 539;
},
{
segmentType = curve;
smooth = 1;
x = 310;
y = 539;
},
{
smooth = 0;
x = 461;
y = 539;
},
{
smooth = 0;
x = 495;
y = 399;
},
{
segmentType = curve;
smooth = 1;
x = 495;
y = 263;
},
{
smooth = 0;
x = 495;
y = 141;
},
{
smooth = 0;
x = 455;
y = "-6";
},
{
segmentType = curve;
smooth = 1;
x = 310;
y = "-6";
},
{
smooth = 0;
x = 242;
y = "-6";
},
{
smooth = 0;
x = 140;
y = 35;
},
{
segmentType = curve;
smooth = 0;
x = 114;
y = 59;
},
{
segmentType = line;
smooth = 0;
x = 104;
y = 0;
}
);
}
);
lib = {
};
name = b;
unicodes = (
);
width = 572;
};
};
};
},
{
glyphname = c;
lastChange = "2016-12-19 14:59:05 +0000";
layers = (
{
anchors = (
{
name = bottom;
position = "{270, -150}";
},
{
name = top;
position = "{270, 650}";
}
);
layerId = "1A646CEF-9FB5-4F4A-951A-F8B2030A9B85";
name = Light;
paths = (
{
closed = 1;
nodes = (
"70 266 CURVE SMOOTH",
"70 42 OFFCURVE",
"159 -6 OFFCURVE",
"274 -6 CURVE SMOOTH",
"345 -6 OFFCURVE",
"405 -2 OFFCURVE",
"450 0 CURVE",
"450 16 LINE",
"274 16 LINE SMOOTH",
"173 16 OFFCURVE",
"94 63 OFFCURVE",
"94 262 CURVE SMOOTH",
"94 470 OFFCURVE",
"165 514 OFFCURVE",
"274 514 CURVE SMOOTH",
"442 514 LINE",
"442 530 LINE",
"391 534 OFFCURVE",
"318 536 OFFCURVE",
"274 536 CURVE SMOOTH",
"154 536 OFFCURVE",
"70 488 OFFCURVE"
);
}
);
width = 490;
}
);
unicode = 0063;
userData = {
com.fontlab.hintData = {
hhints = (
{
position = "-5";
width = 24;
},
{
position = 512;
width = 24;
}
);
vhints = (
{
position = 68;
width = 24;
}
);
};
com.typemytype.robofont.layerData = {
background = {
anchors = (
);
components = (
);
contours = (
{
points = (
{
segmentType = curve;
smooth = 1;
x = 68;
y = 266;
},
{
smooth = 0;
x = 68;
y = 498;
},
{
smooth = 0;
x = 140;
y = 536;
},
{
segmentType = curve;
smooth = 1;
x = 242;
y = 536;
},
{
smooth = 0;
x = 294;
y = 536;
},
{
smooth = 0;
x = 378;
y = 524;
},
{
segmentType = curve;
smooth = 0;
x = 440;
y = 510;
},
{
segmentType = line;
smooth = 0;
x = 440;
y = 496;
},
{
smooth = 0;
x = 440;
y = 496;
},
{
smooth = 0;
x = 331;
y = 512;
},
{
segmentType = curve;
smooth = 1;
x = 242;
y = 512;
},
{
smooth = 0;
x = 151;
y = 512;
},
{
smooth = 0;
x = 92;
y = 478;
},
{
segmentType = curve;
smooth = 1;
x = 92;
y = 262;
},
{
smooth = 0;
x = 92;
y = 56;
},
{
smooth = 0;
x = 156;
y = 19;
},
{
segmentType = curve;
smooth = 1;
x = 242;
y = 19;
},
{
smooth = 0;
x = 334;
y = 19;
},
{
smooth = 0;
x = 448;
y = 40;
},
{
segmentType = curve;
smooth = 0;
x = 448;
y = 40;
},
{
segmentType = line;
smooth = 0;
x = 448;
y = 24;
},
{
smooth = 0;
x = 367;
y = 1;
},
{
smooth = 0;
x = 325;
y = "-4";
},
{
segmentType = curve;
smooth = 0;
x = 242;
y = "-5";
},
{
smooth = 0;
x = 143;
y = "-5";
},
{
smooth = 0;
x = 68;
y = 33;
}
);
}
);
lib = {
};
name = c;
unicodes = (
);
width = 490;
};
};
};
},
{
glyphname = d;
lastChange = "2016-12-19 14:59:05 +0000";
layers = (
{
anchors = (
{
name = altcaron;
position = "{501, 650}";
},
{
name = bottom;
position = "{290, -150}";
},
{
name = top;
position = "{469, 900}";
}
);
layerId = "1A646CEF-9FB5-4F4A-951A-F8B2030A9B85";
name = Light;
paths = (
{
closed = 1;
nodes = (
"94 263 CURVE SMOOTH",
"94 451 OFFCURVE",
"145 515 OFFCURVE",
"272 515 CURVE SMOOTH",
"345 515 OFFCURVE",
"391 502 OFFCURVE",
"457 485 CURVE",
"457 73 LINE",
"404 46 OFFCURVE",
"341 16 OFFCURVE",
"262 16 CURVE SMOOTH",
"142 16 OFFCURVE",
"94 94 OFFCURVE"
);
},
{
closed = 1;
nodes = (
"70 263 CURVE SMOOTH",
"70 85 OFFCURVE",
"126 -6 OFFCURVE",
"262 -6 CURVE SMOOTH",
"329 -6 OFFCURVE",
"431 33 OFFCURVE",
"457 57 CURVE",
"465 0 LINE",
"481 0 LINE",
"481 783 LINE",
"457 783 LINE",
"457 501 LINE",
"409 518 OFFCURVE",
"340 537 OFFCURVE",
"272 537 CURVE SMOOTH",
"130 537 OFFCURVE",
"70 461 OFFCURVE"
);
}
);
width = 568;
}
);
unicode = 0064;
userData = {
com.fontlab.hintData = {
hhints = (
{
position = "-6";
width = 24;
},
{
position = 515;
width = 24;
},
{
position = 765;
width = 20;
}
);
vhints = (
{
position = 68;
width = 24;
},
{
position = 448;
width = 23;
},
{
position = 458;
width = 13;
}
);
};
com.typemytype.robofont.layerData = {
background = {
anchors = (
);
components = (
{
baseGlyph = o;
transformation = (
1,
0,
0,
1,
0,
0
);
}
);
contours = (
{
points = (
{
segmentType = curve;
smooth = 1;
x = 592;
y = 263;
},
{
smooth = 0;
x = 592;
y = 82;
},
{
smooth = 0;
x = 667;
y = 18;
},
{
segmentType = curve;
smooth = 1;
x = 752;
y = 18;
},
{
smooth = 0;
x = 831;
y = 18;
},
{
smooth = 0;
x = 895;
y = 46;
},
{
segmentType = curve;
smooth = 0;
x = 948;
y = 73;
},
{
segmentType = line;
smooth = 0;
x = 948;
y = 485;
},
{
smooth = 0;
x = 879;
y = 503;
},
{
smooth = 0;
x = 829;
y = 515;
},
{
segmentType = curve;
smooth = 1;
x = 752;
y = 515;
},
{
smooth = 0;
x = 668;
y = 515;
},
{
smooth = 0;
x = 592;
y = 472;
}
);
},
{
points = (
{
segmentType = curve;
smooth = 1;
x = 568;
y = 263;
},
{
smooth = 0;
x = 568;
y = 399;
},
{
smooth = 0;
x = 601;
y = 539;
},
{
segmentType = curve;
smooth = 1;
x = 752;
y = 539;
},
{
smooth = 0;
x = 797;
y = 539;
},
{
smooth = 0;
x = 886;
y = 525;
},
{
segmentType = curve;
smooth = 0;
x = 950;
y = 499;
},
{
segmentType = line;
smooth = 0;
x = 950;
y = 785;
},
{
segmentType = line;
smooth = 0;
x = 971;
y = 785;
},
{
segmentType = line;
smooth = 0;
x = 971;
y = 0;
},
{
segmentType = line;
smooth = 0;
x = 958;
y = 0;
},
{
segmentType = line;
smooth = 0;
x = 948;
y = 59;
},
{
smooth = 0;
x = 922;
y = 35;
},
{
smooth = 0;
x = 820;
y = "-6";
},
{
segmentType = curve;
smooth = 1;
x = 752;
y = "-6";
},
{
smooth = 0;
x = 607;
y = "-6";
},
{
smooth = 0;
x = 568;
y = 141;
}
);
}
);
lib = {
};
name = d;
unicodes = (
);
width = 568;
};
};
};
},
{
glyphname = e;
lastChange = "2016-12-19 14:59:05 +0000";
layers = (
{
anchors = (
{
name = bottom;
position = "{270, -150}";
},
{
name = ogonek;
position = "{454, 23}";
},
{
name = top;
position = "{270, 650}";
}
);
layerId = "1A646CEF-9FB5-4F4A-951A-F8B2030A9B85";
name = Light;
paths = (
{
closed = 1;
nodes = (
"94 273 LINE",
"94 464 OFFCURVE",
"135 515 OFFCURVE",
"283 515 CURVE SMOOTH",
"405 515 OFFCURVE",
"450 483 OFFCURVE",
"450 367 CURVE SMOOTH",
"450 295 OFFCURVE",
"414 273 OFFCURVE",
"338 273 CURVE SMOOTH"
);
},
{
closed = 1;
nodes = (
"70 268 CURVE SMOOTH",
"70 63 OFFCURVE",
"117 -6 OFFCURVE",
"278 -6 CURVE SMOOTH",
"347 -6 OFFCURVE",
"397 -5 OFFCURVE",
"464 0 CURVE",
"464 16 LINE",
"280 16 LINE SMOOTH",
"129 16 OFFCURVE",
"94 79 OFFCURVE",
"94 251 CURVE",
"338 251 LINE SMOOTH",
"422 251 OFFCURVE",
"474 284 OFFCURVE",
"474 367 CURVE SMOOTH",
"474 496 OFFCURVE",
"410 537 OFFCURVE",
"283 537 CURVE SMOOTH",
"127 537 OFFCURVE",
"70 476 OFFCURVE"
);
}
);
width = 544;
}
);
unicode = 0065;
userData = {
com.fontlab.hintData = {
hhints = (
{
position = "-5";
width = 24;
},
{
position = 250;
width = 23;
},
{
position = 511;
width = 24;
}
);
vhints = (
{
position = 68;
width = 24;
},
{
position = 448;
width = 24;
}
);
};
com.typemytype.robofont.layerData = {
background = {
anchors = (
);
components = (
{
baseGlyph = c;
transformation = (
1,
0,
0,
1,
0,
0
);
}
);
contours = (
{
points = (
{
segmentType = curve;
smooth = 0;
x = 592;
y = 273;
},
{
segmentType = line;
smooth = 1;
x = 836;
y = 273;
},
{
smooth = 0;
x = 892;
y = 273;
},
{
smooth = 0;
x = 948;
y = 277;
},
{
segmentType = curve;
smooth = 1;
x = 948;
y = 347;
},
{
smooth = 0;
x = 948;
y = 497;
},
{
smooth = 0;
x = 888;
y = 511;
},
{
segmentType = curve;
smooth = 1;
x = 770;
y = 511;
},
{
smooth = 0;
x = 631;
y = 511;
},
{
smooth = 0;
x = 592;
y = 481;
}
);
},
{
points = (
{
segmentType = curve;
smooth = 1;
x = 568;
y = 268;
},
{
smooth = 0;
x = 568;
y = 502;
},
{
smooth = 0;
x = 622;
y = 535;
},
{
segmentType = curve;
smooth = 1;
x = 770;
y = 535;
},
{
smooth = 0;
x = 891;
y = 535;
},
{
smooth = 0;
x = 972;
y = 523;
},
{
segmentType = curve;
smooth = 1;
x = 972;
y = 347;
},
{
smooth = 0;
x = 972;
y = 268;
},
{
smooth = 0;
x = 922;
y = 250;
},
{
segmentType = curve;
smooth = 1;
x = 836;
y = 250;
},
{
segmentType = line;
smooth = 0;
x = 592;
y = 250;
},
{
smooth = 0;
x = 592;
y = 48;
},
{
smooth = 0;
x = 655;
y = 19;
},
{
segmentType = curve;
smooth = 1;
x = 742;
y = 19;
},
{
smooth = 0;
x = 834;
y = 19;
},
{
smooth = 0;
x = 887;
y = 28;
},
{
segmentType = curve;
smooth = 0;
x = 962;
y = 39;
},
{
segmentType = line;
smooth = 0;
x = 962;
y = 23;
},
{
smooth = 0;
x = 881;
y = 0;
},
{
smooth = 0;
x = 825;
y = "-6";
},
{
segmentType = curve;
smooth = 1;
x = 742;
y = "-5";
},
{
smooth = 0;
x = 606;
y = "-3";
},
{
smooth = 0;
x = 568;
y = 72;
}
);
}
);
lib = {
};
name = e;
unicodes = (
);
width = 544;
};
};
};
},
{
glyphname = f;
lastChange = "2016-12-19 14:59:05 +0000";
layers = (
{
anchors = (
{
name = top;
position = "{229, 900}";
}
);
layerId = "1A646CEF-9FB5-4F4A-951A-F8B2030A9B85";
name = Light;
paths = (
{
closed = 1;
nodes = (
"27 509 LINE",
"114 509 LINE",
"114 0 LINE",
"138 0 LINE",
"138 509 LINE",
"326 509 LINE",
"326 531 LINE",
"138 531 LINE",
"138 630 LINE SMOOTH",
"138 716 OFFCURVE",
"154 764 OFFCURVE",
"248 764 CURVE SMOOTH",
"343 764 LINE",
"343 780 LINE",
"316 783 OFFCURVE",
"293 786 OFFCURVE",
"247 786 CURVE SMOOTH",
"137 786 OFFCURVE",
"114 724 OFFCURVE",
"114 630 CURVE SMOOTH",
"114 531 LINE",
"27 525 LINE"
);
}
);
width = 348;
}
);
unicode = 0066;
userData = {
com.fontlab.hintData = {
hhints = (
{
position = 0;
width = 21;
},
{
position = 507;
width = 24;
},
{
position = 507;
width = 14;
},
{
position = 762;
width = 24;
},
{
position = 762;
width = 13;
}
);
vhints = (
{
position = 114;
width = 24;
}
);
};
com.typemytype.robofont.layerData = {
background = {
anchors = (
);
components = (
);
contours = (
{
points = (
{
segmentType = line;
smooth = 0;
x = 27;
y = 507;
},
{
segmentType = line;
smooth = 0;
x = 27;
y = 521;
},
{
segmentType = line;
smooth = 0;
x = 114;
y = 531;
},
{
segmentType = line;
smooth = 1;
x = 114;
y = 630;
},
{
smooth = 0;
x = 114;
y = 684;
},
{
smooth = 0;
x = 117;
y = 786;
},
{
segmentType = curve;
smooth = 1;
x = 207;
y = 786;
},
{
smooth = 0;
x = 237;
y = 786;
},
{
smooth = 0;
x = 321;
y = 785;
},
{
segmentType = curve;
smooth = 0;
x = 357;
y = 775;
},
{
segmentType = line;
smooth = 0;
x = 357;
y = 762;
},
{
segmentType = line;
smooth = 1;
x = 215;
y = 762;
},
{
smooth = 0;
x = 147;
y = 762;
},
{
smooth = 0;
x = 138;
y = 708;
},
{
segmentType = curve;
smooth = 1;
x = 138;
y = 630;
},
{
segmentType = line;
smooth = 0;
x = 138;
y = 531;
},
{
segmentType = line;
smooth = 0;
x = 316;
y = 531;
},
{
segmentType = line;
smooth = 0;
x = 316;
y = 507;
},
{
segmentType = line;
smooth = 0;
x = 138;
y = 507;
},
{
segmentType = line;
smooth = 0;
x = 138;
y = 0;
},
{
segmentType = line;
smooth = 0;
x = 114;
y = 0;
},
{
segmentType = line;
smooth = 0;
x = 114;
y = 507;
}
);
}
);
lib = {
};
name = f;
unicodes = (
);
width = 348;
};
};
};
},
{
glyphname = g;
lastChange = "2016-12-19 14:59:05 +0000";
layers = (
{
anchors = (
{
name = top;
position = "{278, 650}";
}
);
layerId = "1A646CEF-9FB5-4F4A-951A-F8B2030A9B85";
name = Light;
paths = (
{
closed = 1;
nodes = (
"95 354 CURVE SMOOTH",
"95 470 OFFCURVE",
"157 511 OFFCURVE",
"253 511 CURVE SMOOTH",
"311 511 LINE SMOOTH",
"396 511 OFFCURVE",
"461 468 OFFCURVE",
"461 344 CURVE SMOOTH",
"461 270 OFFCURVE",
"431 195 OFFCURVE",
"298 195 CURVE SMOOTH",
"236 195 LINE SMOOTH",
"151 195 OFFCURVE",
"95 241 OFFCURVE"
);
},
{
closed = 1;
nodes = (
"71 354 CURVE SMOOTH",
"71 292 OFFCURVE",
"90 217 OFFCURVE",
"175 188 CURVE",
"117 177 OFFCURVE",
"83 153 OFFCURVE",
"83 101 CURVE SMOOTH",
"83 48 OFFCURVE",
"124 17 OFFCURVE",
"177 17 CURVE SMOOTH",
"351 17 LINE SMOOTH",
"488 17 OFFCURVE",
"524 -30 OFFCURVE",
"524 -98 CURVE SMOOTH",
"524 -126 LINE SMOOTH",
"524 -210 OFFCURVE",
"457 -248 OFFCURVE",
"346 -248 CURVE SMOOTH",
"226 -248 LINE SMOOTH",
"128 -248 OFFCURVE",
"64 -220 OFFCURVE",
"64 -136 CURVE SMOOTH",
"64 -103 LINE SMOOTH",
"64 -15 OFFCURVE",
"143 17 OFFCURVE",
"219 17 CURVE",
"219 37 LINE",
"137 37 OFFCURVE",
"40 -6 OFFCURVE",
"40 -103 CURVE SMOOTH",
"40 -136 LINE SMOOTH",
"40 -229 OFFCURVE",
"114 -270 OFFCURVE",
"226 -270 CURVE SMOOTH",
"346 -270 LINE SMOOTH",
"474 -270 OFFCURVE",
"546 -216 OFFCURVE",
"546 -126 CURVE SMOOTH",
"546 -95 LINE SMOOTH",
"546 -10 OFFCURVE",
"490 39 OFFCURVE",
"351 39 CURVE SMOOTH",
"171 39 LINE SMOOTH",
"142 39 OFFCURVE",
"107 57 OFFCURVE",
"107 101 CURVE SMOOTH",
"107 155 OFFCURVE",
"150 173 OFFCURVE",
"223 173 CURVE SMOOTH",
"300 173 LINE SMOOTH",
"444 173 OFFCURVE",
"485 265 OFFCURVE",
"485 344 CURVE SMOOTH",
"485 465 OFFCURVE",
"427 495 OFFCURVE",
"394 511 CURVE",
"545 517 LINE",
"545 533 LINE",
"263 533 LINE SMOOTH",
"158 533 OFFCURVE",
"71 489 OFFCURVE"
);
}
);
width = 571;
}
);
unicode = 0067;
userData = {
com.fontlab.hintData = {
hhints = (
{
position = "-270";
width = 24;
},
{
position = 37;
width = 23;
},
{
position = 173;
width = 25;
},
{
position = 509;
width = 24;
},
{
position = 519;
width = 14;
}
);
vhints = (
{
position = 64;
width = 22;
},
{
position = 472;
width = 24;
},
{
position = 493;
width = 24;
}
);
};
com.typemytype.robofont.layerData = {
background = {
anchors = (
);
components = (
);
contours = (
{
points = (
{
segmentType = curve;
smooth = 1;
x = 85;
y = 344;
},
{
smooth = 0;
x = 85;
y = 238;
},
{
smooth = 0;
x = 141;
y = 198;
},
{
segmentType = curve;
smooth = 1;
x = 226;
y = 198;
},
{
segmentType = line;
smooth = 1;
x = 328;
y = 198;
},
{
smooth = 0;
x = 436;
y = 198;
},
{
smooth = 0;
x = 471;
y = 270;
},
{
segmentType = curve;
smooth = 1;
x = 471;
y = 344;
},
{
smooth = 0;
x = 471;
y = 458;
},
{
smooth = 0;
x = 421;
y = 509;
},
{
segmentType = curve;
smooth = 1;
x = 371;
y = 509;
},
{
segmentType = line;
smooth = 1;
x = 223;
y = 509;
},
{
smooth = 0;
x = 113;
y = 509;
},
{
smooth = 0;
x = 85;
y = 442;
}
);
},
{
points = (
{
segmentType = line;
smooth = 1;
x = 85;
y = "-116";
},
{
smooth = 0;
x = 85;
y = "-228";
},
{
smooth = 0;
x = 176;
y = "-246";
},
{
segmentType = curve;
smooth = 1;
x = 216;
y = "-246";
},
{
segmentType = line;
smooth = 1;
x = 366;
y = "-246";
},
{
smooth = 0;
x = 436;
y = "-246";
},
{
smooth = 0;
x = 492;
y = "-220";
},
{
segmentType = curve;
smooth = 1;
x = 492;
y = "-126";
},
{
segmentType = line;
smooth = 1;
x = 492;
y = "-73";
},
{
smooth = 0;
x = 492;
y = "-14";
},
{
smooth = 0;
x = 461.5;
y = 37;
},
{
segmentType = curve;
smooth = 1;
x = 371;
y = 37;
},
{
segmentType = line;
smooth = 1;
x = 167;
y = 37;
},
{
smooth = 0;
x = 113;
y = 37;
},
{
smooth = 0;
x = 85;
y = 66;
},
{
segmentType = curve;
smooth = 0;
x = 85;
y = 66;
}
);
},
{
points = (
{
segmentType = curve;
smooth = 1;
x = 63;
y = 120;
},
{
smooth = 0;
x = 63;
y = 150;
},
{
smooth = 0;
x = 89.5;
y = 186;
},
{
segmentType = curve;
smooth = 0;
x = 148;
y = 188;
},
{
smooth = 0;
x = 74;
y = 218;
},
{
smooth = 0;
x = 61;
y = 285;
},
{
segmentType = curve;
smooth = 1;
x = 61;
y = 344;
},
{
smooth = 0;
x = 61;
y = 476;
},
{
smooth = 0;
x = 112;
y = 533;
},
{
segmentType = curve;
smooth = 1;
x = 233;
y = 533;
},
{
segmentType = line;
smooth = 0;
x = 545;
y = 533;
},
{
segmentType = line;
smooth = 0;
x = 545;
y = 519;
},
{
segmentType = line;
smooth = 0;
x = 434;
y = 509;
},
{
smooth = 0;
x = 452;
y = 496;
},
{
smooth = 0;
x = 495;
y = 459;
},
{
segmentType = curve;
smooth = 1;
x = 495;
y = 344;
},
{
smooth = 0;
x = 495;
y = 284;
},
{
smooth = 0;
x = 472;
y = 173;
},
{
segmentType = curve;
smooth = 1;
x = 330;
y = 173;
},
{
segmentType = line;
smooth = 1;
x = 174;
y = 173;
},
{
smooth = 0;
x = 158;
y = 173;
},
{
smooth = 0;
x = 85;
y = 168;
},
{
segmentType = curve;
smooth = 1;
x = 85;
y = 116;
},
{
smooth = 0;
x = 85;
y = 76;
},
{
smooth = 0;
x = 137;
y = 60;
},
{
segmentType = curve;
smooth = 1;
x = 165;
y = 60;
},
{
segmentType = line;
smooth = 1;
x = 371;
y = 60;
},
{
smooth = 0;
x = 465.5;
y = 60;
},
{
smooth = 0;
x = 516;
y = 6;
},
{
segmentType = curve;
smooth = 1;
x = 516;
y = "-73";
},
{
segmentType = line;
smooth = 1;
x = 516;
y = "-126";
},
{
smooth = 0;
x = 516;
y = "-186";
},
{
smooth = 0;
x = 497;
y = "-270";
},
{
segmentType = curve;
smooth = 1;
x = 366;
y = "-270";
},
{
segmentType = line;
smooth = 1;
x = 216;
y = "-270";
},
{
smooth = 0;
x = 122;
y = "-270";
},
{
smooth = 0;
x = 60;
y = "-215";
},
{
segmentType = curve;
smooth = 1;
x = 60;
y = "-116";
},
{
segmentType = line;
smooth = 0;
x = 60;
y = "-22";
},
{
segmentType = line;
smooth = 0;
x = 72;
y = 83;
},
{
smooth = 0;
x = 65;
y = 92.5;
},
{
smooth = 0;
x = 63;
y = 106;
}
);
}
);
lib = {
};
name = g;
unicodes = (
);
width = 571;
};
};
};
},
{
glyphname = h;
lastChange = "2016-12-19 14:59:05 +0000";
layers = (
{
layerId = "1A646CEF-9FB5-4F4A-951A-F8B2030A9B85";
name = Light;
paths = (
{
closed = 1;
nodes = (
"91 0 LINE",
"115 0 LINE",
"115 455 LINE",
"190 495 OFFCURVE",
"243 518 OFFCURVE",
"331 518 CURVE SMOOTH",
"420 518 OFFCURVE",
"471 450 OFFCURVE",
"471 370 CURVE SMOOTH",
"471 0 LINE",
"495 0 LINE",
"495 370 LINE SMOOTH",
"495 458 OFFCURVE",
"437 540 OFFCURVE",
"331 540 CURVE SMOOTH",
"250 540 OFFCURVE",
"173 507 OFFCURVE",
"115 469 CURVE",
"115 784 LINE",
"91 784 LINE"
);
}
);
width = 582;
}
);
unicode = 0068;
userData = {
com.fontlab.hintData = {
hhints = (
{
position = 0;
width = 21;
},
{
position = 516;
width = 24;
},
{
position = 764;
width = 20;
}
);
vhints = (
{
position = 81;
width = 24;
},
{
position = 461;
width = 24;
}
);
};
com.typemytype.robofont.layerData = {
background = {
anchors = (
);
components = (
{
baseGlyph = n;
transformation = (
1,
0,
0,
1,
0,
0
);
}
);
contours = (
{
points = (
{
segmentType = line;
smooth = 0;
x = 81;
y = 0;
},
{
segmentType = line;
smooth = 0;
x = 81;
y = 784;
},
{
segmentType = line;
smooth = 0;
x = 105;
y = 784;
},
{
segmentType = line;
smooth = 0;
x = 105;
y = 469;
},
{
smooth = 0;
x = 163;
y = 507;
},
{
smooth = 0;
x = 240;
y = 540;
},
{
segmentType = curve;
smooth = 1;
x = 321;
y = 540;
},
{
smooth = 0;
x = 427;
y = 540;
},
{
smooth = 0;
x = 485;
y = 458;
},
{
segmentType = curve;
smooth = 1;
x = 485;
y = 370;
},
{
segmentType = line;
smooth = 0;
x = 485;
y = 0;
},
{
segmentType = line;
smooth = 0;
x = 461;
y = 0;
},
{
segmentType = line;
smooth = 1;
x = 461;
y = 370;
},
{
smooth = 0;
x = 461;
y = 454;
},
{
smooth = 0;
x = 410;
y = 516;
},
{
segmentType = curve;
smooth = 1;
x = 321;
y = 516;
},
{
smooth = 0;
x = 233;
y = 516;
},
{
smooth = 0;
x = 179;
y = 495;
},
{
segmentType = curve;
smooth = 0;
x = 105;
y = 455;
},
{
segmentType = line;
smooth = 0;
x = 105;
y = 0;
}
);
}
);
lib = {
};
name = h;
unicodes = (
);
width = 582;
};
};
};
},
{
glyphname = i;
lastChange = "2016-12-19 14:59:05 +0000";
layers = (
{
anchors = (
{
name = bottom;
position = "{103, -150}";
},
{
name = ogonek;
position = "{105, 0}";
}
);
components = (
{
name = dotlessi;
transform = "{1, 0, 0, 1, 0, 0}";
}
);
layerId = "1A646CEF-9FB5-4F4A-951A-F8B2030A9B85";
name = Light;
paths = (
{
closed = 1;
nodes = (
"86 652 LINE SMOOTH",
"86 645 OFFCURVE",
"91 640 OFFCURVE",
"98 640 CURVE SMOOTH",
"109 640 LINE SMOOTH",
"116 640 OFFCURVE",
"120 644 OFFCURVE",
"120 652 CURVE SMOOTH",
"120 714 LINE SMOOTH",
"120 721 OFFCURVE",
"117 726 OFFCURVE",
"109 726 CURVE SMOOTH",
"98 726 LINE SMOOTH",
"90 726 OFFCURVE",
"86 722 OFFCURVE",
"86 714 CURVE SMOOTH"
);
}
);
width = 206;
}
);
unicode = 0069;
userData = {
com.fontlab.hintData = {
hhints = (
{
position = 0;
width = 21;
},
{
position = 511;
width = 20;
},
{
position = 610;
width = 86;
}
);
vhints = (
{
position = 72;
width = 24;
}
);
};
com.typemytype.robofont.layerData = {
background = {
anchors = (
);
components = (
);
contours = (
{
points = (
{
segmentType = line;
smooth = 0;
x = 72;
y = 0;
},
{
segmentType = line;
smooth = 0;
x = 72;
y = 531;
},
{
segmentType = line;
smooth = 0;
x = 96;
y = 531;
},
{
segmentType = line;
smooth = 0;
x = 96;
y = 0;
}
);
},
{
points = (
{
segmentType = curve;
smooth = 1;
x = 68;
y = 622;
},
{
segmentType = line;
smooth = 1;
x = 68;
y = 684;
},
{
smooth = 0;
x = 68;
y = 692;
},
{
smooth = 0;
x = 72;
y = 696;
},
{
segmentType = curve;
smooth = 1;
x = 80;
y = 696;
},
{
segmentType = line;
smooth = 1;
x = 91;
y = 696;
},
{
smooth = 0;
x = 99;
y = 696;
},
{
smooth = 0;
x = 102;
y = 691;
},
{
segmentType = curve;
smooth = 1;
x = 102;
y = 684;
},
{
segmentType = line;
smooth = 1;
x = 102;
y = 622;
},
{
smooth = 0;
x = 102;
y = 614;
},
{
smooth = 0;
x = 98;
y = 610;
},
{
segmentType = curve;
smooth = 1;
x = 91;
y = 610;
},
{
segmentType = line;
smooth = 1;
x = 80;
y = 610;
},
{
smooth = 0;
x = 73;
y = 610;
},
{
smooth = 0;
x = 68;
y = 615;
}
);
}
);
lib = {
};
name = i;
unicodes = (
);
width = 206;
};
};
};
},
{
glyphname = j;
lastChange = "2016-12-19 14:59:05 +0000";
layers = (
{
components = (
{
name = jdotless;
transform = "{1, 0, 0, 1, 0, 0}";
}
);
layerId = "1A646CEF-9FB5-4F4A-951A-F8B2030A9B85";
name = Light;
paths = (
{
closed = 1;
nodes = (
"86 652 LINE SMOOTH",
"86 645 OFFCURVE",
"91 640 OFFCURVE",
"98 640 CURVE SMOOTH",
"109 640 LINE SMOOTH",
"116 640 OFFCURVE",
"120 644 OFFCURVE",
"120 652 CURVE SMOOTH",
"120 714 LINE SMOOTH",
"120 721 OFFCURVE",
"117 726 OFFCURVE",
"109 726 CURVE SMOOTH",
"98 726 LINE SMOOTH",
"90 726 OFFCURVE",
"86 722 OFFCURVE",
"86 714 CURVE SMOOTH"
);
}
);
width = 206;
}
);
unicode = 006A;
userData = {
com.fontlab.hintData = {
hhints = (
{
position = 511;
width = 20;
},
{
position = 610;
width = 86;
}
);
vhints = (
{
position = 87;
width = 24;
},
{
position = 87;
width = 13;
}
);
};
com.typemytype.robofont.layerData = {
background = {
anchors = (
);
components = (
);
contours = (
{
points = (
{
segmentType = line;
smooth = 0;
x = 87;
y = "-270";
},
{
segmentType = line;
smooth = 0;
x = 87;
y = 531;
},
{
segmentType = line;
smooth = 0;
x = 111;
y = 531;
},
{
segmentType = line;
smooth = 0;
x = 111;
y = "-4";
},
{
smooth = 0;
x = 112;
y = "-90";
},
{
smooth = 0;
x = 112;
y = "-182";
},
{
segmentType = curve;
smooth = 0;
x = 100;
y = "-270";
}
);
},
{
points = (
{
segmentType = curve;
smooth = 1;
x = 81;
y = 622;
},
{
segmentType = line;
smooth = 1;
x = 81;
y = 684;
},
{
smooth = 0;
x = 81;
y = 692;
},
{
smooth = 0;
x = 85;
y = 696;
},
{
segmentType = curve;
smooth = 1;
x = 93;
y = 696;
},
{
segmentType = line;
smooth = 1;
x = 104;
y = 696;
},
{
smooth = 0;
x = 112;
y = 696;
},
{
smooth = 0;
x = 116;
y = 691;
},
{
segmentType = curve;
smooth = 1;
x = 116;
y = 684;
},
{
segmentType = line;
smooth = 1;
x = 116;
y = 622;
},
{
smooth = 0;
x = 116;
y = 614;
},
{
smooth = 0;
x = 111;
y = 610;
},
{
segmentType = curve;
smooth = 1;
x = 104;
y = 610;
},
{
segmentType = line;
smooth = 1;
x = 93;
y = 610;
},
{
smooth = 0;
x = 86;
y = 610;
},
{
smooth = 0;
x = 81;
y = 615;
}
);
}
);
lib = {
};
name = j;
unicodes = (
);
width = 206;
};
};
};
},
{
glyphname = k;
lastChange = "2016-12-19 14:59:05 +0000";
layers = (
{
anchors = (
{
name = bottom;
position = "{240, -150}";
}
);
layerId = "1A646CEF-9FB5-4F4A-951A-F8B2030A9B85";
name = Light;
paths = (
{
closed = 1;
nodes = (
"91 0 LINE",
"115 0 LINE",
"115 276 LINE",
"198 276 LINE",
"409 0 LINE",
"440 0 LINE",
"219 286 LINE",
"431 531 LINE",
"401 531 LINE",
"202 298 LINE",
"115 298 LINE",
"115 782 LINE",
"91 782 LINE"
);
}
);
width = 468;
}
);
unicode = 006B;
userData = {
com.fontlab.hintData = {
hhints = (
{
position = 0;
width = 21;
},
{
position = 293;
width = 24;
},
{
position = 511;
width = 20;
},
{
position = 762;
width = 20;
}
);
vhints = (
{
position = 81;
width = 24;
}
);
};
com.typemytype.robofont.layerData = {
background = {
anchors = (
);
components = (
);
contours = (
{
points = (
{
segmentType = line;
smooth = 0;
x = 91;
y = 0;
},
{
segmentType = line;
smooth = 0;
x = 91;
y = 782;
},
{
segmentType = line;
smooth = 0;
x = 115;
y = 782;
},
{
segmentType = line;
smooth = 0;
x = 115;
y = 317;
},
{
segmentType = line;
smooth = 0;
x = 175;
y = 317;
},
{
segmentType = line;
smooth = 0;
x = 443;
y = 531;
},
{
segmentType = line;
smooth = 0;
x = 481;
y = 531;
},
{
segmentType = line;
smooth = 0;
x = 199;
y = 304;
},
{
segmentType = line;
smooth = 0;
x = 480;
y = 0;
},
{
segmentType = line;
smooth = 0;
x = 445;
y = 0;
},
{
segmentType = line;
smooth = 0;
x = 175;
y = 293;
},
{
segmentType = line;
smooth = 0;
x = 115;
y = 293;
},
{
segmentType = line;
smooth = 0;
x = 115;
y = 0;
}
);
}
);
lib = {
};
name = k;
unicodes = (
);
width = 468;
};
};
};
},
{
glyphname = l;
lastChange = "2016-12-19 14:59:05 +0000";
layers = (
{
anchors = (
{
name = altcaron;
position = "{135, 650}";
},
{
name = bottom;
position = "{150, -150}";
},
{
name = top;
position = "{103, 900}";
}
);
layerId = "1A646CEF-9FB5-4F4A-951A-F8B2030A9B85";
name = Light;
paths = (
{
closed = 1;
nodes = (
"91 169 LINE SMOOTH",
"91 35 OFFCURVE",
"135 0 OFFCURVE",
"209 0 CURVE SMOOTH",
"269 0 LINE",
"269 16 LINE",
"205 23 LINE SMOOTH",
"150 29 OFFCURVE",
"115 48 OFFCURVE",
"115 169 CURVE SMOOTH",
"115 783 LINE",
"91 783 LINE"
);
}
);
width = 278;
}
);
unicode = 006C;
userData = {
com.fontlab.hintData = {
hhints = (
{
position = 0;
width = 13;
},
{
position = 763;
width = 20;
}
);
vhints = (
{
position = 81;
width = 24;
}
);
};
com.typemytype.robofont.layerData = {
background = {
anchors = (
);
components = (
);
contours = (
{
points = (
{
segmentType = curve;
smooth = 1;
x = 91;
y = 189;
},
{
segmentType = line;
smooth = 0;
x = 91;
y = 783;
},
{
segmentType = line;
smooth = 0;
x = 115;
y = 783;
},
{
segmentType = line;
smooth = 1;
x = 115;
y = 189;
},
{
smooth = 0;
x = 115;
y = 32;
},
{
smooth = 0;
x = 177;
y = 28;
},
{
segmentType = curve;
smooth = 1;
x = 207;
y = 24;
},
{
smooth = 0;
x = 207;
y = 24;
},
{
smooth = 0;
x = 274;
y = 13;
},
{
segmentType = curve;
smooth = 0;
x = 281;
y = 13;
},
{
segmentType = line;
smooth = 0;
x = 281;
y = 0;
},
{
segmentType = line;
smooth = 1;
x = 214;
y = 0;
},
{
smooth = 0;
x = 130;
y = 0;
},
{
smooth = 0;
x = 91;
y = 57;
}
);
}
);
lib = {
};
name = l;
unicodes = (
);
width = 278;
};
};
};
},
{
glyphname = m;
lastChange = "2016-12-19 14:59:05 +0000";
layers = (
{
anchors = (
{
name = bottom;
position = "{480, -150}";
},
{
name = top;
position = "{480, 650}";
}
);
layerId = "1A646CEF-9FB5-4F4A-951A-F8B2030A9B85";
name = Light;
paths = (
{
closed = 1;
nodes = (
"91 0 LINE",
"115 0 LINE",
"115 455 LINE",
"190 495 OFFCURVE",
"243 518 OFFCURVE",
"331 518 CURVE SMOOTH",
"420 518 OFFCURVE",
"471 450 OFFCURVE",
"471 370 CURVE SMOOTH",
"471 0 LINE",
"495 0 LINE",
"495 370 LINE SMOOTH",
"495 397 OFFCURVE",
"489 422 OFFCURVE",
"479 446 CURVE",
"550 486 OFFCURVE",
"634 518 OFFCURVE",
"710 518 CURVE SMOOTH",
"799 518 OFFCURVE",
"851 450 OFFCURVE",
"851 370 CURVE SMOOTH",
"851 0 LINE",
"875 0 LINE",
"875 370 LINE SMOOTH",
"875 458 OFFCURVE",
"816 540 OFFCURVE",
"710 540 CURVE SMOOTH",
"630 540 OFFCURVE",
"526 497 OFFCURVE",
"474 458 CURVE",
"448 506 OFFCURVE",
"399 540 OFFCURVE",
"331 540 CURVE SMOOTH",
"250 540 OFFCURVE",
"173 507 OFFCURVE",
"115 469 CURVE",
"105 531 LINE",
"91 531 LINE"
);
}
);
width = 962;
}
);
unicode = 006D;
userData = {
com.fontlab.hintData = {
hhints = (
{
position = 0;
width = 21;
},
{
position = 511;
width = 20;
},
{
position = 516;
width = 24;
}
);
vhints = (
{
position = 81;
width = 24;
},
{
position = 81;
width = 14;
},
{
position = 461;
width = 24;
},
{
position = 840;
width = 24;
}
);
};
com.typemytype.robofont.layerData = {
background = {
anchors = (
);
components = (
{
baseGlyph = n;
transformation = (
1,
0,
0,
1,
0,
0
);
},
{
baseGlyph = n;
transformation = (
1,
0,
0,
1,
380,
0
);
}
);
contours = (
{
points = (
{
segmentType = line;
smooth = 0;
x = 91;
y = 0;
},
{
segmentType = line;
smooth = 0;
x = 91;
y = 531;
},
{
segmentType = line;
smooth = 0;
x = 105;
y = 531;
},
{
segmentType = line;
smooth = 0;
x = 115;
y = 469;
},
{
smooth = 0;
x = 173;
y = 507;
},
{
smooth = 0;
x = 250;
y = 540;
},
{
segmentType = curve;
smooth = 1;
x = 331;
y = 540;
},
{
smooth = 0;
x = 399;
y = 540;
},
{
smooth = 0;
x = 448;
y = 506;
},
{
segmentType = curve;
smooth = 0;
x = 474;
y = 458;
},
{
smooth = 0;
x = 526;
y = 497;
},
{
smooth = 0;
x = 630;
y = 540;
},
{
segmentType = curve;
smooth = 1;
x = 710;
y = 540;
},
{
smooth = 0;
x = 816;
y = 540;
},
{
smooth = 0;
x = 874;
y = 458;
},
{
segmentType = curve;
smooth = 1;
x = 874;
y = 370;
},
{
segmentType = line;
smooth = 0;
x = 874;
y = 0;
},
{
segmentType = line;
smooth = 0;
x = 850;
y = 0;
},
{
segmentType = line;
smooth = 1;
x = 850;
y = 370;
},
{
smooth = 0;
x = 850;
y = 449;
},
{
smooth = 0;
x = 799;
y = 516;
},
{
segmentType = curve;
smooth = 1;
x = 710;
y = 516;
},
{
smooth = 0;
x = 626;
y = 516;
},
{
smooth = 0;
x = 550;
y = 484;
},
{
segmentType = curve;
smooth = 0;
x = 479;
y = 446;
},
{
smooth = 0;
x = 489;
y = 422;
},
{
smooth = 0;
x = 495;
y = 397;
},
{
segmentType = curve;
smooth = 1;
x = 495;
y = 370;
},
{
segmentType = line;
smooth = 0;
x = 495;
y = 0;
},
{
segmentType = line;
smooth = 0;
x = 471;
y = 0;
},
{
segmentType = line;
smooth = 1;
x = 471;
y = 370;
},
{
smooth = 0;
x = 471;
y = 449;
},
{
smooth = 0;
x = 420;
y = 516;
},
{
segmentType = curve;
smooth = 1;
x = 331;
y = 516;
},
{
smooth = 0;
x = 243;
y = 516;
},
{
smooth = 0;
x = 189;
y = 495;
},
{
segmentType = curve;
smooth = 0;
x = 115;
y = 455;
},
{
segmentType = line;
smooth = 0;
x = 115;
y = 0;
}
);
}
);
lib = {
};
name = m;
unicodes = (
);
width = 962;
};
};
};
},
{
glyphname = n;
lastChange = "2016-12-19 14:59:05 +0000";
layers = (
{
anchors = (
{
name = bottom;
position = "{290, -150}";
},
{
name = top;
position = "{290, 650}";
}
);
layerId = "1A646CEF-9FB5-4F4A-951A-F8B2030A9B85";
name = Light;
paths = (
{
closed = 1;
nodes = (
"91 0 LINE",
"115 0 LINE",
"115 455 LINE",
"190 495 OFFCURVE",
"243 518 OFFCURVE",
"331 518 CURVE SMOOTH",
"420 518 OFFCURVE",
"471 450 OFFCURVE",
"471 370 CURVE SMOOTH",
"471 0 LINE",
"495 0 LINE",
"495 370 LINE SMOOTH",
"495 458 OFFCURVE",
"437 540 OFFCURVE",
"331 540 CURVE SMOOTH",
"250 540 OFFCURVE",
"173 507 OFFCURVE",
"115 469 CURVE",
"105 531 LINE",
"91 531 LINE"
);
}
);
width = 582;
}
);
unicode = 006E;
userData = {
com.fontlab.hintData = {
hhints = (
{
position = 0;
width = 21;
},
{
position = 511;
width = 20;
},
{
position = 516;
width = 24;
}
);
vhints = (
{
position = 81;
width = 24;
},
{
position = 81;
width = 14;
},
{
position = 461;
width = 24;
}
);
};
com.typemytype.robofont.layerData = {
background = {
anchors = (
);
components = (
);
contours = (
{
points = (
{
segmentType = line;
smooth = 0;
x = 91;
y = 0;
},
{
segmentType = line;
smooth = 0;
x = 91;
y = 531;
},
{
segmentType = line;
smooth = 0;
x = 105;
y = 531;
},
{
segmentType = line;
smooth = 0;
x = 115;
y = 469;
},
{
smooth = 0;
x = 173;
y = 507;
},
{
smooth = 0;
x = 250;
y = 540;
},
{
segmentType = curve;
smooth = 1;
x = 331;
y = 540;
},
{
smooth = 0;
x = 437;
y = 540;
},
{
smooth = 0;
x = 495;
y = 458;
},
{
segmentType = curve;
smooth = 1;
x = 495;
y = 370;
},
{
segmentType = line;
smooth = 0;
x = 495;
y = 0;
},
{
segmentType = line;
smooth = 0;
x = 471;
y = 0;
},
{
segmentType = line;
smooth = 1;
x = 471;
y = 370;
},
{
smooth = 0;
x = 471;
y = 449;
},
{
smooth = 0;
x = 420;
y = 516;
},
{
segmentType = curve;
smooth = 1;
x = 331;
y = 516;
},
{
smooth = 0;
x = 243;
y = 516;
},
{
smooth = 0;
x = 189;
y = 495;
},
{
segmentType = curve;
smooth = 0;
x = 115;
y = 455;
},
{
segmentType = line;
smooth = 0;
x = 115;
y = 0;
}
);
}
);
lib = {
};
name = n;
unicodes = (
);
width = 582;
};
};
};
},
{
glyphname = o;
lastChange = "2016-12-19 14:59:05 +0000";
layers = (
{
anchors = (
{
name = bottom;
position = "{288, -150}";
},
{
name = ogonek;
position = "{322, 0}";
},
{
name = top;
position = "{288, 650}";
}
);
layerId = "1A646CEF-9FB5-4F4A-951A-F8B2030A9B85";
name = Light;
paths = (
{
closed = 1;
nodes = (
"94 266 CURVE SMOOTH",
"94 486 OFFCURVE",
"165 515 OFFCURVE",
"288 515 CURVE SMOOTH",
"411 515 OFFCURVE",
"484 486 OFFCURVE",
"484 266 CURVE SMOOTH",
"484 46 OFFCURVE",
"411 16 OFFCURVE",
"288 16 CURVE SMOOTH",
"165 16 OFFCURVE",
"94 46 OFFCURVE"
);
},
{
closed = 1;
nodes = (
"70 266 CURVE SMOOTH",
"70 36 OFFCURVE",
"151 -6 OFFCURVE",
"288 -6 CURVE SMOOTH",
"425 -6 OFFCURVE",
"508 36 OFFCURVE",
"508 266 CURVE SMOOTH",
"508 496 OFFCURVE",
"425 537 OFFCURVE",
"288 537 CURVE SMOOTH",
"151 537 OFFCURVE",
"70 496 OFFCURVE"
);
}
);
width = 578;
}
);
unicode = 006F;
userData = {
com.fontlab.hintData = {
hhints = (
{
position = "-5";
width = 24;
},
{
position = 512;
width = 24;
}
);
vhints = (
{
position = 68;
width = 24;
},
{
position = 482;
width = 24;
}
);
};
com.typemytype.robofont.layerData = {
background = {
anchors = (
);
components = (
);
contours = (
{
points = (
{
segmentType = curve;
smooth = 1;
x = 94;
y = 258;
},
{
smooth = 0;
x = 94;
y = 47;
},
{
smooth = 0;
x = 161;
y = 19;
},
{
segmentType = curve;
smooth = 1;
x = 288;
y = 19;
},
{
smooth = 0;
x = 416;
y = 19;
},
{
smooth = 0;
x = 484;
y = 56;
},
{
segmentType = curve;
smooth = 1;
x = 484;
y = 258;
},
{
smooth = 0;
x = 484;
y = 475;
},
{
smooth = 0;
x = 409;
y = 512;
},
{
segmentType = curve;
smooth = 1;
x = 288;
y = 512;
},
{
smooth = 0;
x = 168;
y = 512;
},
{
smooth = 0;
x = 94;
y = 490;
}
);
},
{
points = (
{
segmentType = curve;
smooth = 1;
x = 70;
y = 258;
},
{
smooth = 0;
x = 70;
y = 475;
},
{
smooth = 0;
x = 129;
y = 536;
},
{
segmentType = curve;
smooth = 1;
x = 288;
y = 536;
},
{
smooth = 0;
x = 461;
y = 536;
},
{
smooth = 0;
x = 508;
y = 445;
},
{
segmentType = curve;
smooth = 1;
x = 508;
y = 258;
},
{
smooth = 0;
x = 508;
y = 64;
},
{
smooth = 0;
x = 456;
y = "-5";
},
{
segmentType = curve;
smooth = 1;
x = 288;
y = "-5";
},
{
smooth = 0;
x = 112;
y = "-5";
},
{
smooth = 0;
x = 70;
y = 68;
}
);
}
);
lib = {
};
name = o;
unicodes = (
);
width = 578;
};
};
};
},
{
glyphname = p;
lastChange = "2016-12-19 14:59:05 +0000";
layers = (
{
anchors = (
{
name = top;
position = "{270, 650}";
}
);
layerId = "1A646CEF-9FB5-4F4A-951A-F8B2030A9B85";
name = Light;
paths = (
{
closed = 1;
nodes = (
"115 73 CURVE",
"115 458 LINE",
"168 485 OFFCURVE",
"231 515 OFFCURVE",
"310 515 CURVE SMOOTH",
"395 515 OFFCURVE",
"478 442 OFFCURVE",
"478 268 CURVE SMOOTH",
"478 82 OFFCURVE",
"409 16 OFFCURVE",
"310 16 CURVE SMOOTH",
"244 16 OFFCURVE",
"177 39 OFFCURVE"
);
},
{
closed = 1;
nodes = (
"91 -268 LINE",
"115 -268 LINE",
"115 57 LINE",
"174 21 OFFCURVE",
"245 -6 OFFCURVE",
"310 -6 CURVE SMOOTH",
"433 -6 OFFCURVE",
"502 82 OFFCURVE",
"502 268 CURVE SMOOTH",
"502 390 OFFCURVE",
"455 537 OFFCURVE",
"310 537 CURVE SMOOTH",
"242 537 OFFCURVE",
"149 496 OFFCURVE",
"115 474 CURVE",
"107 531 LINE",
"91 531 LINE"
);
}
);
width = 572;
}
);
unicode = 0070;
userData = {
com.fontlab.hintData = {
hhints = (
{
position = "-8";
width = 24;
},
{
position = 513;
width = 24;
}
);
vhints = (
{
position = 81;
width = 24;
},
{
position = 81;
width = 13;
},
{
position = 461;
width = 24;
}
);
};
com.typemytype.robofont.layerData = {
background = {
anchors = (
);
components = (
);
contours = (
{
points = (
{
segmentType = line;
smooth = 0;
x = 105;
y = 46;
},
{
smooth = 0;
x = 174;
y = 28;
},
{
smooth = 0;
x = 223;
y = 16;
},
{
segmentType = curve;
smooth = 1;
x = 300;
y = 16;
},
{
smooth = 0;
x = 384;
y = 16;
},
{
smooth = 0;
x = 461;
y = 63;
},
{
segmentType = curve;
smooth = 1;
x = 461;
y = 268;
},
{
smooth = 0;
x = 461;
y = 442;
},
{
smooth = 0;
x = 385;
y = 513;
},
{
segmentType = curve;
smooth = 1;
x = 300;
y = 513;
},
{
smooth = 0;
x = 221;
y = 513;
},
{
smooth = 0;
x = 158;
y = 485;
},
{
segmentType = curve;
smooth = 0;
x = 105;
y = 458;
}
);
},
{
points = (
{
segmentType = line;
smooth = 0;
x = 81;
y = "-268";
},
{
segmentType = line;
smooth = 0;
x = 81;
y = 531;
},
{
segmentType = line;
smooth = 0;
x = 94;
y = 531;
},
{
segmentType = line;
smooth = 0;
x = 105;
y = 472;
},
{
smooth = 0;
x = 131;
y = 496;
},
{
smooth = 0;
x = 232;
y = 537;
},
{
segmentType = curve;
smooth = 1;
x = 300;
y = 537;
},
{
smooth = 0;
x = 445;
y = 537;
},
{
smooth = 0;
x = 485;
y = 390;
},
{
segmentType = curve;
smooth = 1;
x = 485;
y = 268;
},
{
smooth = 0;
x = 485;
y = 132;
},
{
smooth = 0;
x = 451;
y = "-8";
},
{
segmentType = curve;
smooth = 1;
x = 300;
y = "-8";
},
{
smooth = 0;
x = 255;
y = "-8";
},
{
smooth = 0;
x = 168;
y = 6;
},
{
segmentType = curve;
smooth = 0;
x = 104;
y = 32;
},
{
segmentType = line;
smooth = 0;
x = 104;
y = "-268";
}
);
}
);
lib = {
};
name = p;
unicodes = (
);
width = 572;
};
};
};
},
{
glyphname = q;
lastChange = "2016-12-19 14:59:05 +0000";
layers = (
{
layerId = "1A646CEF-9FB5-4F4A-951A-F8B2030A9B85";
name = Light;
paths = (
{
closed = 1;
nodes = (
"94 268 CURVE SMOOTH",
"94 405 OFFCURVE",
"134 515 OFFCURVE",
"262 515 CURVE SMOOTH",
"457 515 LINE",
"457 73 LINE",
"389 36 OFFCURVE",
"328 16 OFFCURVE",
"254 16 CURVE SMOOTH",
"140 16 OFFCURVE",
"94 97 OFFCURVE"
);
},
{
closed = 1;
nodes = (
"70 268 CURVE SMOOTH",
"70 90 OFFCURVE",
"120 -6 OFFCURVE",
"254 -6 CURVE SMOOTH",
"321 -6 OFFCURVE",
"395 18 OFFCURVE",
"457 57 CURVE",
"457 -270 LINE",
"481 -270 LINE",
"481 529 LINE",
"432 533 OFFCURVE",
"360 537 OFFCURVE",
"265 537 CURVE SMOOTH",
"129 537 OFFCURVE",
"70 436 OFFCURVE"
);
}
);
width = 568;
}
);
unicode = 0071;
userData = {
com.fontlab.hintData = {
hhints = (
{
position = "-10";
width = 24;
},
{
position = 513;
width = 24;
}
);
vhints = (
{
position = 68;
width = 24;
},
{
position = 454;
width = 24;
}
);
};
com.typemytype.robofont.layerData = {
background = {
anchors = (
);
components = (
{
baseGlyph = d;
transformation = (
1,
0,
0,
1,
0,
0
);
}
);
contours = (
{
points = (
{
segmentType = curve;
smooth = 1;
x = 92;
y = 268;
},
{
smooth = 0;
x = 92;
y = 107;
},
{
smooth = 0;
x = 128;
y = 14;
},
{
segmentType = curve;
smooth = 1;
x = 252;
y = 14;
},
{
smooth = 0;
x = 326;
y = 14;
},
{
smooth = 0;
x = 371;
y = 24;
},
{
segmentType = curve;
smooth = 0;
x = 454;
y = 45;
},
{
segmentType = line;
smooth = 0;
x = 454;
y = 513;
},
{
segmentType = line;
smooth = 1;
x = 252;
y = 513;
},
{
smooth = 0;
x = 132;
y = 513;
},
{
smooth = 0;
x = 92;
y = 405;
}
);
},
{
points = (
{
segmentType = curve;
smooth = 1;
x = 68;
y = 268;
},
{
smooth = 0;
x = 68;
y = 436;
},
{
smooth = 0;
x = 127;
y = 537;
},
{
segmentType = curve;
smooth = 1;
x = 252;
y = 537;
},
{
smooth = 0;
x = 358;
y = 537;
},
{
smooth = 0;
x = 429;
y = 533;
},
{
segmentType = curve;
smooth = 0;
x = 478;
y = 525;
},
{
segmentType = line;
smooth = 0;
x = 478;
y = "-270";
},
{
segmentType = line;
smooth = 0;
x = 454;
y = "-270";
},
{
segmentType = line;
smooth = 0;
x = 454;
y = 29;
},
{
smooth = 0;
x = 390;
y = 3;
},
{
smooth = 0;
x = 297;
y = "-10";
},
{
segmentType = curve;
smooth = 1;
x = 252;
y = "-10";
},
{
smooth = 0;
x = 99;
y = "-10";
},
{
smooth = 0;
x = 68;
y = 110;
}
);
}
);
lib = {
};
name = q;
unicodes = (
);
width = 568;
};
};
};
},
{
glyphname = r;
lastChange = "2016-12-19 14:59:05 +0000";
layers = (
{
anchors = (
{
name = bottom;
position = "{103, -150}";
},
{
name = top;
position = "{200, 650}";
}
);
layerId = "1A646CEF-9FB5-4F4A-951A-F8B2030A9B85";
name = Light;
paths = (
{
closed = 1;
nodes = (
"91 0 LINE",
"115 0 LINE",
"115 414 LINE",
"187 478 OFFCURVE",
"238 513 OFFCURVE",
"323 513 CURVE SMOOTH",
"344 513 OFFCURVE",
"362 510 OFFCURVE",
"377 507 CURVE",
"377 531 LINE",
"363 535 OFFCURVE",
"344 537 OFFCURVE",
"323 537 CURVE SMOOTH",
"237 537 OFFCURVE",
"171 493 OFFCURVE",
"115 430 CURVE",
"107 531 LINE",
"91 531 LINE"
);
}
);
width = 404;
}
);
unicode = 0072;
userData = {
com.fontlab.hintData = {
hhints = (
{
position = 0;
width = 21;
},
{
position = 513;
width = 24;
}
);
vhints = (
{
position = 81;
width = 24;
},
{
position = 81;
width = 12;
}
);
};
com.typemytype.robofont.layerData = {
background = {
anchors = (
);
components = (
);
contours = (
{
points = (
{
segmentType = line;
smooth = 0;
x = 91;
y = 0;
},
{
segmentType = line;
smooth = 0;
x = 91;
y = 531;
},
{
segmentType = line;
smooth = 0;
x = 103;
y = 531;
},
{
segmentType = line;
smooth = 0;
x = 115;
y = 464;
},
{
smooth = 0;
x = 176;
y = 499;
},
{
smooth = 0;
x = 243;
y = 537;
},
{
segmentType = curve;
smooth = 1;
x = 333;
y = 537;
},
{
smooth = 0;
x = 362;
y = 537;
},
{
smooth = 0;
x = 387;
y = 536;
},
{
segmentType = curve;
smooth = 0;
x = 407;
y = 529;
},
{
segmentType = line;
smooth = 0;
x = 407;
y = 506;
},
{
smooth = 0;
x = 383;
y = 511;
},
{
smooth = 0;
x = 362;
y = 513;
},
{
segmentType = curve;
smooth = 1;
x = 333;
y = 513;
},
{
smooth = 0;
x = 244;
y = 513;
},
{
smooth = 0;
x = 192;
y = 481;
},
{
segmentType = curve;
smooth = 0;
x = 115;
y = 444;
},
{
segmentType = line;
smooth = 0;
x = 115;
y = 0;
}
);
}
);
lib = {
};
name = r;
unicodes = (
);
width = 404;
};
};
};
},
{
glyphname = s;
lastChange = "2016-12-19 14:59:05 +0000";
layers = (
{
anchors = (
{
name = bottom;
position = "{235, -150}";
},
{
name = top;
position = "{235, 650}";
}
);
layerId = "1A646CEF-9FB5-4F4A-951A-F8B2030A9B85";
name = Light;
paths = (
{
closed = 1;
nodes = (
"60 373 LINE SMOOTH",
"60 279 OFFCURVE",
"120 252 OFFCURVE",
"218 252 CURVE SMOOTH",
"286 252 LINE SMOOTH",
"371 252 OFFCURVE",
"412 215 OFFCURVE",
"412 152 CURVE SMOOTH",
"412 123 LINE SMOOTH",
"412 27 OFFCURVE",
"349 16 OFFCURVE",
"266 16 CURVE SMOOTH",
"62 16 LINE",
"62 0 LINE",
"90 -2 OFFCURVE",
"225 -6 OFFCURVE",
"266 -6 CURVE SMOOTH",
"358 -6 OFFCURVE",
"436 16 OFFCURVE",
"436 123 CURVE SMOOTH",
"436 152 LINE SMOOTH",
"436 234 OFFCURVE",
"374 276 OFFCURVE",
"286 276 CURVE SMOOTH",
"218 276 LINE SMOOTH",
"139 276 OFFCURVE",
"84 288 OFFCURVE",
"84 373 CURVE SMOOTH",
"84 399 LINE SMOOTH",
"84 488 OFFCURVE",
"135 513 OFFCURVE",
"226 513 CURVE SMOOTH",
"417 513 LINE",
"417 529 LINE",
"370 534 OFFCURVE",
"273 536 OFFCURVE",
"226 536 CURVE SMOOTH",
"118 536 OFFCURVE",
"60 497 OFFCURVE",
"60 399 CURVE SMOOTH"
);
}
);
width = 496;
}
);
unicode = 0073;
userData = {
com.fontlab.hintData = {
hhints = (
{
position = "-5";
width = 24;
},
{
position = 5;
width = 14;
},
{
position = 252;
width = 24;
},
{
position = 513;
width = 23;
},
{
position = 513;
width = 14;
}
);
vhints = (
{
position = 54;
width = 24;
},
{
position = 426;
width = 24;
}
);
};
com.typemytype.robofont.layerData = {
background = {
anchors = (
);
components = (
);
contours = (
{
points = (
{
segmentType = curve;
smooth = 1;
x = 40;
y = 363;
},
{
segmentType = line;
smooth = 1;
x = 40;
y = 409;
},
{
smooth = 0;
x = 40;
y = 491;
},
{
smooth = 0;
x = 75;
y = 536;
},
{
segmentType = curve;
smooth = 1;
x = 178;
y = 536;
},
{
smooth = 0;
x = 230;
y = 536;
},
{
smooth = 0;
x = 357;
y = 532;
},
{
segmentType = curve;
smooth = 0;
x = 409;
y = 527;
},
{
segmentType = line;
smooth = 0;
x = 409;
y = 513;
},
{
segmentType = line;
smooth = 1;
x = 178;
y = 513;
},
{
smooth = 0;
x = 94;
y = 513;
},
{
smooth = 0;
x = 64;
y = 481;
},
{
segmentType = curve;
smooth = 1;
x = 64;
y = 409;
},
{
segmentType = line;
smooth = 1;
x = 64;
y = 363;
},
{
smooth = 0;
x = 64;
y = 277;
},
{
smooth = 0;
x = 103;
y = 276;
},
{
segmentType = curve;
smooth = 1;
x = 178;
y = 276;
},
{
segmentType = line;
smooth = 1;
x = 306;
y = 276;
},
{
smooth = 0;
x = 382;
y = 276;
},
{
smooth = 0;
x = 436;
y = 237;
},
{
segmentType = curve;
smooth = 1;
x = 436;
y = 162;
},
{
segmentType = line;
smooth = 1;
x = 436;
y = 113;
},
{
smooth = 0;
x = 436;
y = 4;
},
{
smooth = 0;
x = 370;
y = "-5";
},
{
segmentType = curve;
smooth = 1;
x = 306;
y = "-5";
},
{
smooth = 0;
x = 257;
y = "-5";
},
{
smooth = 0;
x = 100;
y = 1;
},
{
segmentType = curve;
smooth = 0;
x = 62;
y = 5;
},
{
segmentType = line;
smooth = 0;
x = 62;
y = 19;
},
{
segmentType = line;
smooth = 1;
x = 306;
y = 19;
},
{
smooth = 0;
x = 353;
y = 19;
},
{
smooth = 0;
x = 412;
y = 20;
},
{
segmentType = curve;
smooth = 1;
x = 412;
y = 113;
},
{
segmentType = line;
smooth = 1;
x = 412;
y = 162;
},
{
smooth = 0;
x = 412;
y = 211;
},
{
smooth = 0;
x = 377;
y = 252;
},
{
segmentType = curve;
smooth = 1;
x = 306;
y = 252;
},
{
segmentType = line;
smooth = 1;
x = 178;
y = 252;
},
{
smooth = 0;
x = 84;
y = 252;
},
{
smooth = 0;
x = 40;
y = 260;
}
);
}
);
lib = {
};
name = s;
unicodes = (
);
width = 496;
};
};
};
},
{
glyphname = t;
lastChange = "2016-12-19 14:59:05 +0000";
layers = (
{
anchors = (
{
name = altcaron;
position = "{155, 650}";
},
{
name = bottom;
position = "{180, -150}";
},
{
name = top;
position = "{125, 800}";
}
);
layerId = "1A646CEF-9FB5-4F4A-951A-F8B2030A9B85";
name = Light;
paths = (
{
closed = 1;
nodes = (
"27 509 LINE",
"113 509 LINE",
"111 158 LINE SMOOTH",
"110 47 OFFCURVE",
"160 0 OFFCURVE",
"246 0 CURVE SMOOTH",
"301 0 LINE",
"301 16 LINE",
"237 22 LINE SMOOTH",
"198 26 OFFCURVE",
"135 39 OFFCURVE",
"135 158 CURVE SMOOTH",
"135 509 LINE",
"310 509 LINE",
"310 531 LINE",
"135 531 LINE",
"135 680 LINE",
"119 680 LINE",
"111 531 LINE",
"27 525 LINE"
);
}
);
width = 350;
}
);
unicode = 0074;
userData = {
com.fontlab.hintData = {
hhints = (
{
position = "-1";
width = 13;
},
{
position = 508;
width = 24;
},
{
position = 508;
width = 16;
}
);
vhints = (
{
position = 111;
width = 24;
},
{
position = 119;
width = 16;
}
);
};
com.typemytype.robofont.layerData = {
background = {
anchors = (
);
components = (
);
contours = (
{
points = (
{
segmentType = line;
smooth = 0;
x = 27;
y = 508;
},
{
segmentType = line;
smooth = 0;
x = 27;
y = 524;
},
{
segmentType = line;
smooth = 0;
x = 111;
y = 532;
},
{
segmentType = line;
smooth = 0;
x = 119;
y = 680;
},
{
segmentType = line;
smooth = 0;
x = 135;
y = 680;
},
{
segmentType = line;
smooth = 0;
x = 135;
y = 532;
},
{
segmentType = line;
smooth = 0;
x = 310;
y = 532;
},
{
segmentType = line;
smooth = 0;
x = 310;
y = 508;
},
{
segmentType = line;
smooth = 0;
x = 135;
y = 508;
},
{
segmentType = line;
smooth = 1;
x = 135;
y = 188;
},
{
smooth = 0;
x = 135;
y = 31;
},
{
smooth = 0;
x = 197;
y = 27;
},
{
segmentType = curve;
smooth = 1;
x = 227;
y = 23;
},
{
smooth = 0;
x = 227;
y = 23;
},
{
smooth = 0;
x = 294;
y = 12;
},
{
segmentType = curve;
smooth = 0;
x = 301;
y = 12;
},
{
segmentType = line;
smooth = 0;
x = 301;
y = "-1";
},
{
segmentType = line;
smooth = 1;
x = 234;
y = "-1";
},
{
smooth = 0;
x = 150;
y = "-1";
},
{
smooth = 0;
x = 111;
y = 56;
},
{
segmentType = curve;
smooth = 1;
x = 111;
y = 188;
},
{
segmentType = line;
smooth = 0;
x = 111;
y = 508;
}
);
}
);
lib = {
};
name = t;
unicodes = (
);
width = 350;
};
};
};
},
{
glyphname = u;
lastChange = "2016-12-19 14:59:05 +0000";
layers = (
{
anchors = (
{
name = bottom;
position = "{280, -150}";
},
{
name = ogonek;
position = "{485, 0}";
},
{
name = top;
position = "{280, 650}";
}
);
layerId = "1A646CEF-9FB5-4F4A-951A-F8B2030A9B85";
name = Light;
paths = (
{
closed = 1;
nodes = (
"91 159 LINE SMOOTH",
"91 39 OFFCURVE",
"149 -6 OFFCURVE",
"255 -6 CURVE SMOOTH",
"336 -6 OFFCURVE",
"413 24 OFFCURVE",
"471 62 CURVE",
"481 0 LINE",
"495 0 LINE",
"495 531 LINE",
"471 531 LINE",
"471 76 LINE",
"397 36 OFFCURVE",
"343 16 OFFCURVE",
"261 16 CURVE SMOOTH",
"166 16 OFFCURVE",
"115 47 OFFCURVE",
"115 159 CURVE SMOOTH",
"115 531 LINE",
"91 531 LINE"
);
}
);
width = 582;
}
);
unicode = 0075;
userData = {
com.fontlab.hintData = {
hhints = (
{
position = "-8";
width = 24;
},
{
position = 1;
width = 21;
},
{
position = 512;
width = 20;
}
);
vhints = (
{
position = 68;
width = 24;
},
{
position = 448;
width = 24;
},
{
position = 458;
width = 14;
}
);
};
com.typemytype.robofont.layerData = {
background = {
anchors = (
);
components = (
{
baseGlyph = n;
transformation = (
"-1",
0,
0,
"-1",
586,
531
);
}
);
contours = (
{
points = (
{
segmentType = curve;
smooth = 1;
x = 591;
y = 162;
},
{
segmentType = line;
smooth = 0;
x = 591;
y = 532;
},
{
segmentType = line;
smooth = 0;
x = 615;
y = 532;
},
{
segmentType = line;
smooth = 1;
x = 615;
y = 162;
},
{
smooth = 0;
x = 615;
y = 83;
},
{
smooth = 0;
x = 666;
y = 16;
},
{
segmentType = curve;
smooth = 1;
x = 755;
y = 16;
},
{
smooth = 0;
x = 843;
y = 16;
},
{
smooth = 0;
x = 897;
y = 37;
},
{
segmentType = curve;
smooth = 0;
x = 971;
y = 77;
},
{
segmentType = line;
smooth = 0;
x = 971;
y = 532;
},
{
segmentType = line;
smooth = 0;
x = 995;
y = 532;
},
{
segmentType = line;
smooth = 0;
x = 995;
y = 1;
},
{
segmentType = line;
smooth = 0;
x = 981;
y = 1;
},
{
segmentType = line;
smooth = 0;
x = 971;
y = 63;
},
{
smooth = 0;
x = 913;
y = 25;
},
{
smooth = 0;
x = 836;
y = "-8";
},
{
segmentType = curve;
smooth = 1;
x = 755;
y = "-8";
},
{
smooth = 0;
x = 649;
y = "-8";
},
{
smooth = 0;
x = 591;
y = 74;
}
);
}
);
lib = {
};
name = u;
unicodes = (
);
width = 582;
};
};
};
},
{
glyphname = v;
lastChange = "2016-12-19 14:59:05 +0000";
layers = (
{
layerId = "1A646CEF-9FB5-4F4A-951A-F8B2030A9B85";
name = Light;
paths = (
{
closed = 1;
nodes = (
"24 531 LINE",
"242 0 LINE",
"268 0 LINE",
"490 531 LINE",
"466 531 LINE",
"255 23 LINE",
"48 531 LINE"
);
}
);
width = 514;
}
);
unicode = 0076;
userData = {
com.fontlab.hintData = {
hhints = (
{
position = 0;
width = 21;
},
{
position = 511;
width = 20;
}
);
};
com.typemytype.robofont.layerData = {
background = {
anchors = (
);
components = (
);
contours = (
{
points = (
{
segmentType = line;
smooth = 0;
x = 24;
y = 531;
},
{
segmentType = line;
smooth = 0;
x = 48;
y = 531;
},
{
segmentType = line;
smooth = 0;
x = 255;
y = 33;
},
{
segmentType = line;
smooth = 0;
x = 466;
y = 531;
},
{
segmentType = line;
smooth = 0;
x = 490;
y = 531;
},
{
segmentType = line;
smooth = 0;
x = 268;
y = 0;
},
{
segmentType = line;
smooth = 0;
x = 242;
y = 0;
}
);
}
);
lib = {
};
name = v;
unicodes = (
);
width = 514;
};
};
};
},
{
glyphname = w;
lastChange = "2016-12-19 14:59:05 +0000";
layers = (
{
anchors = (
{
name = bottom;
position = "{390, -150}";
},
{
name = top;
position = "{390, 650}";
}
);
layerId = "1A646CEF-9FB5-4F4A-951A-F8B2030A9B85";
name = Light;
paths = (
{
closed = 1;
nodes = (
"24 531 LINE",
"202 0 LINE",
"228 0 LINE",
"387 508 LINE",
"546 0 LINE",
"572 0 LINE",
"750 531 LINE",
"726 531 LINE",
"559 23 LINE",
"400 531 LINE",
"374 531 LINE",
"215 23 LINE",
"48 531 LINE"
);
}
);
width = 774;
}
);
unicode = 0077;
userData = {
com.fontlab.hintData = {
hhints = (
{
position = 0;
width = 21;
},
{
position = 511;
width = 20;
}
);
};
com.typemytype.robofont.layerData = {
background = {
anchors = (
);
components = (
{
baseGlyph = v;
transformation = (
1,
0,
0,
1,
0,
0
);
},
{
baseGlyph = v;
transformation = (
1,
0,
0,
1,
260,
0
);
}
);
contours = (
{
points = (
{
segmentType = line;
smooth = 0;
x = 27;
y = 531;
},
{
segmentType = line;
smooth = 0;
x = 52;
y = 531;
},
{
segmentType = line;
smooth = 0;
x = 248;
y = 30;
},
{
segmentType = line;
smooth = 0;
x = 439;
y = 531;
},
{
segmentType = line;
smooth = 0;
x = 463;
y = 531;
},
{
segmentType = line;
smooth = 0;
x = 389;
y = 332;
},
{
segmentType = line;
smooth = 0;
x = 525;
y = 30;
},
{
segmentType = line;
smooth = 0;
x = 727;
y = 531;
},
{
segmentType = line;
smooth = 0;
x = 750;
y = 531;
},
{
segmentType = line;
smooth = 0;
x = 538;
y = 0;
},
{
segmentType = line;
smooth = 0;
x = 512;
y = 0;
},
{
segmentType = line;
smooth = 0;
x = 377;
y = 304;
},
{
segmentType = line;
smooth = 0;
x = 261;
y = 0;
},
{
segmentType = line;
smooth = 0;
x = 235;
y = 0;
}
);
}
);
lib = {
};
name = w;
unicodes = (
);
width = 774;
};
};
};
},
{
glyphname = x;
lastChange = "2016-12-19 14:59:05 +0000";
layers = (
{
layerId = "1A646CEF-9FB5-4F4A-951A-F8B2030A9B85";
name = Light;
paths = (
{
closed = 1;
nodes = (
"32 0 LINE",
"59 0 LINE",
"240 249 LINE",
"226 268 LINE"
);
},
{
closed = 1;
nodes = (
"241 282 LINE",
"253 261 LINE",
"448 531 LINE",
"420 530 LINE"
);
},
{
closed = 1;
nodes = (
"32 531 LINE",
"419 0 LINE",
"448 0 LINE",
"61 531 LINE"
);
}
);
width = 480;
}
);
unicode = 0078;
userData = {
com.fontlab.hintData = {
hhints = (
{
position = 0;
width = 21;
},
{
position = 511;
width = 20;
}
);
};
com.typemytype.robofont.layerData = {
background = {
anchors = (
);
components = (
);
contours = (
{
points = (
{
segmentType = line;
smooth = 0;
x = 32;
y = 0;
},
{
segmentType = line;
smooth = 0;
x = 224;
y = 266;
},
{
segmentType = line;
smooth = 0;
x = 32;
y = 531;
},
{
segmentType = line;
smooth = 0;
x = 64;
y = 531;
},
{
segmentType = line;
smooth = 0;
x = 240;
y = 288;
},
{
segmentType = line;
smooth = 0;
x = 416;
y = 531;
},
{
segmentType = line;
smooth = 0;
x = 448;
y = 531;
},
{
segmentType = line;
smooth = 0;
x = 256;
y = 266;
},
{
segmentType = line;
smooth = 0;
x = 448;
y = 0;
},
{
segmentType = line;
smooth = 0;
x = 416;
y = 0;
},
{
segmentType = line;
smooth = 0;
x = 240;
y = 243;
},
{
segmentType = line;
smooth = 0;
x = 64;
y = 0;
}
);
}
);
lib = {
};
name = x;
unicodes = (
);
width = 480;
};
};
};
},
{
glyphname = y;
lastChange = "2016-12-19 14:59:05 +0000";
layers = (
{
anchors = (
{
name = bottom;
position = "{410, -150}";
},
{
name = top;
position = "{260, 650}";
}
);
layerId = "1A646CEF-9FB5-4F4A-951A-F8B2030A9B85";
name = Light;
paths = (
{
closed = 1;
nodes = (
"24 531 LINE",
"174 110 LINE SMOOTH",
"209 10 OFFCURVE",
"270 1 OFFCURVE",
"291 0 CURVE",
"204 -270 LINE",
"216 -270 LINE",
"262 -168 LINE",
"495 531 LINE",
"470 531 LINE",
"299 25 LINE",
"299 25 OFFCURVE",
"235 13 OFFCURVE",
"198 116 CURVE SMOOTH",
"50 531 LINE"
);
}
);
width = 519;
}
);
unicode = 0079;
userData = {
com.fontlab.hintData = {
hhints = (
{
position = 0;
width = 25;
},
{
position = 511;
width = 20;
}
);
};
com.typemytype.robofont.layerData = {
background = {
anchors = (
);
components = (
);
contours = (
{
points = (
{
segmentType = line;
smooth = 0;
x = 24;
y = 531;
},
{
segmentType = line;
smooth = 0;
x = 50;
y = 531;
},
{
segmentType = line;
smooth = 1;
x = 198;
y = 116;
},
{
smooth = 0;
x = 235;
y = 13;
},
{
smooth = 0;
x = 299;
y = 25;
},
{
segmentType = curve;
smooth = 0;
x = 299;
y = 25;
},
{
segmentType = line;
smooth = 0;
x = 470;
y = 531;
},
{
segmentType = line;
smooth = 0;
x = 495;
y = 531;
},
{
segmentType = line;
smooth = 0;
x = 262;
y = "-168";
},
{
segmentType = line;
smooth = 0;
x = 216;
y = "-270";
},
{
segmentType = line;
smooth = 0;
x = 204;
y = "-270";
},
{
segmentType = line;
smooth = 0;
x = 291;
y = 0;
},
{
smooth = 0;
x = 270;
y = 1;
},
{
smooth = 0;
x = 205;
y = 9;
},
{
segmentType = curve;
smooth = 0;
x = 174;
y = 110;
}
);
}
);
lib = {
};
name = y;
unicodes = (
);
width = 519;
};
};
};
},
{
glyphname = z;
lastChange = "2016-12-19 14:59:05 +0000";
layers = (
{
anchors = (
{
name = bottom;
position = "{230, -150}";
},
{
name = top;
position = "{230, 650}";
}
);
layerId = "1A646CEF-9FB5-4F4A-951A-F8B2030A9B85";
name = Light;
paths = (
{
closed = 1;
nodes = (
"50 509 LINE",
"407 509 LINE",
"56 22 LINE",
"56 0 LINE",
"436 0 LINE",
"436 22 LINE",
"83 22 LINE",
"436 509 LINE",
"436 531 LINE",
"50 531 LINE"
);
}
);
width = 486;
}
);
unicode = 007A;
userData = {
com.fontlab.hintData = {
hhints = (
{
position = 1;
width = 24;
},
{
position = 507;
width = 24;
}
);
};
com.typemytype.robofont.layerData = {
background = {
anchors = (
);
components = (
);
contours = (
{
points = (
{
segmentType = line;
smooth = 0;
x = 40;
y = 507;
},
{
segmentType = line;
smooth = 0;
x = 40;
y = 531;
},
{
segmentType = line;
smooth = 0;
x = 436;
y = 531;
},
{
segmentType = line;
smooth = 0;
x = 436;
y = 507;
},
{
segmentType = line;
smooth = 0;
x = 86;
y = 25;
},
{
segmentType = line;
smooth = 0;
x = 436;
y = 25;
},
{
smooth = 0;
x = 437;
y = 24;
},
{
smooth = 0;
x = 436;
y = 1;
},
{
segmentType = curve;
smooth = 0;
x = 436;
y = 1;
},
{
segmentType = line;
smooth = 0;
x = 56;
y = 1;
},
{
segmentType = line;
smooth = 0;
x = 56;
y = 25;
},
{
segmentType = line;
smooth = 0;
x = 404;
y = 507;
}
);
}
);
lib = {
};
name = z;
unicodes = (
);
width = 486;
};
};
};
},
{
glyphname = AE;
lastChange = "2016-12-19 14:59:05 +0000";
layers = (
{
anchors = (
{
name = top;
position = "{528, 810}";
}
);
layerId = "1A646CEF-9FB5-4F4A-951A-F8B2030A9B85";
name = Light;
paths = (
{
closed = 1;
nodes = (
"246 275 LINE",
"488 657 LINE",
"488 275 LINE"
);
},
{
closed = 1;
nodes = (
"48 0 LINE",
"74 0 LINE",
"233 253 LINE",
"488 253 LINE",
"488 121 LINE SMOOTH",
"488 28 OFFCURVE",
"540 -5 OFFCURVE",
"624 -3 CURVE SMOOTH",
"882 3 LINE",
"882 19 LINE",
"624 19 LINE SMOOTH",
"549 19 OFFCURVE",
"512 51 OFFCURVE",
"512 123 CURVE SMOOTH",
"512 352 LINE",
"842 355 LINE",
"842 371 LINE",
"512 374 LINE",
"512 635 LINE SMOOTH",
"512 687 OFFCURVE",
"533 710 OFFCURVE",
"594 710 CURVE SMOOTH",
"882 710 LINE",
"882 726 LINE",
"600 732 LINE SMOOTH",
"523 734 OFFCURVE",
"482 695 OFFCURVE",
"449 643 CURVE SMOOTH"
);
}
);
width = 950;
}
);
unicode = 00C6;
userData = {
com.fontlab.hintData = {
hhints = (
{
position = "-3";
width = 24;
},
{
position = 7;
width = 14;
},
{
position = 252;
width = 24;
},
{
position = 351;
width = 24;
},
{
position = 708;
width = 24;
},
{
position = 708;
width = 14;
}
);
vhints = (
{
position = 488;
width = 24;
}
);
};
com.typemytype.robofont.layerData = {
background = {
anchors = (
);
components = (
{
baseGlyph = A;
transformation = (
1,
0,
0,
1,
0,
0
);
},
{
baseGlyph = E;
transformation = (
1,
0,
0,
1,
371,
0
);
}
);
contours = (
{
points = (
{
segmentType = line;
smooth = 0;
x = 246;
y = 276;
},
{
segmentType = line;
smooth = 0;
x = 488;
y = 276;
},
{
segmentType = line;
smooth = 0;
x = 488;
y = 657;
}
);
},
{
points = (
{
segmentType = line;
smooth = 0;
x = 40;
y = 0;
},
{
segmentType = line;
smooth = 1;
x = 416;
y = 590;
},
{
smooth = 0;
x = 479;
y = 689;
},
{
smooth = 0;
x = 504;
y = 737;
},
{
segmentType = curve;
smooth = 1;
x = 614;
y = 732;
},
{
segmentType = line;
smooth = 0;
x = 882;
y = 722;
},
{
segmentType = line;
smooth = 0;
x = 882;
y = 708;
},
{
segmentType = line;
smooth = 1;
x = 614;
y = 708;
},
{
smooth = 0;
x = 498;
y = 708;
},
{
smooth = 0;
x = 512;
y = 667;
},
{
segmentType = curve;
smooth = 1;
x = 512;
y = 592;
},
{
segmentType = line;
smooth = 0;
x = 512;
y = 375;
},
{
segmentType = line;
smooth = 0;
x = 842;
y = 370;
},
{
segmentType = line;
smooth = 0;
x = 842;
y = 356;
},
{
segmentType = line;
smooth = 0;
x = 512;
y = 351;
},
{
segmentType = line;
smooth = 1;
x = 512;
y = 123;
},
{
smooth = 0;
x = 512;
y = 31;
},
{
smooth = 0;
x = 569;
y = 21;
},
{
segmentType = curve;
smooth = 1;
x = 624;
y = 21;
},
{
segmentType = line;
smooth = 0;
x = 882;
y = 21;
},
{
segmentType = line;
smooth = 0;
x = 882;
y = 7;
},
{
segmentType = line;
smooth = 1;
x = 624;
y = "-3";
},
{
smooth = 0;
x = 560;
y = "-5";
},
{
smooth = 0;
x = 488;
y = 8;
},
{
segmentType = curve;
smooth = 1;
x = 488;
y = 121;
},
{
segmentType = line;
smooth = 0;
x = 488;
y = 252;
},
{
segmentType = line;
smooth = 0;
x = 230;
y = 252;
},
{
segmentType = line;
smooth = 0;
x = 70;
y = 0;
}
);
}
);
lib = {
};
name = AE;
unicodes = (
);
width = 950;
};
};
};
},
{
glyphname = ae;
lastChange = "2016-12-19 14:59:05 +0000";
layers = (
{
anchors = (
{
name = top;
position = "{448, 650}";
}
);
layerId = "1A646CEF-9FB5-4F4A-951A-F8B2030A9B85";
name = Light;
paths = (
{
closed = 1;
nodes = (
"453 290 LINE",
"455 477 OFFCURVE",
"495 515 OFFCURVE",
"633 515 CURVE SMOOTH",
"770 515 OFFCURVE",
"811 473 OFFCURVE",
"811 369 CURVE SMOOTH",
"811 295 OFFCURVE",
"761 290 OFFCURVE",
"698 290 CURVE SMOOTH"
);
},
{
closed = 1;
nodes = (
"78 131 CURVE SMOOTH",
"78 155 LINE SMOOTH",
"78 218 OFFCURVE",
"112 268 OFFCURVE",
"207 268 CURVE SMOOTH",
"429 268 LINE",
"430 206 OFFCURVE",
"439 163 OFFCURVE",
"444 139 CURVE",
"373 62 OFFCURVE",
"277 18 OFFCURVE",
"187 18 CURVE SMOOTH",
"130 18 OFFCURVE",
"78 46 OFFCURVE"
);
},
{
closed = 1;
nodes = (
"54 130 LINE SMOOTH",
"54 41 OFFCURVE",
"104 -6 OFFCURVE",
"187 -6 CURVE SMOOTH",
"295 -6 OFFCURVE",
"392 52 OFFCURVE",
"450 118 CURVE",
"477 61 OFFCURVE",
"518 -6 OFFCURVE",
"646 -6 CURVE SMOOTH",
"695 -6 OFFCURVE",
"765 -4 OFFCURVE",
"823 0 CURVE",
"823 16 LINE",
"646 16 LINE SMOOTH",
"540 16 OFFCURVE",
"451 62 OFFCURVE",
"453 268 CURVE",
"698 268 LINE SMOOTH",
"784 268 OFFCURVE",
"835 287 OFFCURVE",
"835 369 CURVE SMOOTH",
"835 497 OFFCURVE",
"766 537 OFFCURVE",
"632 537 CURVE SMOOTH",
"541 537 OFFCURVE",
"471 515 OFFCURVE",
"448 427 CURVE",
"429 508 OFFCURVE",
"359 542 OFFCURVE",
"280 541 CURVE SMOOTH",
"190 540 OFFCURVE",
"148 538 OFFCURVE",
"104 535 CURVE",
"104 519 LINE",
"279 519 LINE SMOOTH",
"396 519 OFFCURVE",
"429 456 OFFCURVE",
"429 387 CURVE SMOOTH",
"429 290 LINE",
"207 290 LINE SMOOTH",
"113 290 OFFCURVE",
"54 241 OFFCURVE",
"54 155 CURVE SMOOTH"
);
}
);
width = 905;
}
);
unicode = 00E6;
userData = {
com.fontlab.hintData = {
hhints = (
{
position = "-6";
width = 24;
},
{
position = 262;
width = 23;
},
{
position = 510;
width = 24;
},
{
position = 519;
width = 22;
}
);
vhints = (
{
position = 54;
width = 24;
},
{
position = 429;
width = 25;
},
{
position = 811;
width = 24;
}
);
};
com.typemytype.robofont.layerData = {
background = {
anchors = (
);
components = (
{
baseGlyph = a;
transformation = (
1,
0,
0,
1,
0,
0
);
},
{
baseGlyph = e;
transformation = (
1,
0,
0,
1,
359,
0
);
}
);
contours = (
);
lib = {
};
name = ae;
unicodes = (
);
width = 905;
};
};
};
},
{
glyphname = dcroat;
lastChange = "2016-12-19 14:59:05 +0000";
layers = (
{
components = (
{
name = d;
transform = "{1, 0, 0, 1, 0, 0}";
}
);
layerId = "1A646CEF-9FB5-4F4A-951A-F8B2030A9B85";
name = Light;
paths = (
{
closed = 1;
nodes = (
"300 640 LINE",
"558 640 LINE",
"558 656 LINE",
"300 656 LINE"
);
}
);
width = 568;
}
);
unicode = 0111;
userData = {
com.fontlab.hintData = {
hhints = (
{
position = "-6";
width = 24;
},
{
position = 515;
width = 24;
},
{
position = 641;
width = 14;
},
{
position = 765;
width = 20;
}
);
vhints = (
{
position = 68;
width = 24;
},
{
position = 450;
width = 22;
},
{
position = 459;
width = 13;
}
);
};
com.typemytype.robofont.layerData = {
background = {
anchors = (
);
components = (
);
contours = (
{
points = (
{
segmentType = curve;
smooth = 1;
x = 92;
y = 263;
},
{
smooth = 0;
x = 92;
y = 89;
},
{
smooth = 0;
x = 168;
y = 18;
},
{
segmentType = curve;
smooth = 1;
x = 253;
y = 18;
},
{
smooth = 0;
x = 332;
y = 18;
},
{
smooth = 0;
x = 396;
y = 46;
},
{
segmentType = curve;
smooth = 0;
x = 449;
y = 73;
},
{
segmentType = line;
smooth = 0;
x = 449;
y = 485;
},
{
smooth = 0;
x = 380;
y = 503;
},
{
smooth = 0;
x = 330;
y = 515;
},
{
segmentType = curve;
smooth = 1;
x = 253;
y = 515;
},
{
smooth = 0;
x = 169;
y = 515;
},
{
smooth = 0;
x = 92;
y = 468;
}
);
},
{
points = (
{
segmentType = curve;
smooth = 1;
x = 68;
y = 263;
},
{
smooth = 0;
x = 68;
y = 399;
},
{
smooth = 0;
x = 102;
y = 539;
},
{
segmentType = curve;
smooth = 1;
x = 253;
y = 539;
},
{
smooth = 0;
x = 298;
y = 539;
},
{
smooth = 0;
x = 386;
y = 525;
},
{
segmentType = curve;
smooth = 0;
x = 450;
y = 499;
},
{
segmentType = line;
smooth = 0;
x = 450;
y = 641;
},
{
segmentType = line;
smooth = 0;
x = 318;
y = 641;
},
{
segmentType = line;
smooth = 0;
x = 318;
y = 655;
},
{
segmentType = line;
smooth = 0;
x = 450;
y = 655;
},
{
segmentType = line;
smooth = 0;
x = 450;
y = 785;
},
{
segmentType = line;
smooth = 0;
x = 472;
y = 785;
},
{
segmentType = line;
smooth = 0;
x = 472;
y = 655;
},
{
segmentType = line;
smooth = 0;
x = 555;
y = 655;
},
{
segmentType = line;
smooth = 0;
x = 555;
y = 641;
},
{
segmentType = line;
smooth = 0;
x = 472;
y = 641;
},
{
segmentType = line;
smooth = 0;
x = 472;
y = 0;
},
{
segmentType = line;
smooth = 0;
x = 459;
y = 0;
},
{
segmentType = line;
smooth = 0;
x = 449;
y = 59;
},
{
smooth = 0;
x = 423;
y = 35;
},
{
smooth = 0;
x = 321;
y = "-6";
},
{
segmentType = curve;
smooth = 1;
x = 253;
y = "-6";
},
{
smooth = 0;
x = 108;
y = "-6";
},
{
smooth = 0;
x = 68;
y = 141;
}
);
}
);
lib = {
};
name = dcroat;
unicodes = (
);
width = 568;
};
};
};
},
{
glyphname = Eth;
lastChange = "2016-12-19 14:59:05 +0000";
layers = (
{
components = (
{
name = D;
transform = "{1, 0, 0, 1, 0, 0}";
}
);
layerId = "1A646CEF-9FB5-4F4A-951A-F8B2030A9B85";
name = Light;
paths = (
{
closed = 1;
nodes = (
"17 361 LINE",
"321 361 LINE",
"321 383 LINE",
"17 383 LINE"
);
}
);
width = 660;
}
);
unicode = 00D0;
userData = {
com.fontlab.hintData = {
hhints = (
{
position = 0;
width = 24;
},
{
position = 366;
width = 14;
},
{
position = 708;
width = 24;
}
);
vhints = (
{
position = 108;
width = 24;
},
{
position = 586;
width = 24;
}
);
};
com.typemytype.robofont.layerData = {
background = {
anchors = (
);
components = (
);
contours = (
{
points = (
{
segmentType = line;
smooth = 0;
x = 132;
y = 24;
},
{
segmentType = line;
smooth = 1;
x = 351;
y = 24;
},
{
smooth = 0;
x = 518;
y = 24;
},
{
smooth = 0;
x = 586;
y = 216;
},
{
segmentType = curve;
smooth = 1;
x = 586;
y = 364;
},
{
smooth = 0;
x = 586;
y = 600;
},
{
smooth = 0;
x = 499;
y = 708;
},
{
segmentType = curve;
smooth = 1;
x = 351;
y = 708;
},
{
segmentType = line;
smooth = 0;
x = 132;
y = 708;
},
{
segmentType = line;
smooth = 0;
x = 132;
y = 380;
},
{
segmentType = line;
smooth = 0;
x = 291;
y = 380;
},
{
segmentType = line;
smooth = 0;
x = 291;
y = 366;
},
{
segmentType = line;
smooth = 0;
x = 132;
y = 366;
}
);
},
{
points = (
{
segmentType = line;
smooth = 0;
x = 43;
y = 366;
},
{
segmentType = line;
smooth = 0;
x = 43;
y = 380;
},
{
segmentType = line;
smooth = 0;
x = 108;
y = 380;
},
{
segmentType = line;
smooth = 0;
x = 108;
y = 732;
},
{
segmentType = line;
smooth = 1;
x = 351;
y = 732;
},
{
smooth = 0;
x = 577;
y = 732;
},
{
smooth = 0;
x = 610;
y = 513;
},
{
segmentType = curve;
smooth = 1;
x = 610;
y = 363;
},
{
smooth = 0;
x = 610;
y = 197;
},
{
smooth = 0;
x = 536;
y = 0;
},
{
segmentType = curve;
smooth = 1;
x = 351;
y = 0;
},
{
segmentType = line;
smooth = 0;
x = 108;
y = 0;
},
{
segmentType = line;
smooth = 0;
x = 108;
y = 366;
}
);
}
);
lib = {
};
name = Eth;
unicodes = (
);
width = 660;
};
};
};
},
{
glyphname = eth;
lastChange = "2016-12-19 14:59:05 +0000";
layers = (
{
components = (
{
name = o;
transform = "{1, 0, 0, 1, 0, 0}";
}
);
layerId = "1A646CEF-9FB5-4F4A-951A-F8B2030A9B85";
name = Light;
paths = (
{
closed = 1;
nodes = (
"508 264 LINE",
"508 648 OFFCURVE",
"358 780 OFFCURVE",
"164 783 CURVE",
"164 761 LINE",
"352 757 OFFCURVE",
"484 633 OFFCURVE",
"484 264 CURVE"
);
},
{
closed = 1;
nodes = (
"200 634 LINE",
"205 620 LINE",
"512 741 LINE",
"506 755 LINE"
);
}
);
width = 578;
}
);
unicode = 00F0;
userData = {
com.fontlab.hintData = {
hhints = (
{
position = 0;
width = 26;
},
{
position = 507;
width = 24;
},
{
position = 762;
width = 21;
}
);
vhints = (
{
position = 54;
width = 24;
},
{
position = 458;
width = 24;
}
);
};
com.typemytype.robofont.layerData = {
background = {
anchors = (
);
components = (
);
contours = (
{
points = (
{
segmentType = curve;
smooth = 1;
x = 104;
y = 264;
},
{
smooth = 0;
x = 104;
y = 63;
},
{
smooth = 0;
x = 161;
y = 26;
},
{
segmentType = curve;
smooth = 1;
x = 258;
y = 26;
},
{
segmentType = line;
smooth = 1;
x = 328;
y = 26;
},
{
smooth = 0;
x = 454;
y = 26;
},
{
smooth = 0;
x = 484;
y = 133;
},
{
segmentType = curve;
smooth = 1;
x = 484;
y = 264;
},
{
smooth = 0;
x = 484;
y = 374;
},
{
smooth = 0;
x = 471;
y = 507;
},
{
segmentType = curve;
smooth = 1;
x = 328;
y = 507;
},
{
segmentType = line;
smooth = 1;
x = 258;
y = 507;
},
{
smooth = 0;
x = 169;
y = 507;
},
{
smooth = 0;
x = 104;
y = 466;
}
);
},
{
points = (
{
segmentType = curve;
smooth = 1;
x = 80;
y = 264;
},
{
smooth = 0;
x = 80;
y = 434;
},
{
smooth = 0;
x = 123;
y = 531;
},
{
segmentType = curve;
smooth = 1;
x = 258;
y = 531;
},
{
segmentType = line;
smooth = 1;
x = 328;
y = 531;
},
{
smooth = 0;
x = 415;
y = 531;
},
{
smooth = 0;
x = 459;
y = 484;
},
{
segmentType = curve;
smooth = 0;
x = 468;
y = 465;
},
{
smooth = 0;
x = 457;
y = 523;
},
{
smooth = 0;
x = 433;
y = 617;
},
{
segmentType = curve;
smooth = 0;
x = 366;
y = 684;
},
{
segmentType = line;
smooth = 0;
x = 205;
y = 620;
},
{
segmentType = line;
smooth = 0;
x = 200;
y = 634;
},
{
segmentType = line;
smooth = 0;
x = 354;
y = 695;
},
{
smooth = 0;
x = 308;
y = 734;
},
{
smooth = 0;
x = 251;
y = 761;
},
{
segmentType = curve;
smooth = 0;
x = 164;
y = 762;
},
{
segmentType = line;
smooth = 0;
x = 164;
y = 783;
},
{
smooth = 0;
x = 260;
y = 783;
},
{
smooth = 0;
x = 326;
y = 751;
},
{
segmentType = curve;
smooth = 0;
x = 378;
y = 704;
},
{
segmentType = line;
smooth = 0;
x = 506;
y = 755;
},
{
segmentType = line;
smooth = 0;
x = 512;
y = 741;
},
{
segmentType = line;
smooth = 0;
x = 390;
y = 693;
},
{
smooth = 0;
x = 487;
y = 590;
},
{
smooth = 0;
x = 508;
y = 415;
},
{
segmentType = curve;
smooth = 1;
x = 508;
y = 264;
},
{
smooth = 0;
x = 508;
y = 65;
},
{
smooth = 0;
x = 435;
y = 0;
},
{
segmentType = curve;
smooth = 1;
x = 328;
y = 0;
},
{
segmentType = line;
smooth = 1;
x = 258;
y = 0;
},
{
smooth = 0;
x = 121;
y = 0;
},
{
smooth = 0;
x = 80;
y = 85;
}
);
}
);
lib = {
};
name = eth;
unicodes = (
);
width = 578;
};
};
};
},
{
glyphname = Hbar;
lastChange = "2016-12-19 14:59:05 +0000";
layers = (
{
components = (
{
name = H;
transform = "{1, 0, 0, 1, 0, 0}";
}
);
layerId = "1A646CEF-9FB5-4F4A-951A-F8B2030A9B85";
name = Light;
paths = (
{
closed = 1;
nodes = (
"17 531 LINE",
"647 531 LINE",
"647 553 LINE",
"17 553 LINE"
);
}
);
width = 664;
}
);
unicode = 0126;
userData = {
com.fontlab.hintData = {
hhints = (
{
position = 0;
width = 21;
},
{
position = 342;
width = 24;
},
{
position = 537;
width = 15;
},
{
position = 712;
width = 20;
}
);
vhints = (
{
position = 108;
width = 24;
},
{
position = 572;
width = 24;
}
);
};
com.typemytype.robofont.layerData = {
background = {
anchors = (
);
components = (
);
contours = (
{
points = (
{
segmentType = line;
smooth = 0;
x = 132;
y = 366;
},
{
segmentType = line;
smooth = 0;
x = 572;
y = 366;
},
{
segmentType = line;
smooth = 0;
x = 572;
y = 537;
},
{
segmentType = line;
smooth = 0;
x = 132;
y = 537;
}
);
},
{
points = (
{
segmentType = line;
smooth = 0;
x = 43;
y = 537;
},
{
segmentType = line;
smooth = 0;
x = 43;
y = 552;
},
{
segmentType = line;
smooth = 0;
x = 108;
y = 552;
},
{
segmentType = line;
smooth = 0;
x = 108;
y = 732;
},
{
segmentType = line;
smooth = 0;
x = 132;
y = 732;
},
{
segmentType = line;
smooth = 0;
x = 132;
y = 552;
},
{
segmentType = line;
smooth = 0;
x = 572;
y = 552;
},
{
segmentType = line;
smooth = 0;
x = 572;
y = 732;
},
{
segmentType = line;
smooth = 0;
x = 596;
y = 732;
},
{
segmentType = line;
smooth = 0;
x = 596;
y = 552;
},
{
segmentType = line;
smooth = 0;
x = 661;
y = 552;
},
{
segmentType = line;
smooth = 0;
x = 661;
y = 537;
},
{
segmentType = line;
smooth = 0;
x = 596;
y = 537;
},
{
segmentType = line;
smooth = 0;
x = 596;
y = 0;
},
{
segmentType = line;
smooth = 0;
x = 572;
y = 0;
},
{
segmentType = line;
smooth = 0;
x = 572;
y = 342;
},
{
segmentType = line;
smooth = 0;
x = 132;
y = 342;
},
{
segmentType = line;
smooth = 0;
x = 132;
y = 0;
},
{
segmentType = line;
smooth = 0;
x = 108;
y = 0;
},
{
segmentType = line;
smooth = 0;
x = 108;
y = 537;
}
);
}
);
lib = {
};
name = Hbar;
unicodes = (
);
width = 664;
};
};
};
},
{
glyphname = hbar;
lastChange = "2016-12-19 14:59:05 +0000";
layers = (
{
components = (
{
name = h;
transform = "{1, 0, 0, 1, 0, 0}";
}
);
layerId = "1A646CEF-9FB5-4F4A-951A-F8B2030A9B85";
name = Light;
paths = (
{
closed = 1;
nodes = (
"10 640 LINE",
"268 640 LINE",
"268 656 LINE",
"10 656 LINE"
);
}
);
width = 582;
}
);
unicode = 0127;
userData = {
com.fontlab.hintData = {
hhints = (
{
position = 0;
width = 21;
},
{
position = 516;
width = 24;
},
{
position = 631;
width = 14;
},
{
position = 764;
width = 20;
}
);
vhints = (
{
position = 81;
width = 24;
},
{
position = 461;
width = 24;
}
);
};
com.typemytype.robofont.layerData = {
background = {
anchors = (
);
components = (
);
contours = (
{
points = (
{
segmentType = line;
smooth = 0;
x = 11;
y = 631;
},
{
segmentType = line;
smooth = 0;
x = 11;
y = 645;
},
{
segmentType = line;
smooth = 0;
x = 81;
y = 645;
},
{
segmentType = line;
smooth = 0;
x = 81;
y = 784;
},
{
segmentType = line;
smooth = 0;
x = 105;
y = 784;
},
{
segmentType = line;
smooth = 0;
x = 105;
y = 645;
},
{
segmentType = line;
smooth = 0;
x = 249;
y = 645;
},
{
segmentType = line;
smooth = 0;
x = 249;
y = 631;
},
{
segmentType = line;
smooth = 0;
x = 105;
y = 631;
},
{
segmentType = line;
smooth = 0;
x = 105;
y = 469;
},
{
smooth = 0;
x = 163;
y = 507;
},
{
smooth = 0;
x = 240;
y = 540;
},
{
segmentType = curve;
smooth = 1;
x = 321;
y = 540;
},
{
smooth = 0;
x = 427;
y = 540;
},
{
smooth = 0;
x = 485;
y = 458;
},
{
segmentType = curve;
smooth = 1;
x = 485;
y = 370;
},
{
segmentType = line;
smooth = 0;
x = 485;
y = 0;
},
{
segmentType = line;
smooth = 0;
x = 461;
y = 0;
},
{
segmentType = line;
smooth = 1;
x = 461;
y = 370;
},
{
smooth = 0;
x = 461;
y = 454;
},
{
smooth = 0;
x = 410;
y = 516;
},
{
segmentType = curve;
smooth = 1;
x = 321;
y = 516;
},
{
smooth = 0;
x = 233;
y = 516;
},
{
smooth = 0;
x = 179;
y = 495;
},
{
segmentType = curve;
smooth = 0;
x = 105;
y = 455;
},
{
segmentType = line;
smooth = 0;
x = 105;
y = 0;
},
{
segmentType = line;
smooth = 0;
x = 81;
y = 0;
},
{
segmentType = line;
smooth = 0;
x = 81;
y = 631;
}
);
}
);
lib = {
};
name = hbar;
unicodes = (
);
width = 582;
};
};
};
},
{
glyphname = jdotless;
lastChange = "2016-12-19 14:59:05 +0000";
layers = (
{
layerId = "1A646CEF-9FB5-4F4A-951A-F8B2030A9B85";
name = Light;
paths = (
{
closed = 1;
nodes = (
"91 -268 LINE",
"107 -268 LINE",
"110 -199 OFFCURVE",
"115 -90 OFFCURVE",
"115 27 CURVE SMOOTH",
"115 531 LINE",
"91 531 LINE"
);
}
);
width = 206;
}
);
},
{
glyphname = kgreenlandic;
lastChange = "2016-12-19 14:59:05 +0000";
layers = (
{
layerId = "1A646CEF-9FB5-4F4A-951A-F8B2030A9B85";
name = Light;
paths = (
{
closed = 1;
nodes = (
"91 0 LINE",
"115 0 LINE",
"115 256 LINE",
"198 256 LINE",
"409 0 LINE",
"440 0 LINE",
"219 266 LINE",
"431 531 LINE",
"401 531 LINE",
"202 278 LINE",
"115 278 LINE",
"115 541 LINE",
"91 541 LINE"
);
}
);
width = 468;
}
);
unicode = 0138;
userData = {
com.fontlab.hintData = {
hhints = (
{
position = 0;
width = 21;
},
{
position = 255;
width = 24;
},
{
position = 511;
width = 20;
}
);
vhints = (
{
position = 81;
width = 24;
}
);
};
com.typemytype.robofont.layerData = {
background = {
anchors = (
);
components = (
);
contours = (
{
points = (
{
segmentType = line;
smooth = 0;
x = 81;
y = 0;
},
{
segmentType = line;
smooth = 0;
x = 81;
y = 531;
},
{
segmentType = line;
smooth = 0;
x = 105;
y = 531;
},
{
segmentType = line;
smooth = 0;
x = 105;
y = 279;
},
{
segmentType = line;
smooth = 0;
x = 220;
y = 279;
},
{
segmentType = line;
smooth = 0;
x = 417;
y = 531;
},
{
segmentType = line;
smooth = 0;
x = 446;
y = 531;
},
{
segmentType = line;
smooth = 0;
x = 241;
y = 267;
},
{
segmentType = line;
smooth = 0;
x = 432;
y = 0;
},
{
segmentType = line;
smooth = 0;
x = 402;
y = 0;
},
{
segmentType = line;
smooth = 0;
x = 220;
y = 255;
},
{
segmentType = line;
smooth = 0;
x = 105;
y = 255;
},
{
segmentType = line;
smooth = 0;
x = 105;
y = 0;
}
);
}
);
lib = {
};
name = kgreenlandic;
unicodes = (
);
width = 468;
};
};
};
},
{
glyphname = Lslash;
lastChange = "2016-12-19 14:59:05 +0000";
layers = (
{
components = (
{
name = L;
transform = "{1, 0, 0, 1, 0, 0}";
}
);
layerId = "1A646CEF-9FB5-4F4A-951A-F8B2030A9B85";
name = Light;
paths = (
{
closed = 1;
nodes = (
"6 322 LINE",
"93 359 LINE",
"109 364 LINE",
"254 427 LINE",
"254 447 LINE",
"109 384 LINE",
"93 380 LINE",
"6 343 LINE"
);
}
);
width = 529;
}
);
unicode = 0141;
userData = {
com.fontlab.hintData = {
hhints = (
{
position = 0;
width = 24;
},
{
position = 712;
width = 20;
}
);
vhints = (
{
position = 108;
width = 24;
}
);
};
com.typemytype.robofont.layerData = {
background = {
anchors = (
);
components = (
);
contours = (
{
points = (
{
segmentType = line;
smooth = 0;
x = 26;
y = 360;
},
{
segmentType = line;
smooth = 0;
x = 26;
y = 381;
},
{
segmentType = line;
smooth = 0;
x = 108;
y = 417;
},
{
segmentType = line;
smooth = 0;
x = 108;
y = 732;
},
{
segmentType = line;
smooth = 0;
x = 132;
y = 732;
},
{
segmentType = line;
smooth = 0;
x = 132;
y = 427;
},
{
segmentType = line;
smooth = 0;
x = 252;
y = 479;
},
{
segmentType = line;
smooth = 0;
x = 252;
y = 459;
},
{
segmentType = line;
smooth = 0;
x = 132;
y = 407;
},
{
segmentType = line;
smooth = 1;
x = 132;
y = 126;
},
{
smooth = 0;
x = 132;
y = 34;
},
{
smooth = 0;
x = 190;
y = 24;
},
{
segmentType = curve;
smooth = 1;
x = 244;
y = 24;
},
{
segmentType = line;
smooth = 0;
x = 520;
y = 24;
},
{
segmentType = line;
smooth = 0;
x = 520;
y = 0;
},
{
segmentType = line;
smooth = 1;
x = 244;
y = 0;
},
{
smooth = 0;
x = 178;
y = 0;
},
{
smooth = 0;
x = 108;
y = 13;
},
{
segmentType = curve;
smooth = 1;
x = 108;
y = 126;
},
{
segmentType = line;
smooth = 0;
x = 108;
y = 396;
}
);
}
);
lib = {
};
name = Lslash;
unicodes = (
);
width = 529;
};
};
};
},
{
glyphname = lslash;
lastChange = "2016-12-19 14:59:05 +0000";
layers = (
{
components = (
{
name = l;
transform = "{1, 0, 0, 1, 0, 0}";
}
);
layerId = "1A646CEF-9FB5-4F4A-951A-F8B2030A9B85";
name = Light;
paths = (
{
closed = 1;
nodes = (
"9 371 LINE",
"91 399 LINE",
"115 407 LINE",
"229 444 LINE",
"229 465 LINE",
"115 428 LINE",
"91 420 LINE",
"9 392 LINE"
);
}
);
width = 278;
}
);
unicode = 0142;
userData = {
com.fontlab.hintData = {
hhints = (
{
position = 0;
width = 13;
},
{
position = 763;
width = 20;
}
);
vhints = (
{
position = 81;
width = 24;
}
);
};
com.typemytype.robofont.layerData = {
background = {
anchors = (
);
components = (
);
contours = (
{
points = (
{
segmentType = line;
smooth = 0;
x = 11;
y = 399;
},
{
segmentType = line;
smooth = 0;
x = 11;
y = 420;
},
{
segmentType = line;
smooth = 0;
x = 81;
y = 456;
},
{
segmentType = line;
smooth = 0;
x = 81;
y = 783;
},
{
segmentType = line;
smooth = 0;
x = 105;
y = 783;
},
{
segmentType = line;
smooth = 0;
x = 105;
y = 469;
},
{
segmentType = line;
smooth = 0;
x = 238;
y = 538;
},
{
segmentType = line;
smooth = 0;
x = 237;
y = 518;
},
{
segmentType = line;
smooth = 0;
x = 105;
y = 448;
},
{
segmentType = line;
smooth = 1;
x = 105;
y = 189;
},
{
smooth = 0;
x = 105;
y = 54;
},
{
smooth = 0;
x = 143;
y = 32;
},
{
segmentType = curve;
smooth = 1;
x = 197;
y = 24;
},
{
smooth = 0;
x = 197;
y = 24;
},
{
smooth = 0;
x = 264;
y = 13;
},
{
segmentType = curve;
smooth = 0;
x = 271;
y = 13;
},
{
segmentType = line;
smooth = 0;
x = 271;
y = 0;
},
{
segmentType = line;
smooth = 1;
x = 199;
y = 0;
},
{
smooth = 0;
x = 122;
y = 0;
},
{
smooth = 0;
x = 81;
y = 48;
},
{
segmentType = curve;
smooth = 1;
x = 81;
y = 189;
},
{
segmentType = line;
smooth = 0;
x = 81;
y = 436;
}
);
}
);
lib = {
};
name = lslash;
unicodes = (
);
width = 278;
};
};
};
},
{
glyphname = Eng;
lastChange = "2016-12-19 14:59:05 +0000";
layers = (
{
components = (
{
name = N;
transform = "{1, 0, 0, 1, 0, 0}";
}
);
layerId = "1A646CEF-9FB5-4F4A-951A-F8B2030A9B85";
name = Light;
paths = (
{
closed = 1;
nodes = (
"343 -211 LINE",
"370 -225 OFFCURVE",
"416 -236 OFFCURVE",
"450 -236 CURVE SMOOTH",
"543 -236 OFFCURVE",
"597 -204 OFFCURVE",
"597 -85 CURVE SMOOTH",
"597 22 LINE",
"573 22 LINE",
"573 -85 LINE SMOOTH",
"573 -193 OFFCURVE",
"521 -214 OFFCURVE",
"450 -214 CURVE SMOOTH",
"419 -214 OFFCURVE",
"372 -204 OFFCURVE",
"343 -195 CURVE"
);
}
);
width = 665;
}
);
unicode = 014A;
userData = {
com.fontlab.hintData = {
hhints = (
{
position = "-257";
width = 18;
},
{
position = 0;
width = 21;
},
{
position = 712;
width = 20;
}
);
vhints = (
{
position = 108;
width = 25;
},
{
position = 573;
width = 24;
}
);
};
com.typemytype.robofont.layerData = {
background = {
anchors = (
);
components = (
);
contours = (
{
points = (
{
segmentType = line;
smooth = 0;
x = 108;
y = 0;
},
{
segmentType = line;
smooth = 0;
x = 108;
y = 732;
},
{
segmentType = line;
smooth = 0;
x = 133;
y = 732;
},
{
segmentType = line;
smooth = 0;
x = 573;
y = 48;
},
{
segmentType = line;
smooth = 0;
x = 573;
y = 732;
},
{
segmentType = line;
smooth = 0;
x = 597;
y = 732;
},
{
segmentType = line;
smooth = 0;
x = 597;
y = 0;
},
{
segmentType = line;
smooth = 1;
x = 597;
y = "-84";
},
{
smooth = 0;
x = 597;
y = "-236";
},
{
smooth = 0;
x = 551;
y = "-257";
},
{
segmentType = curve;
smooth = 0;
x = 433;
y = "-257";
},
{
segmentType = line;
smooth = 0;
x = 433;
y = "-239";
},
{
smooth = 0;
x = 519;
y = "-229";
},
{
smooth = 0;
x = 573;
y = "-236";
},
{
segmentType = curve;
smooth = 1;
x = 573;
y = "-85";
},
{
segmentType = line;
smooth = 0;
x = 573;
y = 0;
},
{
segmentType = line;
smooth = 0;
x = 133;
y = 684;
},
{
segmentType = line;
smooth = 0;
x = 133;
y = 0;
}
);
}
);
lib = {
};
name = Eng;
unicodes = (
);
width = 665;
};
};
};
},
{
glyphname = eng;
lastChange = "2016-12-19 14:59:05 +0000";
layers = (
{
components = (
{
name = n;
transform = "{1, 0, 0, 1, 0, 0}";
}
);
layerId = "1A646CEF-9FB5-4F4A-951A-F8B2030A9B85";
name = Light;
paths = (
{
closed = 1;
nodes = (
"351 -268 CURVE",
"373 -268 LINE",
"439 -217 OFFCURVE",
"495 -147 OFFCURVE",
"495 0 CURVE SMOOTH",
"495 211 LINE",
"471 211 LINE",
"471 0 LINE SMOOTH",
"471 -130 OFFCURVE",
"422 -203 OFFCURVE"
);
}
);
width = 582;
}
);
unicode = 014B;
userData = {
com.fontlab.hintData = {
hhints = (
{
position = "-245";
width = 15;
},
{
position = 0;
width = 21;
},
{
position = 511;
width = 20;
},
{
position = 516;
width = 24;
}
);
vhints = (
{
position = 81;
width = 24;
},
{
position = 81;
width = 12;
},
{
position = 461;
width = 24;
}
);
};
com.typemytype.robofont.layerData = {
background = {
anchors = (
);
components = (
);
contours = (
{
points = (
{
segmentType = line;
smooth = 0;
x = 81;
y = 0;
},
{
segmentType = line;
smooth = 0;
x = 81;
y = 531;
},
{
segmentType = line;
smooth = 0;
x = 93;
y = 531;
},
{
segmentType = line;
smooth = 0;
x = 105;
y = 469;
},
{
smooth = 0;
x = 166;
y = 504;
},
{
smooth = 0;
x = 230;
y = 540;
},
{
segmentType = curve;
smooth = 1;
x = 311;
y = 540;
},
{
smooth = 0;
x = 417;
y = 540;
},
{
smooth = 0;
x = 485;
y = 458;
},
{
segmentType = curve;
smooth = 1;
x = 485;
y = 370;
},
{
segmentType = line;
smooth = 0;
x = 485;
y = 0;
},
{
segmentType = line;
smooth = 1;
x = 485;
y = "-90";
},
{
smooth = 0;
x = 485;
y = "-217";
},
{
smooth = 0;
x = 387;
y = "-239";
},
{
segmentType = curve;
smooth = 0;
x = 333;
y = "-245";
},
{
segmentType = line;
smooth = 0;
x = 321;
y = "-230";
},
{
smooth = 0;
x = 397;
y = "-217";
},
{
smooth = 0;
x = 459;
y = "-182";
},
{
segmentType = curve;
smooth = 0;
x = 461;
y = "-89";
},
{
segmentType = line;
smooth = 0;
x = 461;
y = 0;
},
{
segmentType = line;
smooth = 1;
x = 461;
y = 370;
},
{
smooth = 0;
x = 461;
y = 441;
},
{
smooth = 0;
x = 401;
y = 516;
},
{
segmentType = curve;
smooth = 1;
x = 311;
y = 516;
},
{
smooth = 0;
x = 227;
y = 516;
},
{
smooth = 0;
x = 165;
y = 485;
},
{
segmentType = curve;
smooth = 0;
x = 105;
y = 452;
},
{
segmentType = line;
smooth = 0;
x = 105;
y = 0;
}
);
}
);
lib = {
};
name = eng;
unicodes = (
);
width = 582;
};
};
};
},
{
glyphname = Oslash;
lastChange = "2016-12-19 14:59:05 +0000";
layers = (
{
anchors = (
{
name = top;
position = "{338, 810}";
}
);
components = (
{
name = O;
transform = "{1, 0, 0, 1, 0, 0}";
}
);
layerId = "1A646CEF-9FB5-4F4A-951A-F8B2030A9B85";
name = Light;
paths = (
{
closed = 1;
nodes = (
"566 732 LINE",
"85 0 LINE",
"110 0 LINE",
"591 732 LINE"
);
}
);
width = 676;
}
);
unicode = 00D8;
userData = {
com.fontlab.hintData = {
hhints = (
{
position = "-4";
width = 24;
},
{
position = 713;
width = 24;
}
);
vhints = (
{
position = 88;
width = 24;
},
{
position = 600;
width = 24;
}
);
};
com.typemytype.robofont.layerData = {
background = {
anchors = (
);
components = (
);
contours = (
{
points = (
{
segmentType = line;
smooth = 0;
x = 175;
y = 70;
},
{
smooth = 0;
x = 214;
y = 30;
},
{
smooth = 0;
x = 272;
y = 20;
},
{
segmentType = curve;
smooth = 1;
x = 356;
y = 20;
},
{
smooth = 0;
x = 527;
y = 20;
},
{
smooth = 0;
x = 600;
y = 65;
},
{
segmentType = curve;
smooth = 1;
x = 600;
y = 361;
},
{
smooth = 0;
x = 600;
y = 511;
},
{
smooth = 0;
x = 582;
y = 597;
},
{
segmentType = curve;
smooth = 0;
x = 547;
y = 647;
}
);
},
{
points = (
{
segmentType = curve;
smooth = 1;
x = 112;
y = 361;
},
{
smooth = 0;
x = 112;
y = 215;
},
{
smooth = 0;
x = 128;
y = 131;
},
{
segmentType = curve;
smooth = 0;
x = 165;
y = 82;
},
{
segmentType = line;
smooth = 0;
x = 537;
y = 660;
},
{
smooth = 0;
x = 496;
y = 706;
},
{
smooth = 0;
x = 435;
y = 713;
},
{
segmentType = curve;
smooth = 1;
x = 356;
y = 713;
},
{
smooth = 0;
x = 208;
y = 713;
},
{
smooth = 0;
x = 112;
y = 698;
}
);
},
{
points = (
{
segmentType = curve;
smooth = 1;
x = 88;
y = 361;
},
{
smooth = 0;
x = 88;
y = 704;
},
{
smooth = 0;
x = 184;
y = 737;
},
{
segmentType = curve;
smooth = 1;
x = 356;
y = 737;
},
{
smooth = 0;
x = 440;
y = 737;
},
{
smooth = 0;
x = 506;
y = 729;
},
{
segmentType = curve;
smooth = 0;
x = 551;
y = 682;
},
{
segmentType = line;
smooth = 0;
x = 583;
y = 732;
},
{
segmentType = line;
smooth = 0;
x = 601;
y = 732;
},
{
segmentType = line;
smooth = 0;
x = 561;
y = 670;
},
{
smooth = 0;
x = 602;
y = 617;
},
{
smooth = 0;
x = 624;
y = 524;
},
{
segmentType = curve;
smooth = 1;
x = 624;
y = 361;
},
{
smooth = 0;
x = 624;
y = 38;
},
{
smooth = 0;
x = 536;
y = "-4";
},
{
segmentType = curve;
smooth = 1;
x = 356;
y = "-4";
},
{
smooth = 0;
x = 270;
y = "-4";
},
{
smooth = 0;
x = 205;
y = 3;
},
{
segmentType = curve;
smooth = 0;
x = 161;
y = 47;
},
{
segmentType = line;
smooth = 0;
x = 130;
y = 0;
},
{
segmentType = line;
smooth = 0;
x = 112;
y = 0;
},
{
segmentType = line;
smooth = 0;
x = 150;
y = 59;
},
{
smooth = 0;
x = 109;
y = 110;
},
{
smooth = 0;
x = 88;
y = 200;
}
);
}
);
lib = {
};
name = Oslash;
unicodes = (
);
width = 676;
};
};
};
},
{
glyphname = oslash;
lastChange = "2016-12-19 14:59:05 +0000";
layers = (
{
anchors = (
{
name = top;
position = "{288, 650}";
}
);
components = (
{
name = o;
transform = "{1, 0, 0, 1, 0, 0}";
}
);
layerId = "1A646CEF-9FB5-4F4A-951A-F8B2030A9B85";
name = Light;
paths = (
{
closed = 1;
nodes = (
"486 531 LINE",
"70 0 LINE",
"92 0 LINE",
"508 531 LINE"
);
}
);
width = 578;
}
);
unicode = 00F8;
userData = {
com.fontlab.hintData = {
hhints = (
{
position = "-5";
width = 24;
},
{
position = 512;
width = 24;
}
);
vhints = (
{
position = 68;
width = 24;
},
{
position = 482;
width = 24;
}
);
};
com.typemytype.robofont.layerData = {
background = {
anchors = (
);
components = (
);
contours = (
{
points = (
{
segmentType = line;
smooth = 0;
x = 140;
y = 60;
},
{
smooth = 0;
x = 173;
y = 26;
},
{
smooth = 0;
x = 222;
y = 19;
},
{
segmentType = curve;
smooth = 1;
x = 286;
y = 19;
},
{
smooth = 0;
x = 414;
y = 19;
},
{
smooth = 0;
x = 482;
y = 52;
},
{
segmentType = curve;
smooth = 1;
x = 482;
y = 258;
},
{
smooth = 0;
x = 482;
y = 360;
},
{
smooth = 0;
x = 465;
y = 423;
},
{
segmentType = curve;
smooth = 0;
x = 436;
y = 460;
}
);
},
{
points = (
{
segmentType = curve;
smooth = 1;
x = 92;
y = 258;
},
{
smooth = 0;
x = 92;
y = 164;
},
{
smooth = 0;
x = 105;
y = 107;
},
{
segmentType = curve;
smooth = 0;
x = 131;
y = 72;
},
{
segmentType = line;
smooth = 0;
x = 427;
y = 471;
},
{
smooth = 0;
x = 393;
y = 505;
},
{
smooth = 0;
x = 345;
y = 512;
},
{
segmentType = curve;
smooth = 1;
x = 286;
y = 512;
},
{
smooth = 0;
x = 166;
y = 512;
},
{
smooth = 0;
x = 92;
y = 489;
}
);
},
{
points = (
{
segmentType = curve;
smooth = 1;
x = 68;
y = 258;
},
{
smooth = 0;
x = 68;
y = 475;
},
{
smooth = 0;
x = 127;
y = 536;
},
{
segmentType = curve;
smooth = 1;
x = 286;
y = 536;
},
{
smooth = 0;
x = 357;
y = 536;
},
{
smooth = 0;
x = 407;
y = 521;
},
{
segmentType = curve;
smooth = 0;
x = 441;
y = 490;
},
{
segmentType = line;
smooth = 0;
x = 472;
y = 531;
},
{
segmentType = line;
smooth = 0;
x = 490;
y = 531;
},
{
segmentType = line;
smooth = 0;
x = 451;
y = 479;
},
{
smooth = 0;
x = 492;
y = 433;
},
{
smooth = 0;
x = 506;
y = 360;
},
{
segmentType = curve;
smooth = 1;
x = 506;
y = 258;
},
{
smooth = 0;
x = 506;
y = 64;
},
{
smooth = 0;
x = 454;
y = "-5";
},
{
segmentType = curve;
smooth = 1;
x = 286;
y = "-5";
},
{
smooth = 0;
x = 210;
y = "-5";
},
{
smooth = 0;
x = 159;
y = 9;
},
{
segmentType = curve;
smooth = 0;
x = 125;
y = 40;
},
{
segmentType = line;
smooth = 0;
x = 96;
y = 0;
},
{
segmentType = line;
smooth = 0;
x = 78;
y = 0;
},
{
segmentType = line;
smooth = 0;
x = 115;
y = 50;
},
{
smooth = 0;
x = 79;
y = 92;
},
{
smooth = 0;
x = 68;
y = 159;
}
);
}
);
lib = {
};
name = oslash;
unicodes = (
);
width = 578;
};
};
};
},
{
glyphname = oe;
lastChange = "2016-12-19 14:59:05 +0000";
layers = (
{
layerId = "1A646CEF-9FB5-4F4A-951A-F8B2030A9B85";
name = Light;
paths = (
{
closed = 1;
nodes = (
"506 273 LINE",
"506 440 OFFCURVE",
"545 515 OFFCURVE",
"684 515 CURVE SMOOTH",
"802 515 OFFCURVE",
"862 498 OFFCURVE",
"862 367 CURVE SMOOTH",
"862 288 OFFCURVE",
"815 273 OFFCURVE",
"750 273 CURVE SMOOTH"
);
},
{
closed = 1;
nodes = (
"486 268 CURVE SMOOTH",
"486 63 OFFCURVE",
"553 -6 OFFCURVE",
"690 -6 CURVE SMOOTH",
"759 -6 OFFCURVE",
"813 -4 OFFCURVE",
"876 0 CURVE",
"876 16 LINE",
"692 16 LINE SMOOTH",
"562 16 OFFCURVE",
"506 85 OFFCURVE",
"506 251 CURVE",
"753 251 LINE SMOOTH",
"835 251 OFFCURVE",
"886 284 OFFCURVE",
"886 367 CURVE SMOOTH",
"886 511 OFFCURVE",
"805 537 OFFCURVE",
"684 537 CURVE SMOOTH",
"539 537 OFFCURVE",
"486 460 OFFCURVE"
);
},
{
closed = 1;
nodes = (
"94 266 CURVE SMOOTH",
"94 486 OFFCURVE",
"165 515 OFFCURVE",
"288 515 CURVE SMOOTH",
"411 515 OFFCURVE",
"484 486 OFFCURVE",
"484 266 CURVE SMOOTH",
"484 46 OFFCURVE",
"411 16 OFFCURVE",
"288 16 CURVE SMOOTH",
"165 16 OFFCURVE",
"94 46 OFFCURVE"
);
},
{
closed = 1;
nodes = (
"70 266 CURVE SMOOTH",
"70 36 OFFCURVE",
"150 -6 OFFCURVE",
"285 -6 CURVE SMOOTH",
"421 -6 OFFCURVE",
"504 36 OFFCURVE",
"504 266 CURVE SMOOTH",
"504 496 OFFCURVE",
"423 537 OFFCURVE",
"288 537 CURVE SMOOTH",
"151 537 OFFCURVE",
"70 496 OFFCURVE"
);
}
);
width = 956;
}
);
unicode = 0153;
userData = {
com.fontlab.hintData = {
hhints = (
{
position = "-5";
width = 24;
},
{
position = 250;
width = 23;
},
{
position = 512;
width = 24;
}
);
vhints = (
{
position = 68;
width = 24;
},
{
position = 482;
width = 24;
},
{
position = 862;
width = 24;
}
);
};
com.typemytype.robofont.layerData = {
background = {
anchors = (
);
components = (
{
baseGlyph = o;
transformation = (
1,
0,
0,
1,
0,
0
);
},
{
baseGlyph = e;
transformation = (
1,
0,
0,
1,
412,
0
);
}
);
contours = (
{
points = (
{
segmentType = curve;
smooth = 0;
x = "-394";
y = 273;
},
{
segmentType = line;
smooth = 1;
x = "-150";
y = 273;
},
{
smooth = 0;
x = "-94";
y = 273;
},
{
smooth = 0;
x = "-38";
y = 277;
},
{
segmentType = curve;
smooth = 1;
x = "-38";
y = 347;
},
{
smooth = 0;
x = "-38";
y = 497;
},
{
smooth = 0;
x = "-98";
y = 511;
},
{
segmentType = curve;
smooth = 1;
x = "-216";
y = 511;
},
{
smooth = 0;
x = "-355";
y = 511;
},
{
smooth = 0;
x = "-394";
y = 481;
}
);
},
{
points = (
{
segmentType = curve;
smooth = 1;
x = "-808";
y = 258;
},
{
smooth = 0;
x = "-808";
y = 47;
},
{
smooth = 0;
x = "-741";
y = 19;
},
{
segmentType = curve;
smooth = 1;
x = "-614";
y = 19;
},
{
smooth = 0;
x = "-486";
y = 19;
},
{
smooth = 0;
x = "-418";
y = 56;
},
{
segmentType = curve;
smooth = 1;
x = "-418";
y = 258;
},
{
smooth = 0;
x = "-418";
y = 475;
},
{
smooth = 0;
x = "-493";
y = 512;
},
{
segmentType = curve;
smooth = 1;
x = "-614";
y = 512;
},
{
smooth = 0;
x = "-734";
y = 512;
},
{
smooth = 0;
x = "-808";
y = 490;
}
);
},
{
points = (
{
segmentType = curve;
smooth = 1;
x = "-832";
y = 258;
},
{
smooth = 0;
x = "-832";
y = 475;
},
{
smooth = 0;
x = "-773";
y = 536;
},
{
segmentType = curve;
smooth = 1;
x = "-614";
y = 536;
},
{
smooth = 0;
x = "-493";
y = 536;
},
{
smooth = 0;
x = "-433";
y = 492;
},
{
segmentType = curve;
smooth = 0;
x = "-409";
y = 401;
},
{
smooth = 0;
x = "-388";
y = 516;
},
{
smooth = 0;
x = "-330";
y = 535;
},
{
segmentType = curve;
smooth = 1;
x = "-216";
y = 535;
},
{
smooth = 0;
x = "-95";
y = 535;
},
{
smooth = 0;
x = "-14";
y = 523;
},
{
segmentType = curve;
smooth = 1;
x = "-14";
y = 347;
},
{
smooth = 0;
x = "-14";
y = 268;
},
{
smooth = 0;
x = "-64";
y = 250;
},
{
segmentType = curve;
smooth = 1;
x = "-150";
y = 250;
},
{
segmentType = line;
smooth = 0;
x = "-394";
y = 250;
},
{
smooth = 0;
x = "-394";
y = 48;
},
{
smooth = 0;
x = "-331";
y = 19;
},
{
segmentType = curve;
smooth = 1;
x = "-244";
y = 19;
},
{
smooth = 0;
x = "-152";
y = 19;
},
{
smooth = 0;
x = "-99";
y = 28;
},
{
segmentType = curve;
smooth = 0;
x = "-24";
y = 39;
},
{
segmentType = line;
smooth = 0;
x = "-24";
y = 23;
},
{
smooth = 0;
x = "-105";
y = 0;
},
{
smooth = 0;
x = "-161";
y = "-6";
},
{
segmentType = curve;
smooth = 1;
x = "-244";
y = "-5";
},
{
smooth = 0;
x = "-340";
y = "-4";
},
{
smooth = 0;
x = "-387";
y = 34;
},
{
segmentType = curve;
smooth = 0;
x = "-407";
y = 126;
},
{
smooth = 0;
x = "-431";
y = 31;
},
{
smooth = 0;
x = "-491";
y = "-5";
},
{
segmentType = curve;
smooth = 1;
x = "-614";
y = "-5";
},
{
smooth = 0;
x = "-790";
y = "-5";
},
{
smooth = 0;
x = "-832";
y = 68;
}
);
}
);
lib = {
};
name = oe;
unicodes = (
);
width = 956;
};
};
};
},
{
glyphname = Germandbls;
lastChange = "2016-12-19 14:59:05 +0000";
layers = (
{
layerId = "1A646CEF-9FB5-4F4A-951A-F8B2030A9B85";
name = Light;
paths = (
{
closed = 1;
nodes = (
"305 381 LINE",
"531 710 LINE",
"531 728 LINE",
"504 710 LINE",
"278 381 LINE"
);
},
{
closed = 1;
nodes = (
"278 357 LINE",
"397 357 LINE SMOOTH",
"497 357 OFFCURVE",
"535 309 OFFCURVE",
"535 224 CURVE SMOOTH",
"535 156 LINE SMOOTH",
"535 39 OFFCURVE",
"446 16 OFFCURVE",
"345 16 CURVE SMOOTH",
"292 16 OFFCURVE",
"235 18 OFFCURVE",
"210 21 CURVE",
"210 5 LINE",
"237 1 OFFCURVE",
"317 -6 OFFCURVE",
"345 -6 CURVE SMOOTH",
"454 -6 OFFCURVE",
"559 28 OFFCURVE",
"559 156 CURVE SMOOTH",
"559 224 LINE SMOOTH",
"559 318 OFFCURVE",
"510 381 OFFCURVE",
"397 381 CURVE SMOOTH",
"278 381 LINE"
);
},
{
closed = 1;
nodes = (
"88 0 LINE",
"112 0 LINE",
"112 582 LINE SMOOTH",
"112 671 OFFCURVE",
"160 710 OFFCURVE",
"234 710 CURVE SMOOTH",
"531 710 LINE",
"531 728 LINE",
"234 732 LINE SMOOTH",
"160 733 OFFCURVE",
"88 695 OFFCURVE",
"88 582 CURVE SMOOTH"
);
}
);
width = 629;
}
);
unicode = 1E9E;
},
{
glyphname = germandbls;
lastChange = "2016-12-19 14:59:05 +0000";
layers = (
{
layerId = "1A646CEF-9FB5-4F4A-951A-F8B2030A9B85";
name = Light;
paths = (
{
closed = 1;
nodes = (
"81 0 LINE",
"105 0 LINE",
"105 566 LINE SMOOTH",
"105 686 OFFCURVE",
"174 753 OFFCURVE",
"289 753 CURVE SMOOTH",
"410 753 OFFCURVE",
"475 713 OFFCURVE",
"475 640 CURVE SMOOTH",
"475 507 OFFCURVE",
"278 476 OFFCURVE",
"278 348 CURVE SMOOTH",
"278 208 OFFCURVE",
"517 286 OFFCURVE",
"517 163 CURVE SMOOTH",
"517 132 LINE SMOOTH",
"517 89 OFFCURVE",
"497 16 OFFCURVE",
"383 16 CURVE SMOOTH",
"314 16 OFFCURVE",
"248 19 OFFCURVE",
"210 21 CURVE",
"210 7 LINE",
"245 0 OFFCURVE",
"315 -8 OFFCURVE",
"383 -8 CURVE SMOOTH",
"478 -8 OFFCURVE",
"541 41 OFFCURVE",
"541 132 CURVE SMOOTH",
"541 163 LINE SMOOTH",
"541 309 OFFCURVE",
"302 234 OFFCURVE",
"302 348 CURVE SMOOTH",
"302 464 OFFCURVE",
"498 490 OFFCURVE",
"498 641 CURVE SMOOTH",
"498 713 OFFCURVE",
"445 777 OFFCURVE",
"289 777 CURVE SMOOTH",
"147 777 OFFCURVE",
"81 682 OFFCURVE",
"81 566 CURVE SMOOTH"
);
}
);
width = 566;
}
);
unicode = 00DF;
userData = {
com.fontlab.hintData = {
hhints = (
{
position = "-8";
width = 24;
},
{
position = 0;
width = 21;
},
{
position = 753;
width = 24;
}
);
vhints = (
{
position = 81;
width = 24;
},
{
position = 258;
width = 24;
},
{
position = 517;
width = 24;
}
);
};
com.typemytype.robofont.layerData = {
background = {
anchors = (
);
components = (
{
baseGlyph = s;
transformation = (
1,
0,
0,
1,
105,
0
);
}
);
contours = (
{
points = (
{
segmentType = line;
smooth = 0;
x = 81;
y = 0;
},
{
segmentType = line;
smooth = 1;
x = 81;
y = 566;
},
{
smooth = 0;
x = 81;
y = 682;
},
{
smooth = 0;
x = 147;
y = 777;
},
{
segmentType = curve;
smooth = 1;
x = 289;
y = 777;
},
{
smooth = 0;
x = 584;
y = 777;
},
{
smooth = 0;
x = 513;
y = 547;
},
{
segmentType = curve;
smooth = 0;
x = 404;
y = 471;
},
{
smooth = 0;
x = 331;
y = 415;
},
{
smooth = 0;
x = 282;
y = 400;
},
{
segmentType = curve;
smooth = 1;
x = 282;
y = 348;
},
{
smooth = 0;
x = 282;
y = 234;
},
{
smooth = 0;
x = 540;
y = 327;
},
{
segmentType = curve;
smooth = 0;
x = 541;
y = 179;
},
{
segmentType = line;
smooth = 1;
x = 541;
y = 132;
},
{
smooth = 0;
x = 541;
y = 41;
},
{
smooth = 0;
x = 478;
y = "-8";
},
{
segmentType = curve;
smooth = 1;
x = 383;
y = "-8";
},
{
smooth = 0;
x = 315;
y = "-8";
},
{
smooth = 0;
x = 245;
y = 0;
},
{
segmentType = curve;
smooth = 0;
x = 210;
y = 7;
},
{
segmentType = line;
smooth = 0;
x = 210;
y = 21;
},
{
smooth = 0;
x = 248;
y = 19;
},
{
smooth = 0;
x = 314;
y = 16;
},
{
segmentType = curve;
smooth = 1;
x = 383;
y = 16;
},
{
smooth = 0;
x = 497;
y = 16;
},
{
smooth = 0;
x = 517;
y = 89;
},
{
segmentType = curve;
smooth = 1;
x = 517;
y = 132;
},
{
segmentType = line;
smooth = 0;
x = 517;
y = 179;
},
{
smooth = 0;
x = 519;
y = 304;
},
{
smooth = 0;
x = 258;
y = 203;
},
{
segmentType = curve;
smooth = 1;
x = 258;
y = 348;
},
{
smooth = 0;
x = 258;
y = 403;
},
{
smooth = 0;
x = 291;
y = 420;
},
{
segmentType = curve;
smooth = 1;
x = 391;
y = 490;
},
{
smooth = 0;
x = 424;
y = 513;
},
{
smooth = 0;
x = 461;
y = 562;
},
{
segmentType = curve;
smooth = 1;
x = 471;
y = 606;
},
{
smooth = 0;
x = 493;
y = 700;
},
{
smooth = 0;
x = 428;
y = 753;
},
{
segmentType = curve;
smooth = 1;
x = 289;
y = 753;
},
{
smooth = 0;
x = 174;
y = 753;
},
{
smooth = 0;
x = 105;
y = 686;
},
{
segmentType = curve;
smooth = 1;
x = 105;
y = 566;
},
{
segmentType = line;
smooth = 0;
x = 105;
y = 0;
}
);
}
);
lib = {
};
name = germandbls;
unicodes = (
);
width = 566;
};
};
};
},
{
glyphname = Tbar;
lastChange = "2016-12-19 14:59:05 +0000";
layers = (
{
components = (
{
name = T;
transform = "{1, 0, 0, 1, 0, 0}";
}
);
layerId = "1A646CEF-9FB5-4F4A-951A-F8B2030A9B85";
name = Light;
paths = (
{
closed = 1;
nodes = (
"77 381 LINE",
"472 381 LINE",
"472 403 LINE",
"77 403 LINE"
);
}
);
width = 550;
}
);
unicode = 0166;
userData = {
com.fontlab.hintData = {
hhints = (
{
position = 0;
width = 21;
},
{
position = 410;
width = 14;
},
{
position = 708;
width = 24;
}
);
vhints = (
{
position = 291;
width = 24;
}
);
};
com.typemytype.robofont.layerData = {
background = {
anchors = (
);
components = (
);
contours = (
{
points = (
{
segmentType = line;
smooth = 0;
x = 47;
y = 708;
},
{
segmentType = line;
smooth = 0;
x = 47;
y = 732;
},
{
segmentType = line;
smooth = 0;
x = 565;
y = 732;
},
{
segmentType = line;
smooth = 0;
x = 565;
y = 708;
},
{
segmentType = line;
smooth = 0;
x = 315;
y = 708;
},
{
segmentType = line;
smooth = 0;
x = 315;
y = 424;
},
{
segmentType = line;
smooth = 0;
x = 465;
y = 424;
},
{
segmentType = line;
smooth = 0;
x = 465;
y = 410;
},
{
segmentType = line;
smooth = 0;
x = 315;
y = 410;
},
{
segmentType = line;
smooth = 0;
x = 315;
y = 0;
},
{
segmentType = line;
smooth = 0;
x = 291;
y = 0;
},
{
segmentType = line;
smooth = 0;
x = 291;
y = 410;
},
{
segmentType = line;
smooth = 0;
x = 161;
y = 410;
},
{
segmentType = line;
smooth = 0;
x = 161;
y = 424;
},
{
segmentType = line;
smooth = 0;
x = 291;
y = 424;
},
{
segmentType = line;
smooth = 0;
x = 291;
y = 708;
}
);
}
);
lib = {
};
name = Tbar;
unicodes = (
);
width = 550;
};
};
};
},
{
glyphname = tbar;
lastChange = "2016-12-19 14:59:05 +0000";
layers = (
{
components = (
{
name = t;
transform = "{1, 0, 0, 1, 0, 0}";
}
);
layerId = "1A646CEF-9FB5-4F4A-951A-F8B2030A9B85";
name = Light;
paths = (
{
closed = 1;
nodes = (
"27 318 LINE",
"290 318 LINE",
"290 334 LINE",
"27 334 LINE"
);
}
);
width = 350;
}
);
unicode = 0167;
userData = {
com.fontlab.hintData = {
hhints = (
{
position = 1;
width = 13;
},
{
position = 318;
width = 14;
},
{
position = 508;
width = 24;
},
{
position = 508;
width = 16;
}
);
vhints = (
{
position = 111;
width = 24;
},
{
position = 119;
width = 16;
}
);
};
com.typemytype.robofont.layerData = {
background = {
anchors = (
);
components = (
);
contours = (
{
points = (
{
segmentType = line;
smooth = 0;
x = 27;
y = 508;
},
{
segmentType = line;
smooth = 0;
x = 27;
y = 524;
},
{
segmentType = line;
smooth = 0;
x = 111;
y = 532;
},
{
segmentType = line;
smooth = 0;
x = 119;
y = 680;
},
{
segmentType = line;
smooth = 0;
x = 135;
y = 680;
},
{
segmentType = line;
smooth = 0;
x = 135;
y = 532;
},
{
segmentType = line;
smooth = 0;
x = 310;
y = 532;
},
{
segmentType = line;
smooth = 0;
x = 310;
y = 508;
},
{
segmentType = line;
smooth = 0;
x = 135;
y = 508;
},
{
segmentType = line;
smooth = 0;
x = 135;
y = 332;
},
{
segmentType = line;
smooth = 0;
x = 260;
y = 332;
},
{
segmentType = line;
smooth = 0;
x = 260;
y = 318;
},
{
segmentType = line;
smooth = 0;
x = 135;
y = 318;
},
{
segmentType = line;
smooth = 1;
x = 135;
y = 190;
},
{
smooth = 0;
x = 135;
y = 34;
},
{
smooth = 0;
x = 188;
y = 31;
},
{
segmentType = curve;
smooth = 1;
x = 227;
y = 25;
},
{
smooth = 0;
x = 227;
y = 25;
},
{
smooth = 0;
x = 294;
y = 14;
},
{
segmentType = curve;
smooth = 0;
x = 301;
y = 14;
},
{
segmentType = line;
smooth = 0;
x = 301;
y = 1;
},
{
segmentType = line;
smooth = 1;
x = 228;
y = 1;
},
{
smooth = 0;
x = 152;
y = 1;
},
{
smooth = 0;
x = 111;
y = 49;
},
{
segmentType = curve;
smooth = 1;
x = 111;
y = 190;
},
{
segmentType = line;
smooth = 0;
x = 111;
y = 318;
},
{
segmentType = line;
smooth = 0;
x = 30;
y = 318;
},
{
segmentType = line;
smooth = 0;
x = 30;
y = 332;
},
{
segmentType = line;
smooth = 0;
x = 111;
y = 332;
},
{
segmentType = line;
smooth = 0;
x = 111;
y = 508;
}
);
}
);
lib = {
};
name = tbar;
unicodes = (
);
width = 350;
};
};
};
},
{
glyphname = Thorn;
lastChange = "2016-12-19 14:59:05 +0000";
layers = (
{
layerId = "1A646CEF-9FB5-4F4A-951A-F8B2030A9B85";
name = Light;
paths = (
{
closed = 1;
nodes = (
"88 0 LINE",
"112 0 LINE",
"112 184 LINE",
"148 182 OFFCURVE",
"274 178 OFFCURVE",
"304 178 CURVE SMOOTH",
"382 178 OFFCURVE",
"490 213 OFFCURVE",
"490 385 CURVE SMOOTH",
"490 554 OFFCURVE",
"393 585 OFFCURVE",
"314 585 CURVE SMOOTH",
"112 585 LINE",
"112 732 LINE",
"88 732 LINE"
);
},
{
closed = 1;
nodes = (
"112 200 LINE",
"112 563 LINE",
"314 563 LINE SMOOTH",
"390 563 OFFCURVE",
"465 532 OFFCURVE",
"465 385 CURVE SMOOTH",
"465 236 OFFCURVE",
"388 200 OFFCURVE",
"304 200 CURVE SMOOTH"
);
}
);
width = 540;
}
);
unicode = 00DE;
userData = {
com.fontlab.hintData = {
hhints = (
{
position = 0;
width = 21;
},
{
position = 149;
width = 24;
},
{
position = 159;
width = 14;
},
{
position = 564;
width = 24;
}
);
vhints = (
{
position = 81;
width = 24;
},
{
position = 474;
width = 24;
}
);
};
com.typemytype.robofont.layerData = {
background = {
anchors = (
);
components = (
);
contours = (
{
points = (
{
segmentType = line;
smooth = 0;
x = 105;
y = 173;
},
{
segmentType = line;
smooth = 1;
x = 322;
y = 173;
},
{
smooth = 0;
x = 416;
y = 173;
},
{
smooth = 0;
x = 474;
y = 220;
},
{
segmentType = curve;
smooth = 1;
x = 474;
y = 377;
},
{
smooth = 0;
x = 474;
y = 540;
},
{
smooth = 0;
x = 388;
y = 563;
},
{
segmentType = curve;
smooth = 0;
x = 322;
y = 564;
},
{
segmentType = line;
smooth = 0;
x = 105;
y = 564;
}
);
},
{
points = (
{
segmentType = line;
smooth = 0;
x = 81;
y = 0;
},
{
smooth = 0;
x = 81;
y = 243;
},
{
smooth = 0;
x = 81;
y = 486;
},
{
segmentType = curve;
smooth = 0;
x = 81;
y = 729;
},
{
segmentType = line;
smooth = 0;
x = 105;
y = 729;
},
{
segmentType = line;
smooth = 0;
x = 105;
y = 588;
},
{
segmentType = line;
smooth = 1;
x = 322;
y = 588;
},
{
smooth = 0;
x = 401;
y = 588;
},
{
smooth = 0;
x = 498;
y = 554;
},
{
segmentType = curve;
smooth = 1;
x = 498;
y = 375;
},
{
smooth = 0;
x = 498;
y = 171;
},
{
smooth = 0;
x = 396;
y = 149;
},
{
segmentType = curve;
smooth = 0;
x = 322;
y = 149;
},
{
smooth = 0;
x = 282;
y = 150;
},
{
smooth = 0;
x = 140;
y = 154;
},
{
segmentType = curve;
smooth = 0;
x = 105;
y = 159;
},
{
segmentType = line;
smooth = 0;
x = 105;
y = 0;
}
);
}
);
lib = {
};
name = Thorn;
unicodes = (
);
width = 540;
};
};
};
},
{
glyphname = thorn;
lastChange = "2016-12-19 14:59:05 +0000";
layers = (
{
layerId = "1A646CEF-9FB5-4F4A-951A-F8B2030A9B85";
name = Light;
paths = (
{
closed = 1;
nodes = (
"115 73 CURVE",
"115 458 LINE",
"168 485 OFFCURVE",
"231 515 OFFCURVE",
"310 515 CURVE SMOOTH",
"395 515 OFFCURVE",
"478 442 OFFCURVE",
"478 268 CURVE SMOOTH",
"478 82 OFFCURVE",
"409 16 OFFCURVE",
"310 16 CURVE SMOOTH",
"244 16 OFFCURVE",
"177 39 OFFCURVE"
);
},
{
closed = 1;
nodes = (
"91 -268 LINE",
"115 -268 LINE",
"115 57 LINE",
"174 21 OFFCURVE",
"245 -6 OFFCURVE",
"310 -6 CURVE SMOOTH",
"433 -6 OFFCURVE",
"502 82 OFFCURVE",
"502 268 CURVE SMOOTH",
"502 390 OFFCURVE",
"455 537 OFFCURVE",
"310 537 CURVE SMOOTH",
"242 537 OFFCURVE",
"149 496 OFFCURVE",
"115 474 CURVE",
"115 783 LINE",
"91 783 LINE"
);
}
);
width = 572;
}
);
unicode = 00FE;
userData = {
com.fontlab.hintData = {
hhints = (
{
position = "-10";
width = 24;
},
{
position = 516;
width = 24;
},
{
position = 762;
width = 20;
}
);
vhints = (
{
position = 94;
width = 24;
},
{
position = 484;
width = 24;
}
);
};
com.typemytype.robofont.layerData = {
background = {
anchors = (
);
components = (
);
contours = (
{
points = (
{
segmentType = line;
smooth = 0;
x = 118;
y = 43;
},
{
smooth = 0;
x = 200;
y = 20;
},
{
smooth = 0;
x = 249;
y = 14;
},
{
segmentType = curve;
smooth = 1;
x = 334;
y = 14;
},
{
smooth = 0;
x = 442;
y = 14;
},
{
smooth = 0;
x = 484;
y = 94;
},
{
segmentType = curve;
smooth = 1;
x = 484;
y = 269;
},
{
smooth = 0;
x = 484;
y = 443;
},
{
smooth = 0;
x = 422;
y = 516;
},
{
segmentType = curve;
smooth = 1;
x = 334;
y = 516;
},
{
smooth = 0;
x = 263;
y = 516;
},
{
smooth = 0;
x = 180;
y = 481;
},
{
segmentType = curve;
smooth = 0;
x = 118;
y = 457;
}
);
},
{
points = (
{
segmentType = line;
smooth = 0;
x = 94;
y = "-270";
},
{
segmentType = line;
smooth = 0;
x = 94;
y = 782;
},
{
segmentType = line;
smooth = 0;
x = 118;
y = 782;
},
{
segmentType = line;
smooth = 0;
x = 118;
y = 471;
},
{
smooth = 0;
x = 144;
y = 490;
},
{
smooth = 0;
x = 266;
y = 540;
},
{
segmentType = curve;
smooth = 1;
x = 334;
y = 540;
},
{
smooth = 0;
x = 470;
y = 540;
},
{
smooth = 0;
x = 508;
y = 403;
},
{
segmentType = curve;
smooth = 1;
x = 508;
y = 267;
},
{
smooth = 0;
x = 508;
y = 133;
},
{
smooth = 0;
x = 488;
y = "-10";
},
{
segmentType = curve;
smooth = 1;
x = 334;
y = "-10";
},
{
smooth = 0;
x = 289;
y = "-10";
},
{
smooth = 0;
x = 182;
y = 3;
},
{
segmentType = curve;
smooth = 0;
x = 118;
y = 29;
},
{
segmentType = line;
smooth = 0;
x = 118;
y = "-270";
}
);
}
);
lib = {
};
name = thorn;
unicodes = (
);
width = 572;
};
};
};
},
{
glyphname = Schwa;
lastChange = "2016-12-19 14:59:05 +0000";
layers = (
{
layerId = "1A646CEF-9FB5-4F4A-951A-F8B2030A9B85";
name = Light;
paths = (
{
closed = 1;
nodes = (
"299 -6 CURVE SMOOTH",
"442 -6 OFFCURVE",
"529 70 OFFCURVE",
"529 370 CURVE SMOOTH",
"529 680 OFFCURVE",
"458 738 OFFCURVE",
"269 738 CURVE SMOOTH",
"202 738 OFFCURVE",
"145 727 OFFCURVE",
"102 718 CURVE",
"102 702 LINE",
"131 706 OFFCURVE",
"177 716 OFFCURVE",
"254 716 CURVE SMOOTH",
"456 716 OFFCURVE",
"504 655 OFFCURVE",
"504 364 CURVE",
"78 364 LINE",
"78 337 LINE SMOOTH",
"78 87 OFFCURVE",
"138 -6 OFFCURVE"
);
},
{
closed = 1;
nodes = (
"296 16 CURVE SMOOTH",
"147 16 OFFCURVE",
"101 102 OFFCURVE",
"101 342 CURVE",
"503 342 LINE",
"502 78 OFFCURVE",
"430 16 OFFCURVE"
);
}
);
width = 599;
}
);
unicode = 018F;
userData = {
com.typemytype.robofont.layerData = {
background = {
anchors = (
);
components = (
);
contours = (
{
points = (
{
segmentType = curve;
smooth = 1;
x = 529;
y = 364;
},
{
smooth = 0;
x = 529;
y = 678;
},
{
smooth = 0;
x = 458;
y = 738;
},
{
segmentType = curve;
smooth = 1;
x = 276;
y = 738;
},
{
smooth = 0;
x = 226;
y = 738;
},
{
smooth = 0;
x = 139;
y = 730;
},
{
segmentType = curve;
smooth = 0;
x = 72;
y = 718;
},
{
segmentType = line;
smooth = 0;
x = 72;
y = 702;
},
{
smooth = 0;
x = 113;
y = 709;
},
{
smooth = 0;
x = 175;
y = 716;
},
{
segmentType = curve;
smooth = 1;
x = 275;
y = 716;
},
{
smooth = 0;
x = 440;
y = 716;
},
{
smooth = 0;
x = 505;
y = 666;
},
{
segmentType = curve;
smooth = 1;
x = 505;
y = 364;
},
{
smooth = 0;
x = 505;
y = 82;
},
{
smooth = 0;
x = 439;
y = 16;
},
{
segmentType = curve;
smooth = 1;
x = 270;
y = 16;
},
{
smooth = 0;
x = 194;
y = 16;
},
{
smooth = 0;
x = 103;
y = 25;
},
{
segmentType = curve;
smooth = 0;
x = 72;
y = 30;
},
{
segmentType = line;
smooth = 0;
x = 72;
y = 14;
},
{
smooth = 0;
x = 142;
y = 1;
},
{
smooth = 0;
x = 234;
y = "-6";
},
{
segmentType = curve;
smooth = 1;
x = 268;
y = "-6";
},
{
smooth = 0;
x = 458;
y = "-6";
},
{
smooth = 0;
x = 529;
y = 71;
}
);
}
);
lib = {
};
name = Schwa;
unicodes = (
);
width = 599;
};
};
};
},
{
glyphname = f_f;
lastChange = "2016-12-19 14:59:05 +0000";
layers = (
{
components = (
{
name = f;
transform = "{1, 0, 0, 1, 374, 0}";
}
);
layerId = "1A646CEF-9FB5-4F4A-951A-F8B2030A9B85";
name = Light;
paths = (
{
closed = 1;
nodes = (
"27 509 LINE",
"114 509 LINE",
"114 0 LINE",
"138 0 LINE",
"138 509 LINE",
"501 509 LINE",
"501 531 LINE",
"138 531 LINE",
"138 630 LINE SMOOTH",
"138 716 OFFCURVE",
"154 764 OFFCURVE",
"248 764 CURVE SMOOTH",
"278 764 OFFCURVE",
"311 761 OFFCURVE",
"343 757 CURVE",
"343 773 LINE",
"316 780 OFFCURVE",
"293 786 OFFCURVE",
"247 786 CURVE SMOOTH",
"137 786 OFFCURVE",
"114 724 OFFCURVE",
"114 630 CURVE SMOOTH",
"114 531 LINE",
"27 525 LINE"
);
}
);
width = 748;
}
);
unicode = FB00;
userData = {
com.fontlab.hintData = {
hhints = (
{
position = 0;
width = 19;
},
{
position = 507;
width = 24;
},
{
position = 507;
width = 12;
},
{
position = 745;
width = 14;
},
{
position = 754;
width = 14;
}
);
vhints = (
{
position = 124;
width = 24;
},
{
position = 484;
width = 24;
}
);
};
com.typemytype.robofont.layerData = {
background = {
anchors = (
);
components = (
);
contours = (
{
points = (
{
segmentType = line;
smooth = 0;
x = 27;
y = 507;
},
{
segmentType = line;
smooth = 0;
x = 27;
y = 519;
},
{
segmentType = line;
smooth = 0;
x = 124;
y = 531;
},
{
segmentType = line;
smooth = 1;
x = 124;
y = 620;
},
{
smooth = 0;
x = 124;
y = 676;
},
{
smooth = 0;
x = 129;
y = 776;
},
{
segmentType = curve;
smooth = 1;
x = 249;
y = 776;
},
{
smooth = 0;
x = 281;
y = 776;
},
{
smooth = 0;
x = 319;
y = 767;
},
{
segmentType = curve;
smooth = 0;
x = 359;
y = 759;
},
{
segmentType = line;
smooth = 0;
x = 359;
y = 745;
},
{
smooth = 0;
x = 358;
y = 745;
},
{
smooth = 0;
x = 252;
y = 752;
},
{
segmentType = curve;
smooth = 1;
x = 252;
y = 752;
},
{
smooth = 0;
x = 187;
y = 756;
},
{
smooth = 0;
x = 148;
y = 717;
},
{
segmentType = curve;
smooth = 1;
x = 148;
y = 620;
},
{
segmentType = line;
smooth = 0;
x = 148;
y = 531;
},
{
segmentType = line;
smooth = 0;
x = 484;
y = 531;
},
{
segmentType = line;
smooth = 1;
x = 484;
y = 630;
},
{
smooth = 0;
x = 484;
y = 684;
},
{
smooth = 0;
x = 487;
y = 786;
},
{
segmentType = curve;
smooth = 1;
x = 577;
y = 786;
},
{
smooth = 0;
x = 607;
y = 786;
},
{
smooth = 0;
x = 691;
y = 778;
},
{
segmentType = curve;
smooth = 0;
x = 727;
y = 768;
},
{
segmentType = line;
smooth = 0;
x = 727;
y = 754;
},
{
smooth = 0;
x = 726;
y = 754;
},
{
smooth = 0;
x = 585;
y = 762;
},
{
segmentType = curve;
smooth = 1;
x = 585;
y = 762;
},
{
smooth = 0;
x = 517;
y = 766;
},
{
smooth = 0;
x = 508;
y = 698;
},
{
segmentType = curve;
smooth = 1;
x = 508;
y = 630;
},
{
segmentType = line;
smooth = 0;
x = 508;
y = 531;
},
{
segmentType = line;
smooth = 0;
x = 686;
y = 531;
},
{
segmentType = line;
smooth = 0;
x = 686;
y = 507;
},
{
segmentType = line;
smooth = 0;
x = 508;
y = 507;
},
{
segmentType = line;
smooth = 0;
x = 508;
y = "-2";
},
{
segmentType = line;
smooth = 0;
x = 484;
y = "-2";
},
{
segmentType = line;
smooth = 0;
x = 484;
y = 507;
},
{
segmentType = line;
smooth = 0;
x = 148;
y = 507;
},
{
segmentType = line;
smooth = 0;
x = 148;
y = 0;
},
{
segmentType = line;
smooth = 0;
x = 124;
y = 0;
},
{
segmentType = line;
smooth = 0;
x = 124;
y = 507;
}
);
}
);
lib = {
};
name = f_f;
unicodes = (
);
width = 748;
};
};
};
},
{
glyphname = fi;
lastChange = "2016-12-19 14:59:05 +0000";
layers = (
{
components = (
{
name = i;
transform = "{1, 0, 0, 1, 374, 0}";
}
);
layerId = "1A646CEF-9FB5-4F4A-951A-F8B2030A9B85";
name = Light;
paths = (
{
closed = 1;
nodes = (
"27 509 LINE",
"114 509 LINE",
"114 0 LINE",
"138 0 LINE",
"138 509 LINE",
"477 509 LINE",
"477 531 LINE",
"138 531 LINE",
"138 630 LINE SMOOTH",
"138 716 OFFCURVE",
"154 764 OFFCURVE",
"248 764 CURVE SMOOTH",
"278 764 OFFCURVE",
"311 761 OFFCURVE",
"343 757 CURVE",
"343 773 LINE",
"316 780 OFFCURVE",
"293 786 OFFCURVE",
"247 786 CURVE SMOOTH",
"137 786 OFFCURVE",
"114 724 OFFCURVE",
"114 630 CURVE SMOOTH",
"114 531 LINE",
"27 525 LINE"
);
}
);
width = 580;
}
);
unicode = FB01;
userData = {
com.fontlab.hintData = {
hhints = (
{
position = 0;
width = 21;
},
{
position = 502;
width = 24;
},
{
position = 502;
width = 14;
},
{
position = 761;
width = 25;
}
);
vhints = (
{
position = 125;
width = 24;
},
{
position = 496;
width = 24;
}
);
};
com.typemytype.robofont.layerData = {
background = {
anchors = (
);
components = (
);
contours = (
{
points = (
{
segmentType = line;
smooth = 0;
x = 27;
y = 502;
},
{
segmentType = line;
smooth = 0;
x = 27;
y = 516;
},
{
segmentType = line;
smooth = 0;
x = 125;
y = 526;
},
{
segmentType = line;
smooth = 1;
x = 125;
y = 584;
},
{
smooth = 0;
x = 125;
y = 702;
},
{
smooth = 0;
x = 182;
y = 786;
},
{
segmentType = curve;
smooth = 1;
x = 302;
y = 786;
},
{
smooth = 0;
x = 338;
y = 786;
},
{
smooth = 0;
x = 415;
y = 782;
},
{
segmentType = curve;
smooth = 0;
x = 481;
y = 767;
},
{
segmentType = line;
smooth = 0;
x = 481;
y = 753;
},
{
smooth = 0;
x = 480;
y = 753;
},
{
smooth = 0;
x = 309;
y = 761;
},
{
segmentType = curve;
smooth = 1;
x = 309;
y = 761;
},
{
smooth = 0;
x = 216;
y = 765;
},
{
smooth = 0;
x = 149;
y = 711;
},
{
segmentType = curve;
smooth = 1;
x = 149;
y = 584;
},
{
segmentType = line;
smooth = 0;
x = 149;
y = 526;
},
{
segmentType = line;
smooth = 0;
x = 520;
y = 519;
},
{
segmentType = line;
smooth = 0;
x = 520;
y = 0;
},
{
segmentType = line;
smooth = 0;
x = 496;
y = 0;
},
{
segmentType = line;
smooth = 0;
x = 496;
y = 502;
},
{
segmentType = line;
smooth = 0;
x = 149;
y = 502;
},
{
segmentType = line;
smooth = 0;
x = 149;
y = 0;
},
{
segmentType = line;
smooth = 0;
x = 125;
y = 0;
},
{
segmentType = line;
smooth = 0;
x = 125;
y = 502;
}
);
}
);
lib = {
};
name = fi;
unicodes = (
);
width = 580;
};
};
};
},
{
glyphname = fl;
lastChange = "2016-12-19 14:59:05 +0000";
layers = (
{
layerId = "1A646CEF-9FB5-4F4A-951A-F8B2030A9B85";
name = Light;
paths = (
{
closed = 1;
nodes = (
"27 509 LINE",
"114 509 LINE",
"114 0 LINE",
"138 0 LINE",
"138 509 LINE",
"326 509 LINE",
"326 531 LINE",
"138 531 LINE",
"138 630 LINE SMOOTH",
"138 716 OFFCURVE",
"159 764 OFFCURVE",
"278 764 CURVE SMOOTH",
"344 764 OFFCURVE",
"418 759 OFFCURVE",
"489 737 CURVE",
"489 753 LINE",
"427 773 OFFCURVE",
"367 786 OFFCURVE",
"277 786 CURVE SMOOTH",
"142 786 OFFCURVE",
"114 724 OFFCURVE",
"114 630 CURVE SMOOTH",
"114 531 LINE",
"27 525 LINE"
);
},
{
closed = 1;
nodes = (
"465 169 LINE SMOOTH",
"465 35 OFFCURVE",
"509 0 OFFCURVE",
"583 0 CURVE SMOOTH",
"643 0 LINE",
"643 16 LINE",
"579 23 LINE SMOOTH",
"524 29 OFFCURVE",
"489 48 OFFCURVE",
"489 169 CURVE SMOOTH",
"489 753 LINE",
"465 753 LINE"
);
}
);
width = 652;
}
);
unicode = FB02;
userData = {
com.fontlab.hintData = {
hhints = (
{
position = 3;
width = 13;
},
{
position = 507;
width = 24;
},
{
position = 507;
width = 14;
},
{
position = 762;
width = 24;
}
);
vhints = (
{
position = 125;
width = 24;
},
{
position = 504;
width = 24;
}
);
};
com.typemytype.robofont.layerData = {
background = {
anchors = (
);
components = (
);
contours = (
{
points = (
{
segmentType = line;
smooth = 0;
x = 27;
y = 507;
},
{
segmentType = line;
smooth = 0;
x = 27;
y = 521;
},
{
segmentType = line;
smooth = 0;
x = 125;
y = 531;
},
{
segmentType = line;
smooth = 1;
x = 125;
y = 584;
},
{
smooth = 0;
x = 125;
y = 692;
},
{
smooth = 0;
x = 169;
y = 786;
},
{
segmentType = curve;
smooth = 1;
x = 289;
y = 786;
},
{
segmentType = line;
smooth = 0;
x = 528;
y = 786;
},
{
segmentType = line;
smooth = 1;
x = 528;
y = 192;
},
{
smooth = 0;
x = 528;
y = 35;
},
{
smooth = 0;
x = 590;
y = 31;
},
{
segmentType = curve;
smooth = 1;
x = 620;
y = 27;
},
{
smooth = 0;
x = 620;
y = 27;
},
{
smooth = 0;
x = 687;
y = 16;
},
{
segmentType = curve;
smooth = 0;
x = 694;
y = 16;
},
{
segmentType = line;
smooth = 0;
x = 694;
y = 3;
},
{
segmentType = line;
smooth = 1;
x = 627;
y = 3;
},
{
smooth = 0;
x = 543;
y = 3;
},
{
smooth = 0;
x = 504;
y = 60;
},
{
segmentType = curve;
smooth = 1;
x = 504;
y = 192;
},
{
segmentType = line;
smooth = 0;
x = 504;
y = 762;
},
{
segmentType = line;
smooth = 1;
x = 294;
y = 762;
},
{
smooth = 0;
x = 207;
y = 762;
},
{
smooth = 0;
x = 149;
y = 710;
},
{
segmentType = curve;
smooth = 1;
x = 149;
y = 584;
},
{
segmentType = line;
smooth = 0;
x = 149;
y = 531;
},
{
segmentType = line;
smooth = 0;
x = 296;
y = 531;
},
{
segmentType = line;
smooth = 0;
x = 296;
y = 507;
},
{
segmentType = line;
smooth = 0;
x = 149;
y = 507;
},
{
segmentType = line;
smooth = 0;
x = 149;
y = 0;
},
{
segmentType = line;
smooth = 0;
x = 125;
y = 0;
},
{
segmentType = line;
smooth = 0;
x = 125;
y = 507;
}
);
}
);
lib = {
};
name = fl;
unicodes = (
);
width = 652;
};
};
};
},
{
glyphname = f_f_i;
lastChange = "2016-12-19 14:59:05 +0000";
layers = (
{
components = (
{
name = fi;
transform = "{1, 0, 0, 1, 374, 0}";
}
);
layerId = "1A646CEF-9FB5-4F4A-951A-F8B2030A9B85";
name = Light;
paths = (
{
closed = 1;
nodes = (
"27 509 LINE",
"114 509 LINE",
"114 0 LINE",
"138 0 LINE",
"138 509 LINE",
"499 509 LINE",
"499 531 LINE",
"138 531 LINE",
"138 630 LINE SMOOTH",
"138 716 OFFCURVE",
"154 764 OFFCURVE",
"248 764 CURVE SMOOTH",
"278 764 OFFCURVE",
"311 761 OFFCURVE",
"343 757 CURVE",
"343 773 LINE",
"316 780 OFFCURVE",
"293 786 OFFCURVE",
"247 786 CURVE SMOOTH",
"137 786 OFFCURVE",
"114 724 OFFCURVE",
"114 630 CURVE SMOOTH",
"114 531 LINE",
"27 525 LINE"
);
}
);
width = 954;
}
);
unicode = FB03;
userData = {
com.fontlab.hintData = {
hhints = (
{
position = 0;
width = 21;
},
{
position = 507;
width = 24;
},
{
position = 507;
width = 17;
},
{
position = 745;
width = 14;
},
{
position = 761;
width = 25;
}
);
vhints = (
{
position = 124;
width = 24;
},
{
position = 485;
width = 24;
},
{
position = 856;
width = 24;
}
);
};
com.typemytype.robofont.layerData = {
background = {
anchors = (
);
components = (
);
contours = (
{
points = (
{
segmentType = line;
smooth = 0;
x = 27;
y = 507;
},
{
segmentType = line;
smooth = 0;
x = 27;
y = 519;
},
{
segmentType = line;
smooth = 0;
x = 124;
y = 531;
},
{
segmentType = line;
smooth = 1;
x = 124;
y = 620;
},
{
smooth = 0;
x = 124;
y = 676;
},
{
smooth = 0;
x = 129;
y = 776;
},
{
segmentType = curve;
smooth = 1;
x = 249;
y = 776;
},
{
smooth = 0;
x = 281;
y = 776;
},
{
smooth = 0;
x = 319;
y = 767;
},
{
segmentType = curve;
smooth = 0;
x = 359;
y = 759;
},
{
segmentType = line;
smooth = 0;
x = 359;
y = 745;
},
{
smooth = 0;
x = 358;
y = 745;
},
{
smooth = 0;
x = 252;
y = 752;
},
{
segmentType = curve;
smooth = 1;
x = 252;
y = 752;
},
{
smooth = 0;
x = 187;
y = 756;
},
{
smooth = 0;
x = 148;
y = 717;
},
{
segmentType = curve;
smooth = 1;
x = 148;
y = 620;
},
{
segmentType = line;
smooth = 0;
x = 148;
y = 531;
},
{
segmentType = line;
smooth = 0;
x = 485;
y = 531;
},
{
segmentType = line;
smooth = 1;
x = 485;
y = 584;
},
{
smooth = 0;
x = 485;
y = 702;
},
{
smooth = 0;
x = 542;
y = 786;
},
{
segmentType = curve;
smooth = 1;
x = 662;
y = 786;
},
{
smooth = 0;
x = 698;
y = 786;
},
{
smooth = 0;
x = 775;
y = 782;
},
{
segmentType = curve;
smooth = 0;
x = 841;
y = 767;
},
{
segmentType = line;
smooth = 0;
x = 841;
y = 753;
},
{
smooth = 0;
x = 840;
y = 753;
},
{
smooth = 0;
x = 669;
y = 761;
},
{
segmentType = curve;
smooth = 1;
x = 669;
y = 761;
},
{
smooth = 0;
x = 576;
y = 765;
},
{
smooth = 0;
x = 509;
y = 711;
},
{
segmentType = curve;
smooth = 1;
x = 509;
y = 584;
},
{
segmentType = line;
smooth = 0;
x = 509;
y = 531;
},
{
segmentType = line;
smooth = 0;
x = 880;
y = 524;
},
{
segmentType = line;
smooth = 0;
x = 880;
y = 0;
},
{
segmentType = line;
smooth = 0;
x = 856;
y = 0;
},
{
segmentType = line;
smooth = 0;
x = 856;
y = 507;
},
{
segmentType = line;
smooth = 0;
x = 509;
y = 507;
},
{
segmentType = line;
smooth = 0;
x = 509;
y = 0;
},
{
segmentType = line;
smooth = 0;
x = 485;
y = 0;
},
{
segmentType = line;
smooth = 0;
x = 485;
y = 507;
},
{
segmentType = line;
smooth = 0;
x = 148;
y = 507;
},
{
segmentType = line;
smooth = 0;
x = 148;
y = 0;
},
{
segmentType = line;
smooth = 0;
x = 124;
y = 0;
},
{
segmentType = line;
smooth = 0;
x = 124;
y = 507;
}
);
}
);
lib = {
};
name = f_f_i;
unicodes = (
);
width = 954;
};
};
};
},
{
glyphname = f_f_l;
lastChange = "2016-12-19 14:59:05 +0000";
layers = (
{
components = (
{
name = fl;
transform = "{1, 0, 0, 1, 374, 0}";
}
);
layerId = "1A646CEF-9FB5-4F4A-951A-F8B2030A9B85";
name = Light;
paths = (
{
closed = 1;
nodes = (
"27 509 LINE",
"114 509 LINE",
"114 0 LINE",
"138 0 LINE",
"138 509 LINE",
"500 509 LINE",
"500 531 LINE",
"138 531 LINE",
"138 630 LINE SMOOTH",
"138 716 OFFCURVE",
"154 764 OFFCURVE",
"248 764 CURVE SMOOTH",
"278 764 OFFCURVE",
"311 761 OFFCURVE",
"343 757 CURVE",
"343 773 LINE",
"316 780 OFFCURVE",
"293 786 OFFCURVE",
"247 786 CURVE SMOOTH",
"137 786 OFFCURVE",
"114 724 OFFCURVE",
"114 630 CURVE SMOOTH",
"114 531 LINE",
"27 525 LINE"
);
}
);
width = 1026;
}
);
},
{
glyphname = ampersand;
lastChange = "2016-12-19 14:59:05 +0000";
layers = (
{
layerId = "1A646CEF-9FB5-4F4A-951A-F8B2030A9B85";
name = Light;
paths = (
{
closed = 1;
nodes = (
"135 18 OFFCURVE",
"69 83 OFFCURVE",
"69 187 CURVE SMOOTH",
"69 246 OFFCURVE",
"92 306 OFFCURVE",
"163 365 CURVE SMOOTH",
"227 418 LINE",
"440 130 LINE",
"394 87 LINE SMOOTH",
"330 27 OFFCURVE",
"293 18 OFFCURVE",
"240 18 CURVE SMOOTH"
);
},
{
closed = 1;
nodes = (
"45 68 OFFCURVE",
"128 -6 OFFCURVE",
"239 -6 CURVE SMOOTH",
"302 -6 OFFCURVE",
"345 8 OFFCURVE",
"414 72 CURVE SMOOTH",
"456 111 LINE",
"538 0 LINE",
"569 0 LINE",
"475 127 LINE",
"553 201 LINE",
"623 286 LINE",
"613 295 LINE",
"459 146 LINE",
"204 493 LINE SMOOTH",
"171 538 OFFCURVE",
"150 572 OFFCURVE",
"150 614 CURVE SMOOTH",
"150 676 OFFCURVE",
"218 710 OFFCURVE",
"296 710 CURVE SMOOTH",
"446 710 LINE",
"446 726 LINE",
"403 729 OFFCURVE",
"374 732 OFFCURVE",
"299 732 CURVE SMOOTH",
"205 732 OFFCURVE",
"126 699 OFFCURVE",
"126 612 CURVE SMOOTH",
"126 573 OFFCURVE",
"147 526 OFFCURVE",
"181 481 CURVE SMOOTH",
"214 437 LINE",
"143 377 LINE SMOOTH",
"72 317 OFFCURVE",
"45 253 OFFCURVE",
"45 186 CURVE SMOOTH"
);
}
);
width = 653;
}
);
unicode = 0026;
userData = {
com.fontlab.hintData = {
hhints = (
{
position = 0;
width = 21;
},
{
position = 710;
width = 14;
}
);
};
com.typemytype.robofont.layerData = {
background = {
anchors = (
);
components = (
);
contours = (
{
points = (
{
segmentType = curve;
smooth = 1;
x = 110;
y = 97;
},
{
smooth = 0;
x = 172;
y = 14;
},
{
smooth = 0;
x = 289;
y = "-11";
},
{
segmentType = curve;
smooth = 1;
x = 365;
y = 60;
},
{
segmentType = line;
smooth = 0;
x = 440;
y = 130;
},
{
segmentType = line;
smooth = 0;
x = 227;
y = 418;
},
{
segmentType = line;
smooth = 1;
x = 149;
y = 353;
},
{
smooth = 0;
x = 59;
y = 278;
},
{
smooth = 0;
x = 44;
y = 185;
}
);
},
{
points = (
{
segmentType = curve;
smooth = 1;
x = 91;
y = 82;
},
{
smooth = 0;
x = 13;
y = 182;
},
{
smooth = 0;
x = 40;
y = 292;
},
{
segmentType = curve;
smooth = 1;
x = 127;
y = 366;
},
{
segmentType = line;
smooth = 0;
x = 213;
y = 439;
},
{
segmentType = line;
smooth = 1;
x = 150;
y = 524;
},
{
smooth = 0;
x = 71;
y = 631;
},
{
smooth = 0;
x = 145;
y = 707;
},
{
segmentType = curve;
smooth = 1;
x = 219;
y = 725;
},
{
smooth = 0;
x = 277;
y = 739;
},
{
smooth = 0;
x = 414;
y = 730;
},
{
segmentType = curve;
smooth = 0;
x = 486;
y = 724;
},
{
segmentType = line;
smooth = 0;
x = 486;
y = 710;
},
{
segmentType = line;
smooth = 1;
x = 283;
y = 710;
},
{
smooth = 0;
x = 189;
y = 710;
},
{
smooth = 0;
x = 88;
y = 649;
},
{
segmentType = curve;
smooth = 1;
x = 170;
y = 538;
},
{
segmentType = line;
smooth = 0;
x = 459;
y = 146;
},
{
segmentType = line;
smooth = 0;
x = 613;
y = 295;
},
{
segmentType = line;
smooth = 0;
x = 622;
y = 287;
},
{
segmentType = line;
smooth = 0;
x = 553;
y = 201;
},
{
segmentType = line;
smooth = 0;
x = 475;
y = 127;
},
{
segmentType = line;
smooth = 0;
x = 569;
y = 0;
},
{
segmentType = line;
smooth = 0;
x = 538;
y = 0;
},
{
segmentType = line;
smooth = 0;
x = 456;
y = 111;
},
{
segmentType = line;
smooth = 1;
x = 384;
y = 44;
},
{
smooth = 0;
x = 304;
y = "-31";
},
{
smooth = 0;
x = 173;
y = "-23";
}
);
}
);
lib = {
};
name = ampersand;
unicodes = (
);
width = 653;
};
};
};
},
{
glyphname = at;
lastChange = "2016-12-19 14:59:05 +0000";
layers = (
{
layerId = "1A646CEF-9FB5-4F4A-951A-F8B2030A9B85";
name = Light;
paths = (
{
closed = 1;
nodes = (
"257 114 CURVE SMOOTH",
"257 159 LINE SMOOTH",
"257 239 OFFCURVE",
"327 248 OFFCURVE",
"367 250 CURVE SMOOTH",
"585 260 LINE",
"585 78 LINE",
"535 54 OFFCURVE",
"427 15 OFFCURVE",
"368 15 CURVE SMOOTH",
"300 15 OFFCURVE",
"257 54 OFFCURVE"
);
},
{
closed = 1;
nodes = (
"88 0 LINE SMOOTH",
"88 -116 OFFCURVE",
"154 -178 OFFCURVE",
"256 -178 CURVE SMOOTH",
"575 -178 LINE SMOOTH",
"713 -178 OFFCURVE",
"752 -98 OFFCURVE",
"752 0 CURVE SMOOTH",
"752 512 LINE SMOOTH",
"752 637 OFFCURVE",
"681 700 OFFCURVE",
"575 700 CURVE SMOOTH",
"474 700 LINE SMOOTH",
"348 700 OFFCURVE",
"234 700 OFFCURVE",
"186 690 CURVE",
"186 676 LINE",
"575 676 LINE SMOOTH",
"679 676 OFFCURVE",
"728 606 OFFCURVE",
"728 512 CURVE SMOOTH",
"728 0 LINE SMOOTH",
"728 -102 OFFCURVE",
"678 -153 OFFCURVE",
"575 -153 CURVE SMOOTH",
"256 -153 LINE SMOOTH",
"188 -153 OFFCURVE",
"112 -118 OFFCURVE",
"112 0 CURVE SMOOTH",
"112 348 LINE SMOOTH",
"112 451 OFFCURVE",
"170 488 OFFCURVE",
"256 488 CURVE SMOOTH",
"453 488 LINE SMOOTH",
"533 488 OFFCURVE",
"585 452 OFFCURVE",
"585 370 CURVE SMOOTH",
"585 274 LINE",
"362 274 LINE SMOOTH",
"279 274 OFFCURVE",
"233 229 OFFCURVE",
"233 161 CURVE SMOOTH",
"233 108 LINE SMOOTH",
"233 40 OFFCURVE",
"287 -9 OFFCURVE",
"361 -9 CURVE SMOOTH",
"452 -9 OFFCURVE",
"584 64 OFFCURVE",
"586 64 CURVE",
"593 0 LINE",
"609 0 LINE",
"609 372 LINE SMOOTH",
"609 482 OFFCURVE",
"527 512 OFFCURVE",
"456 512 CURVE SMOOTH",
"256 512 LINE SMOOTH",
"90 512 OFFCURVE",
"88 384 OFFCURVE",
"88 348 CURVE SMOOTH"
);
}
);
width = 866;
}
);
unicode = 0040;
userData = {
com.fontlab.hintData = {
hhints = (
{
position = "-178";
width = 25;
},
{
position = "-9";
width = 24;
},
{
position = 0;
width = 21;
},
{
position = 270;
width = 24;
},
{
position = 488;
width = 24;
},
{
position = 676;
width = 24;
},
{
position = 676;
width = 14;
}
);
vhints = (
{
position = 88;
width = 24;
},
{
position = 233;
width = 24;
},
{
position = 585;
width = 24;
},
{
position = 593;
width = 16;
},
{
position = 728;
width = 24;
}
);
};
com.typemytype.robofont.layerData = {
background = {
anchors = (
);
components = (
);
contours = (
{
points = (
{
segmentType = curve;
smooth = 0;
x = 257;
y = 114;
},
{
smooth = 0;
x = 257;
y = 54;
},
{
smooth = 0;
x = 300;
y = 15;
},
{
segmentType = curve;
smooth = 0;
x = 368;
y = 15;
},
{
smooth = 0;
x = 427;
y = 14;
},
{
smooth = 0;
x = 535;
y = 54;
},
{
segmentType = curve;
smooth = 0;
x = 585;
y = 78;
},
{
segmentType = line;
smooth = 0;
x = 585;
y = 280;
},
{
segmentType = line;
smooth = 1;
x = 367;
y = 270;
},
{
smooth = 0;
x = 327;
y = 268;
},
{
smooth = 0;
x = 257;
y = 257;
},
{
segmentType = curve;
smooth = 0;
x = 257;
y = 159;
},
{
smooth = 0;
x = 256;
y = 158;
},
{
smooth = 0;
x = 256;
y = 115;
}
);
},
{
points = (
{
segmentType = curve;
smooth = 1;
x = 88;
y = 0;
},
{
segmentType = line;
smooth = 1;
x = 88;
y = 348;
},
{
smooth = 0;
x = 88;
y = 384;
},
{
smooth = 0;
x = 90;
y = 512;
},
{
segmentType = curve;
smooth = 1;
x = 256;
y = 512;
},
{
segmentType = line;
smooth = 1;
x = 456;
y = 512;
},
{
smooth = 0;
x = 527;
y = 512;
},
{
smooth = 0;
x = 609;
y = 482;
},
{
segmentType = curve;
smooth = 1;
x = 609;
y = 372;
},
{
segmentType = line;
smooth = 0;
x = 609;
y = 0;
},
{
segmentType = line;
smooth = 0;
x = 593;
y = 0;
},
{
segmentType = line;
smooth = 0;
x = 586;
y = 64;
},
{
smooth = 0;
x = 584;
y = 64;
},
{
smooth = 0;
x = 452;
y = "-9";
},
{
segmentType = curve;
smooth = 0;
x = 361;
y = "-9";
},
{
smooth = 0;
x = 287;
y = "-11";
},
{
smooth = 0;
x = 232;
y = 40;
},
{
segmentType = curve;
smooth = 0;
x = 233;
y = 108;
},
{
segmentType = line;
smooth = 1;
x = 233;
y = 161;
},
{
smooth = 0;
x = 233;
y = 241;
},
{
smooth = 0;
x = 279;
y = 294;
},
{
segmentType = curve;
smooth = 1;
x = 362;
y = 294;
},
{
smooth = 0;
x = 449;
y = 294;
},
{
smooth = 0;
x = 585;
y = 293;
},
{
segmentType = curve;
smooth = 1;
x = 585;
y = 294;
},
{
smooth = 0;
x = 585;
y = 294;
},
{
smooth = 0;
x = 586;
y = 369;
},
{
segmentType = curve;
smooth = 0;
x = 585;
y = 370;
},
{
smooth = 0;
x = 585;
y = 452;
},
{
smooth = 0;
x = 533;
y = 488;
},
{
segmentType = curve;
smooth = 1;
x = 453;
y = 488;
},
{
segmentType = line;
smooth = 1;
x = 256;
y = 488;
},
{
smooth = 0;
x = 170;
y = 488;
},
{
smooth = 0;
x = 112;
y = 451;
},
{
segmentType = curve;
smooth = 1;
x = 112;
y = 348;
},
{
segmentType = line;
smooth = 1;
x = 112;
y = 0;
},
{
smooth = 0;
x = 112;
y = "-118";
},
{
smooth = 0;
x = 188;
y = "-153";
},
{
segmentType = curve;
smooth = 1;
x = 256;
y = "-153";
},
{
segmentType = line;
smooth = 1;
x = 575;
y = "-153";
},
{
smooth = 0;
x = 678;
y = "-153";
},
{
smooth = 0;
x = 728;
y = "-102";
},
{
segmentType = curve;
smooth = 1;
x = 728;
y = 0;
},
{
segmentType = line;
smooth = 1;
x = 728;
y = 512;
},
{
smooth = 0;
x = 728;
y = 606;
},
{
smooth = 0;
x = 679;
y = 676;
},
{
segmentType = curve;
smooth = 1;
x = 575;
y = 676;
},
{
segmentType = line;
smooth = 0;
x = 186;
y = 676;
},
{
segmentType = line;
smooth = 0;
x = 186;
y = 690;
},
{
smooth = 0;
x = 234;
y = 700;
},
{
smooth = 0;
x = 348;
y = 701;
},
{
segmentType = curve;
smooth = 0;
x = 474;
y = 700;
},
{
segmentType = line;
smooth = 0;
x = 575;
y = 700;
},
{
smooth = 0;
x = 681;
y = 698;
},
{
smooth = 0;
x = 752;
y = 637;
},
{
segmentType = curve;
smooth = 1;
x = 752;
y = 512;
},
{
segmentType = line;
smooth = 1;
x = 752;
y = 0;
},
{
smooth = 0;
x = 752;
y = "-98";
},
{
smooth = 0;
x = 713;
y = "-178";
},
{
segmentType = curve;
smooth = 1;
x = 575;
y = "-178";
},
{
segmentType = line;
smooth = 1;
x = 256;
y = "-178";
},
{
smooth = 0;
x = 154;
y = "-178";
},
{
smooth = 0;
x = 88;
y = "-116";
}
);
}
);
lib = {
};
name = at;
unicodes = (
);
width = 866;
};
};
};
},
{
glyphname = asterisk;
lastChange = "2016-12-19 14:59:05 +0000";
layers = (
{
layerId = "1A646CEF-9FB5-4F4A-951A-F8B2030A9B85";
name = Light;
paths = (
{
closed = 1;
nodes = (
"283 552 LINE",
"301 533 LINE",
"403 623 LINE",
"395 635 LINE"
);
},
{
closed = 1;
nodes = (
"239 495 LINE",
"361 424 LINE",
"369 435 LINE",
"251 518 LINE"
);
},
{
closed = 1;
nodes = (
"206 723 LINE",
"262 593 LINE",
"286 604 LINE",
"219 727 LINE"
);
},
{
closed = 1;
nodes = (
"148 409 LINE",
"161 405 LINE",
"207 539 LINE",
"181 543 LINE"
);
},
{
closed = 1;
nodes = (
"68 592 LINE",
"210 586 LINE",
"210 610 LINE",
"68 606 LINE"
);
}
);
width = 469;
}
);
unicode = 002A;
userData = {
com.fontlab.hintData = {
hhints = (
{
position = 592;
width = 14;
}
);
};
com.typemytype.robofont.layerData = {
background = {
anchors = (
);
components = (
);
contours = (
{
points = (
{
segmentType = line;
smooth = 0;
x = 283;
y = 552;
},
{
segmentType = line;
smooth = 0;
x = 395;
y = 635;
},
{
segmentType = line;
smooth = 0;
x = 403;
y = 623;
},
{
segmentType = line;
smooth = 0;
x = 301;
y = 533;
}
);
},
{
points = (
{
segmentType = line;
smooth = 0;
x = 239;
y = 495;
},
{
segmentType = line;
smooth = 0;
x = 251;
y = 518;
},
{
segmentType = line;
smooth = 0;
x = 369;
y = 435;
},
{
segmentType = line;
smooth = 0;
x = 361;
y = 424;
}
);
},
{
points = (
{
segmentType = line;
smooth = 0;
x = 206;
y = 723;
},
{
segmentType = line;
smooth = 0;
x = 219;
y = 727;
},
{
segmentType = line;
smooth = 0;
x = 286;
y = 604;
},
{
segmentType = line;
smooth = 0;
x = 262;
y = 593;
}
);
},
{
points = (
{
segmentType = line;
smooth = 0;
x = 148;
y = 409;
},
{
segmentType = line;
smooth = 0;
x = 181;
y = 543;
},
{
segmentType = line;
smooth = 0;
x = 207;
y = 539;
},
{
segmentType = line;
smooth = 0;
x = 161;
y = 405;
}
);
},
{
points = (
{
segmentType = line;
smooth = 0;
x = 68;
y = 592;
},
{
segmentType = line;
smooth = 0;
x = 68;
y = 606;
},
{
segmentType = line;
smooth = 0;
x = 210;
y = 610;
},
{
segmentType = line;
smooth = 0;
x = 210;
y = 586;
}
);
}
);
lib = {
};
name = asterisk;
unicodes = (
);
width = 469;
};
};
};
},
{
glyphname = copyright;
lastChange = "2016-12-19 14:59:05 +0000";
layers = (
{
layerId = "1A646CEF-9FB5-4F4A-951A-F8B2030A9B85";
name = Light;
paths = (
{
closed = 1;
nodes = (
"250 365 CURVE SMOOTH",
"250 188 OFFCURVE",
"315 147 OFFCURVE",
"394 147 CURVE SMOOTH",
"461 147 OFFCURVE",
"514 150 OFFCURVE",
"578 168 CURVE",
"578 177 LINE",
"531 166 OFFCURVE",
"466 161 OFFCURVE",
"394 161 CURVE SMOOTH",
"299 161 OFFCURVE",
"264 235 OFFCURVE",
"264 362 CURVE SMOOTH",
"264 511 OFFCURVE",
"316 569 OFFCURVE",
"394 569 CURVE SMOOTH",
"427 569 OFFCURVE",
"509 566 OFFCURVE",
"572 557 CURVE",
"572 566 LINE",
"516 576 OFFCURVE",
"435 583 OFFCURVE",
"394 583 CURVE SMOOTH",
"313 583 OFFCURVE",
"250 526 OFFCURVE"
);
},
{
closed = 1;
nodes = (
"88 368 CURVE SMOOTH",
"91 639 OFFCURVE",
"204 718 OFFCURVE",
"315 718 CURVE SMOOTH",
"571 718 LINE SMOOTH",
"722 718 OFFCURVE",
"776 559 OFFCURVE",
"776 368 CURVE SMOOTH",
"776 137 OFFCURVE",
"684 14 OFFCURVE",
"571 14 CURVE SMOOTH",
"315 14 LINE SMOOTH",
"159 14 OFFCURVE",
"86 211 OFFCURVE"
);
},
{
closed = 1;
nodes = (
"74 368 CURVE SMOOTH",
"74 234 OFFCURVE",
"131 0 OFFCURVE",
"315 0 CURVE SMOOTH",
"571 0 LINE SMOOTH",
"722 0 OFFCURVE",
"790 175 OFFCURVE",
"790 368 CURVE SMOOTH",
"790 492 OFFCURVE",
"767 732 OFFCURVE",
"571 732 CURVE SMOOTH",
"315 732 LINE SMOOTH",
"123 732 OFFCURVE",
"74 531 OFFCURVE"
);
}
);
width = 864;
}
);
unicode = 00A9;
userData = {
com.fontlab.hintData = {
hhints = (
{
position = 0;
width = 14;
},
{
position = 147;
width = 14;
},
{
position = 569;
width = 14;
},
{
position = 718;
width = 14;
}
);
vhints = (
{
position = 74;
width = 14;
},
{
position = 250;
width = 14;
},
{
position = 776;
width = 14;
}
);
};
com.typemytype.robofont.layerData = {
background = {
anchors = (
);
components = (
);
contours = (
{
points = (
{
segmentType = curve;
smooth = 1;
x = 250;
y = 365;
},
{
smooth = 0;
x = 250;
y = 526;
},
{
smooth = 0;
x = 313;
y = 583;
},
{
segmentType = curve;
smooth = 1;
x = 394;
y = 583;
},
{
smooth = 0;
x = 435;
y = 583;
},
{
smooth = 0;
x = 516;
y = 576;
},
{
segmentType = curve;
smooth = 0;
x = 572;
y = 566;
},
{
segmentType = line;
smooth = 0;
x = 572;
y = 557;
},
{
smooth = 0;
x = 509;
y = 566;
},
{
smooth = 0;
x = 427;
y = 569;
},
{
segmentType = curve;
smooth = 1;
x = 394;
y = 569;
},
{
smooth = 0;
x = 316;
y = 569;
},
{
smooth = 0;
x = 264;
y = 511;
},
{
segmentType = curve;
smooth = 1;
x = 264;
y = 362;
},
{
smooth = 0;
x = 264;
y = 235;
},
{
smooth = 0;
x = 299;
y = 161;
},
{
segmentType = curve;
smooth = 1;
x = 394;
y = 161;
},
{
smooth = 0;
x = 466;
y = 161;
},
{
smooth = 0;
x = 531;
y = 166;
},
{
segmentType = curve;
smooth = 0;
x = 578;
y = 177;
},
{
segmentType = line;
smooth = 0;
x = 578;
y = 168;
},
{
smooth = 0;
x = 514;
y = 150;
},
{
smooth = 0;
x = 461;
y = 147;
},
{
segmentType = curve;
smooth = 1;
x = 394;
y = 147;
},
{
smooth = 0;
x = 315;
y = 147;
},
{
smooth = 0;
x = 250;
y = 188;
}
);
},
{
points = (
{
segmentType = curve;
smooth = 1;
x = 88;
y = 368;
},
{
smooth = 0;
x = 86;
y = 211;
},
{
smooth = 0;
x = 159;
y = 14;
},
{
segmentType = curve;
smooth = 1;
x = 315;
y = 14;
},
{
segmentType = line;
smooth = 1;
x = 571;
y = 14;
},
{
smooth = 0;
x = 684;
y = 14;
},
{
smooth = 0;
x = 776;
y = 137;
},
{
segmentType = curve;
smooth = 1;
x = 776;
y = 368;
},
{
smooth = 0;
x = 776;
y = 559;
},
{
smooth = 0;
x = 722;
y = 718;
},
{
segmentType = curve;
smooth = 1;
x = 571;
y = 718;
},
{
segmentType = line;
smooth = 1;
x = 315;
y = 718;
},
{
smooth = 0;
x = 204;
y = 718;
},
{
smooth = 0;
x = 91;
y = 639;
}
);
},
{
points = (
{
segmentType = curve;
smooth = 1;
x = 74;
y = 368;
},
{
smooth = 0;
x = 74;
y = 531;
},
{
smooth = 0;
x = 123;
y = 732;
},
{
segmentType = curve;
smooth = 1;
x = 315;
y = 732;
},
{
segmentType = line;
smooth = 1;
x = 571;
y = 732;
},
{
smooth = 0;
x = 767;
y = 732;
},
{
smooth = 0;
x = 790;
y = 492;
},
{
segmentType = curve;
smooth = 1;
x = 790;
y = 368;
},
{
smooth = 0;
x = 790;
y = 175;
},
{
smooth = 0;
x = 722;
y = 0;
},
{
segmentType = curve;
smooth = 1;
x = 571;
y = 0;
},
{
segmentType = line;
smooth = 1;
x = 315;
y = 0;
},
{
smooth = 0;
x = 131;
y = 0;
},
{
smooth = 0;
x = 74;
y = 234;
}
);
}
);
lib = {
};
name = copyright;
unicodes = (
);
width = 864;
};
};
};
},
{
glyphname = registered;
lastChange = "2016-12-19 14:59:05 +0000";
layers = (
{
layerId = "1A646CEF-9FB5-4F4A-951A-F8B2030A9B85";
name = Light;
paths = (
{
closed = 1;
nodes = (
"299 359 LINE",
"299 566 LINE",
"468 566 LINE SMOOTH",
"532 566 OFFCURVE",
"572 539 OFFCURVE",
"572 453 CURVE SMOOTH",
"572 373 OFFCURVE",
"536 359 OFFCURVE",
"468 359 CURVE SMOOTH"
);
},
{
closed = 1;
nodes = (
"285 153 LINE",
"299 153 LINE",
"299 350 LINE",
"458 345 LINE",
"569 153 LINE",
"586 153 LINE",
"475 346 LINE",
"508 349 OFFCURVE",
"586 339 OFFCURVE",
"586 454 CURVE SMOOTH",
"586 560 OFFCURVE",
"528 580 OFFCURVE",
"462 580 CURVE SMOOTH",
"285 580 LINE"
);
},
{
closed = 1;
nodes = (
"88 368 CURVE SMOOTH",
"91 639 OFFCURVE",
"204 718 OFFCURVE",
"315 718 CURVE SMOOTH",
"571 718 LINE SMOOTH",
"722 718 OFFCURVE",
"776 559 OFFCURVE",
"776 368 CURVE SMOOTH",
"776 137 OFFCURVE",
"684 14 OFFCURVE",
"571 14 CURVE SMOOTH",
"315 14 LINE SMOOTH",
"159 14 OFFCURVE",
"86 211 OFFCURVE"
);
},
{
closed = 1;
nodes = (
"74 368 CURVE SMOOTH",
"74 234 OFFCURVE",
"131 0 OFFCURVE",
"315 0 CURVE SMOOTH",
"571 0 LINE SMOOTH",
"722 0 OFFCURVE",
"790 175 OFFCURVE",
"790 368 CURVE SMOOTH",
"790 492 OFFCURVE",
"767 732 OFFCURVE",
"571 732 CURVE SMOOTH",
"315 732 LINE SMOOTH",
"123 732 OFFCURVE",
"74 531 OFFCURVE"
);
}
);
width = 864;
}
);
unicode = 00AE;
userData = {
com.fontlab.hintData = {
hhints = (
{
position = 0;
width = 14;
},
{
position = 350;
width = 9;
},
{
position = 566;
width = 14;
},
{
position = 718;
width = 14;
}
);
vhints = (
{
position = 74;
width = 14;
},
{
position = 285;
width = 14;
},
{
position = 572;
width = 14;
},
{
position = 776;
width = 14;
}
);
};
com.typemytype.robofont.layerData = {
background = {
anchors = (
);
components = (
);
contours = (
{
points = (
{
segmentType = line;
smooth = 0;
x = 299;
y = 359;
},
{
segmentType = line;
smooth = 1;
x = 468;
y = 359;
},
{
smooth = 0;
x = 536;
y = 359;
},
{
smooth = 0;
x = 572;
y = 373;
},
{
segmentType = curve;
smooth = 1;
x = 572;
y = 453;
},
{
smooth = 0;
x = 572;
y = 539;
},
{
smooth = 0;
x = 532;
y = 566;
},
{
segmentType = curve;
smooth = 1;
x = 468;
y = 566;
},
{
segmentType = line;
smooth = 0;
x = 299;
y = 566;
}
);
},
{
points = (
{
segmentType = line;
smooth = 0;
x = 285;
y = 153;
},
{
segmentType = line;
smooth = 0;
x = 285;
y = 580;
},
{
segmentType = line;
smooth = 1;
x = 462;
y = 580;
},
{
smooth = 0;
x = 528;
y = 580;
},
{
smooth = 0;
x = 586;
y = 560;
},
{
segmentType = curve;
smooth = 1;
x = 586;
y = 454;
},
{
smooth = 0;
x = 586;
y = 339;
},
{
smooth = 0;
x = 508;
y = 349;
},
{
segmentType = curve;
smooth = 0;
x = 475;
y = 346;
},
{
segmentType = line;
smooth = 0;
x = 586;
y = 153;
},
{
segmentType = line;
smooth = 0;
x = 569;
y = 153;
},
{
segmentType = line;
smooth = 0;
x = 458;
y = 345;
},
{
segmentType = line;
smooth = 0;
x = 299;
y = 350;
},
{
segmentType = line;
smooth = 0;
x = 299;
y = 153;
}
);
},
{
points = (
{
segmentType = curve;
smooth = 1;
x = 88;
y = 368;
},
{
smooth = 0;
x = 86;
y = 211;
},
{
smooth = 0;
x = 159;
y = 14;
},
{
segmentType = curve;
smooth = 1;
x = 315;
y = 14;
},
{
segmentType = line;
smooth = 1;
x = 571;
y = 14;
},
{
smooth = 0;
x = 684;
y = 14;
},
{
smooth = 0;
x = 776;
y = 137;
},
{
segmentType = curve;
smooth = 1;
x = 776;
y = 368;
},
{
smooth = 0;
x = 776;
y = 559;
},
{
smooth = 0;
x = 722;
y = 718;
},
{
segmentType = curve;
smooth = 1;
x = 571;
y = 718;
},
{
segmentType = line;
smooth = 1;
x = 315;
y = 718;
},
{
smooth = 0;
x = 204;
y = 718;
},
{
smooth = 0;
x = 91;
y = 639;
}
);
},
{
points = (
{
segmentType = curve;
smooth = 1;
x = 74;
y = 368;
},
{
smooth = 0;
x = 74;
y = 531;
},
{
smooth = 0;
x = 123;
y = 732;
},
{
segmentType = curve;
smooth = 1;
x = 315;
y = 732;
},
{
segmentType = line;
smooth = 1;
x = 571;
y = 732;
},
{
smooth = 0;
x = 767;
y = 732;
},
{
smooth = 0;
x = 790;
y = 492;
},
{
segmentType = curve;
smooth = 1;
x = 790;
y = 368;
},
{
smooth = 0;
x = 790;
y = 175;
},
{
smooth = 0;
x = 722;
y = 0;
},
{
segmentType = curve;
smooth = 1;
x = 571;
y = 0;
},
{
segmentType = line;
smooth = 1;
x = 315;
y = 0;
},
{
smooth = 0;
x = 131;
y = 0;
},
{
smooth = 0;
x = 74;
y = 234;
}
);
}
);
lib = {
};
name = registered;
unicodes = (
);
width = 864;
};
};
};
},
{
glyphname = trademark;
lastChange = "2016-12-19 14:59:05 +0000";
layers = (
{
layerId = "1A646CEF-9FB5-4F4A-951A-F8B2030A9B85";
name = Light;
paths = (
{
closed = 1;
nodes = (
"325 383 LINE",
"338 383 LINE",
"362 701 LINE",
"503 383 LINE",
"514 383 LINE",
"643 700 LINE",
"672 383 LINE",
"684 383 LINE",
"653 732 LINE",
"641 732 LINE",
"508 405 LINE",
"363 732 LINE",
"352 732 LINE"
);
},
{
closed = 1;
nodes = (
"27 718 LINE",
"150 718 LINE",
"150 383 LINE",
"164 383 LINE",
"164 718 LINE",
"286 718 LINE",
"286 732 LINE",
"27 732 LINE"
);
}
);
width = 704;
}
);
unicode = 2122;
userData = {
com.fontlab.hintData = {
hhints = (
{
position = 718;
width = 14;
}
);
vhints = (
{
position = 150;
width = 14;
}
);
};
com.typemytype.robofont.layerData = {
background = {
anchors = (
);
components = (
);
contours = (
{
points = (
{
segmentType = line;
smooth = 0;
x = 325;
y = 383;
},
{
segmentType = line;
smooth = 0;
x = 352;
y = 732;
},
{
segmentType = line;
smooth = 0;
x = 363;
y = 732;
},
{
segmentType = line;
smooth = 0;
x = 508;
y = 405;
},
{
segmentType = line;
smooth = 0;
x = 641;
y = 732;
},
{
segmentType = line;
smooth = 0;
x = 653;
y = 732;
},
{
segmentType = line;
smooth = 0;
x = 684;
y = 383;
},
{
segmentType = line;
smooth = 0;
x = 672;
y = 383;
},
{
segmentType = line;
smooth = 0;
x = 643;
y = 700;
},
{
segmentType = line;
smooth = 0;
x = 514;
y = 383;
},
{
segmentType = line;
smooth = 0;
x = 503;
y = 383;
},
{
segmentType = line;
smooth = 0;
x = 362;
y = 701;
},
{
segmentType = line;
smooth = 0;
x = 338;
y = 383;
}
);
},
{
points = (
{
segmentType = line;
smooth = 0;
x = 27;
y = 718;
},
{
segmentType = line;
smooth = 0;
x = 27;
y = 732;
},
{
segmentType = line;
smooth = 0;
x = 286;
y = 732;
},
{
segmentType = line;
smooth = 0;
x = 286;
y = 718;
},
{
segmentType = line;
smooth = 0;
x = 164;
y = 718;
},
{
segmentType = line;
smooth = 0;
x = 164;
y = 383;
},
{
segmentType = line;
smooth = 0;
x = 150;
y = 383;
},
{
segmentType = line;
smooth = 0;
x = 150;
y = 718;
}
);
}
);
lib = {
};
name = trademark;
unicodes = (
);
width = 704;
};
};
};
},
{
glyphname = asciicircum;
lastChange = "2016-12-19 14:59:05 +0000";
layers = (
{
layerId = "1A646CEF-9FB5-4F4A-951A-F8B2030A9B85";
name = Light;
paths = (
{
closed = 1;
nodes = (
"68 531 LINE",
"86 531 LINE",
"210 646 LINE",
"322 531 LINE",
"340 531 LINE",
"220 661 LINE",
"200 661 LINE"
);
}
);
width = 407;
}
);
unicode = 005E;
userData = {
com.fontlab.hintData = {
hhints = (
{
position = 531;
width = 130;
}
);
vhints = (
{
position = 68;
width = 272;
}
);
};
com.typemytype.robofont.layerData = {
background = {
anchors = (
);
components = (
);
contours = (
{
points = (
{
segmentType = line;
smooth = 0;
x = 68;
y = 531;
},
{
segmentType = line;
smooth = 0;
x = 200;
y = 661;
},
{
segmentType = line;
smooth = 0;
x = 220;
y = 661;
},
{
segmentType = line;
smooth = 0;
x = 340;
y = 531;
},
{
segmentType = line;
smooth = 0;
x = 322;
y = 531;
},
{
segmentType = line;
smooth = 0;
x = 210;
y = 646;
},
{
segmentType = line;
smooth = 0;
x = 86;
y = 531;
}
);
}
);
lib = {
};
name = asciicircum;
unicodes = (
);
width = 407;
};
};
};
},
{
glyphname = asciitilde;
lastChange = "2016-12-19 14:59:05 +0000";
layers = (
{
layerId = "1A646CEF-9FB5-4F4A-951A-F8B2030A9B85";
name = Light;
paths = (
{
closed = 1;
nodes = (
"68 572 CURVE",
"72 564 LINE",
"108 590 OFFCURVE",
"136 614 OFFCURVE",
"174 614 CURVE SMOOTH",
"207 614 OFFCURVE",
"254 541 OFFCURVE",
"300 541 CURVE SMOOTH",
"342 541 OFFCURVE",
"373 570 OFFCURVE",
"406 603 CURVE",
"400 610 LINE",
"377 591 OFFCURVE",
"339 557 OFFCURVE",
"300 557 CURVE SMOOTH",
"268 557 OFFCURVE",
"217 630 OFFCURVE",
"174 630 CURVE SMOOTH",
"135 630 OFFCURVE",
"102 602 OFFCURVE"
);
}
);
width = 473;
}
);
unicode = 007E;
userData = {
com.fontlab.hintData = {
hhints = (
{
position = 541;
width = 16;
},
{
position = 614;
width = 16;
}
);
};
com.typemytype.robofont.layerData = {
background = {
anchors = (
);
components = (
);
contours = (
{
points = (
{
segmentType = line;
smooth = 0;
x = 68;
y = 572;
},
{
smooth = 0;
x = 102;
y = 602;
},
{
smooth = 0;
x = 135;
y = 630;
},
{
segmentType = curve;
smooth = 1;
x = 174;
y = 630;
},
{
smooth = 0;
x = 213;
y = 630;
},
{
smooth = 0;
x = 268;
y = 557;
},
{
segmentType = curve;
smooth = 1;
x = 300;
y = 557;
},
{
smooth = 0;
x = 339;
y = 557;
},
{
smooth = 0;
x = 377;
y = 591;
},
{
segmentType = curve;
smooth = 0;
x = 400;
y = 610;
},
{
segmentType = line;
smooth = 0;
x = 406;
y = 603;
},
{
smooth = 0;
x = 373;
y = 570;
},
{
smooth = 0;
x = 342;
y = 541;
},
{
segmentType = curve;
smooth = 1;
x = 300;
y = 541;
},
{
smooth = 0;
x = 258;
y = 541;
},
{
smooth = 0;
x = 207;
y = 614;
},
{
segmentType = curve;
smooth = 1;
x = 174;
y = 614;
},
{
smooth = 0;
x = 136;
y = 614;
},
{
smooth = 0;
x = 108;
y = 590;
},
{
segmentType = curve;
smooth = 0;
x = 72;
y = 564;
}
);
}
);
lib = {
};
name = asciitilde;
unicodes = (
);
width = 473;
};
};
};
},
{
glyphname = grave;
lastChange = "2016-12-19 14:59:05 +0000";
layers = (
{
layerId = "1A646CEF-9FB5-4F4A-951A-F8B2030A9B85";
name = Light;
paths = (
{
closed = 1;
nodes = (
"27 764 LINE",
"160 631 LINE",
"174 631 LINE",
"53 764 LINE"
);
}
);
width = 201;
}
);
unicode = 0060;
userData = {
com.fontlab.hintData = {
hhints = (
{
position = 531;
width = 133;
}
);
vhints = (
{
position = 27;
width = 147;
}
);
};
com.typemytype.robofont.layerData = {
background = {
anchors = (
);
components = (
);
contours = (
{
points = (
{
segmentType = line;
smooth = 0;
x = 27;
y = 664;
},
{
segmentType = line;
smooth = 0;
x = 53;
y = 664;
},
{
segmentType = line;
smooth = 0;
x = 174;
y = 531;
},
{
segmentType = line;
smooth = 0;
x = 160;
y = 531;
}
);
}
);
lib = {
};
name = grave;
unicodes = (
);
width = 201;
};
};
};
},
{
glyphname = acute;
lastChange = "2016-12-19 14:59:05 +0000";
layers = (
{
layerId = "1A646CEF-9FB5-4F4A-951A-F8B2030A9B85";
name = Light;
paths = (
{
closed = 1;
nodes = (
"27 631 LINE",
"41 631 LINE",
"174 764 LINE",
"148 764 LINE"
);
}
);
width = 201;
}
);
unicode = 00B4;
userData = {
com.fontlab.hintData = {
hhints = (
{
position = 531;
width = 133;
}
);
vhints = (
{
position = 27;
width = 147;
}
);
};
com.typemytype.robofont.layerData = {
background = {
anchors = (
);
components = (
);
contours = (
{
points = (
{
segmentType = line;
smooth = 0;
x = 27;
y = 531;
},
{
segmentType = line;
smooth = 0;
x = 148;
y = 664;
},
{
segmentType = line;
smooth = 0;
x = 174;
y = 664;
},
{
segmentType = line;
smooth = 0;
x = 41;
y = 531;
}
);
}
);
lib = {
};
name = acute;
unicodes = (
);
width = 201;
};
};
};
},
